<mxfile host="app.diagrams.net" modified="2024-06-22T02:51:44.962Z" agent="Mozilla/5.0 (Windows NT 10.0; Win64; x64) AppleWebKit/537.36 (KHTML, like Gecko) Chrome/126.0.0.0 Safari/537.36" etag="RVZTnk-FNtl2h34YRECs" version="24.5.5" type="github" pages="7">
  <diagram name="Page-1" id="tp0379S5NRotYZGIwrvq">
    <mxGraphModel dx="2954" dy="1326" grid="1" gridSize="10" guides="1" tooltips="1" connect="1" arrows="1" fold="1" page="1" pageScale="1" pageWidth="850" pageHeight="1100" math="0" shadow="0">
      <root>
        <mxCell id="0" />
        <mxCell id="1" parent="0" />
        <mxCell id="PY6hMegodC8Zt7V4-v8n-1" value="" style="rounded=1;whiteSpace=wrap;html=1;fillColor=#FFCC99;strokeColor=#6c8ebf;arcSize=2;opacity=50;" parent="1" vertex="1">
          <mxGeometry x="190" y="150" width="1550" height="320" as="geometry" />
        </mxCell>
        <mxCell id="PY6hMegodC8Zt7V4-v8n-5" value="" style="rounded=1;whiteSpace=wrap;html=1;fillColor=#dae8fc;strokeColor=#6c8ebf;arcSize=2;opacity=50;" parent="1" vertex="1">
          <mxGeometry x="190" y="512.5" width="1550" height="640" as="geometry" />
        </mxCell>
        <mxCell id="PY6hMegodC8Zt7V4-v8n-6" value="" style="shape=image;verticalLabelPosition=bottom;labelBackgroundColor=default;verticalAlign=top;aspect=fixed;imageAspect=0;image=data:image/png,iVBORw0KGgoAAAANSUhEUgAADwAAAAh7AgMAAACHF9MiAAAACVBMVEVHcEwAidZru+hEwATNAAAAAXRSTlMAQObYZgAAIABJREFUeNrs28ENwlAMREFyoIT0kxL+AfffChJcEAUketFMCZZWrL/D4wEAAAAAAAAAAAAAAAAAAAAAAAAAAAAAAAAAAAAAAAAAAAAAAAAAAAAAAAAAAAAAAAAAAAAAAAAAAAAAAAAAAAAAAAAAAAAAAAAAAAAAAAAAAAAAAAAAAAAAAAAAAAAAAAAAAAAAAAAAAAAAAAAAAAAAAAAAAAAAAAAAAAAAAAAAAAAAAAAAAAAAAAAAAAAAAAAAAAAAAAAAAAAAAAAAAAAAAAAAAAAAAAAAAAAAAAAAAAAAAAAAAAAAAAAAAAAAAAAAAAAAAAAAAAAAAAAAAAAAAAAAAAAAAAAAAAAAAAAAAAAAAAAAAAAAAAAAAAAAAAAAAAAAAAAAAAAAAAAAAAAAAAAAAAAAAAAAAAAAAAAAAAAAAAAAAAAAAAAAAAAAAAAAAAAAAAAAAAAAAAAAAAAAAAAAAAAAAAAAAAAAAAAAAAAAAAAAAAAAAAAAAAAAAAAAAAAAAAAAAAAAAAAAAAAAAAAAAAAAAAAAAAAAAAAAAAAAAAAAAAAAAAAAAAAAAAAAAAAAAAAAAAAAAAAAAAAAAAAAAAAAAAAAAAAAAAAAAAAAAAAAAAAAAAAAAAAAAMC/bcwAugQYup4CDAIMXNGgBRiyNgEGAQYusM8yBBBg4HQjwJD1FGAoN2gBhqptZg5jgGyDFmAIN+iXKUC3QQswhBu0AEO3QQswVI0AQ3oF9ggN4RVYgCG8AgswhFdg/waGcIMWYBBg4IoG7YoESZ8j0iyDgG6DFmDoNmhXJAg3aAGGpH08QkO8QQswhBu0AEPR9w3aGRjKK/AyCeiuwIdJQHcFFmDorsACDOEVWIAhvAK7IkG4QbsiQbhBCzCEG7QAQ7dBzzILEGDg/AbtigThH2ABhnKAzQK6DVqAIWcTYLhDgxZgyNnHdxxwgxV4GQZ0V+DDNKC7AgswdBu0AEO4QQswhBu0KxKEG7QrEoQbtACDAAMXNOhZxgECDJzj9w3aFQlidgGGezRoZ2Bo+X2D9ggN5RVYgCG8Ai/zgGyDFmDe7N3LccQ2FkBRsWoYAvPhYgLAgsg/Fa9dJrv5weeBfc52bFUN1Vd4ACiZgSdoAcPAE7SAYSzZLRK8ZIIWMAw8QbtFAgEDTfz7EknAMPIWWMAwkn/363eRYOAJWsDwtoCN1RDU8j3g2bIMY2yB8+4inTwnGGGC3gt4djQNY0zQm4Bh3Ak6CRjGnaDT/irtSUFA87kVWMAwwgR9tAInjwriT9C7N74ChkECPlimBQzxLPnUexx+RwmG2AIfrcBOsWCACXo7+qc8LIhmPh/w6mlB+C2wgGHgLXA6Cjh5WhB9gt5daGd/KguGmKAFDKP47xn0/mHz4j/YAKMHvHpgEHyCPnyPQ8AQzE6/m4Bh3An6Q8DJE4NAdi6R9iv1n1yBMbbA6/FKLWAIPkEfXwO7R4LwE3T+EzAIGKgrXw04eWYQegu8CRjGnaCTgGHcCXq30SW7R4LhA3aKBVEsOV97j8Pb0CBg4LndM+j9IVnAEM3uGfT+MdX0eYcMBJmgvwTsGBpiyHcCdgwNgSfozy9iCRhCT9D7m9wlO8WCASbo/YC//e9AWweXSPsrrIBhiC1w/hMwDLsFzt9Wa/dIEHcL/HUFdgwNcSforyuwgCFuwNvXgFcPD6JO0Olr7QKG3qb7ASdPD6JugXfzXLJjaBhggt4fkAUMQ0zQX1/EEjDEnaC/XwO7R4KwE/SZgFfPD2IGvAkYxp2g04kdc/IAoadFwDCs4zPoUwE7hoagAa9nJm5PEEJugU+8xyFg6CsLGN4Y8P72dsnukWCALfC5gJNnCN0sTwN2DA0ht8BJwBDbfDngcy9MA30n6P2AJwHDCBP0fpnTucsmoL6pQMDJY4R4W2ABw8AT9NmAHUNDwAl6O7lmCxgCTtBnA3YMDX18ukQ62Nsu2TE0DLAFXs/+KwKGcBP0+YCTJwkCBopN0AKG0KZ8/Rr47/w/CfSboDcBw7gT9HZ+1V49SwgW8P7OdhEwjLAFFjBEthQLOHmYEGuCPlhWlwvnXUA1s4DhtRP0hWtgAUO0CfpKwC6CobEvZ9BXroEdQ0O0LfClgJPnCaEm6HQlewGDgIEyW+CDJpfsGBr6+3aJdOUa2DE0BJug87XuV08UAk3QAoa4vl0iHe1qBQwjbIEv/D0Ox9AQbYK+GLBjaAg0QR8sqdPFLTNQwdd+Dza188V/HugxQQsYBp6gBQxhLfnmNfCcHUND/An6csCOoSFOwNvl2dtjhTBb4HR59vZYIcwW+CDgLGAYYAucLv+bnitEmaBvrMDJg4UoAa+XV2ABQxP59i2SgGGELXC+3r6AoYUTZ9BH18DT9X8FaD5BX3+PwzE0hJmgL/5BHb/OAIEmaAHDyAEnAcOwE/RRjEt2DA09zdUCdooF1WUBw8sn6Hyrfk8XIgc8CRi6OnUGfes9DsfQMHTAyeOFus5N0OlWwN6GhrrmR4fQAoYBJuibATvFgggT9N2AVw8Y+k/Q+eb6LWAIMEHfe48j5+QJQ/8J+sbf4xAw1HbyNayjEKeb4QMtJ2gBw7gT9O2A3SNB/wn6KOD57vUT0G6CvnsNLGAQMPBkgt5u/wBInjJUMtcP2DE0hA34/itcwFM5V34RS8DQfwt8tJMVMAwwQR+dJQsYBpignwS8es7QOeAHM3jynKHvBP0kYPdIUMXyOOBZwBB/gs4PfgQIGDpP0NuDgB1DQ+cJOj1Zw1ePGoqbcqOAk2cNPSfow0VUwCBg4KrcKmCnWNA34GfbaM8aek7Q27OvsXraUNgiYPiNCfphwMnThn4T9GGB87P+gQYTtIBh4An6cBO7CBh6mFoG7B4JOm6BH77H4Rgaek7QD9/jEDD0nKA3AcO4E/TjgJMnDgVdukQ67O/xfxoNqL8FFjCMO0E/D9g9EvQLeH38ZTxy6DVB5+c76dUzh1KmQgE/H8KB2hO0gCGSa5dIx2fIAob4E3SBgN0jQa+A1+cBO8WCThP0YXyTgKG9bAWGn5mgC7zHIWAoZS4V8JIdQ0P0LXAu8YUcQ0OfCXor8pPAg4cuE3SBa2ABQ68JOhUJePXkocMELWAYeIIuFHDy6KHDBH2Y3iRgaO1yv0XepHSPBH0m6FzoS3n20GGCFjC8MeBFwNDW9UukQi9iuUeCoQNOnj60n6BToa/lGBqeygKGX5qgi/w9DgFDnwk6F1vNPX5oPkHnYqv56vlD6wm61HscAoYOE/RW7KdB8g2A1hP0VmwFFjA0n6BTsYAdQ8MTcy55izRnx9AQfAssYBh4gj4OeBEwhA/48MsV/FkA1JmgSwacfA+gbcBbwYAdQ0PjCToJGMadoAUMAnYMDc/ksgEX/dVi4LM5974G/rScAxUm6PwnYOjv3hn0h3Onor+aCNSYoAUMA0/QZQN2DA335BABr74R0G4LXPRNSgFD2wk6p7I/EZLvBDQMeBUwDDtBl/x7HAKG1gH/lQ3YMTQ0nKAFDAHk4gEv2TE0BJ+gt9IrsICh3QSdrMAw7gSdSn/J5JsBrSbo8gH7dQZoNkF/mHgFDOMGPAkYok/Qxa+BXQTDVXOkgFffD2g0QVcIOPl+wCX3+90EDONugZOAYdwtcCo/ljuGhkYT9IeAK2yrgaITdPn3OBxDQ7MJuvx7HAKGZhP09idgELBjaGg/QVcJ2DE0DBywY2hoMkELGDp7UtqH7eosYAg+QX9IbcmOoSH2BF0p4OS7Ag0maAHDwBN0pYDdI8FJi4DhR7fAW/OtNVBsgk4ChnEn6OOAn52Nrb4xUH2C/hBatZUdKNSZgEHAAoYeE3Su9ZPBPRLUD3irtrT7zkD1CbpewOu7n/v/fPQoYakW8CLgT2PO6rNH/y3wVu0rv+kDPjmlI+QE/eFjOFX7yi8Zc3z46D5Bf1gnp3pru4ChyJxbMeD89qdsE0yVzVmhygT85VHYBNN9CyxgATPwFrhmwO8ZMWcBE3OCrvcex5s+4FZgxgt4yY6hP/4s87Y33SfoJGAB002uGHAWsIDp8MEqdND0+Gu/5xh68ftWhJygc83V/T3H0P7sF8MFPAlYwATfAtcNOAkYxg14EzDUbKzmexwCho/mmkOugL/+oEw+gvQNeK15QPaaexYBU8USPeD13T8ovclB3ICzgL8+Zx9BXh1wEjBc3ZpFeRFLwFA14K1ywJuA4erZSpkVskTAWcDQJeBJwN9/lq0+hAh43K1K8iGkwmQX4u9xvGeJmn7ib9cTZ7Ir0decHUMLmNgBV13eX/MJnwVM04VBwFZgBCxgKzCRz7C26gHndwfsIpioAZfp9xXH0L/wV78Q8GuPoQVMzIBT1Q22gKFqYquAHz7o5HPIqwN+wzmtgKlgHiLg/O6A3SPRbwss4MejjoDpGPBfg4DHP+aZBUzIgLe6A/pbdomLgGm7M4tzDfz2gL2KRYWdWZQ/qPMDAa8+iRTfmRXYnhYLePwhMwuY3w04vzvg5JPIuwNeBQzXdmbP10YBnztsEDAV1oU418AChjqFbW0CTgKGCitwqjugv+UYen7/3wxiyBVYwCUOG3wUeXfAWcBQoTABCxgBv/0YOguYkAGvArYCM2zA24Nl55fukX7g7+Yy4hlWo2tgAcN/zAMFvL36R2XyYSRcwHPJgPOrn7Q3OegTcGoW8CpgKF3Y/6sekQkYbp+sRLpFEjBUOGT6axZwEjCMG/D25oC9yUG8gLOAT/8sW30ceXfAQy9SP/B3c4m3LAR6k3LsgCcBEzLgVHmBf8mUKWB6zHWR3uMY+jMuYGJugVuuwAKGgVfgTcBQNrC1YcD5zQG7CKZHwH8CLnRc6PNI+U+VgAXMiwPeav+AeMk90vLm/3OMe4bV8j2OkQ96BIyABz6GFjDF1b4GFvClR5F8IrlkFrCA+e2A18or/EtOaqdX/3TinQGXX4GH3SfOAqbHwcqjD90/7N3fbtw6DgdgCwjvN8DyfVSguVcB+f1fZYFiz8FuT8ZjSfwr/3hXNJN4ZH6mRCmTAsBDz0pkJCIUYAJgAEa4rstinePIC5h3fnMIAN69DQ3ACAAGYARCFnAzBpx1nfjPN/IFwAj3HtZ1zgEwACMsk0rYEwBfTHa+cBQL8UDAbRfAP3CSAxEbsMI5jqyACYAR6QCTBuAOwAiElK8OwLP9wgrACHfAzRzwuctYAzBCvCrI7iLpAK77VmAchkYAcGbAFVmJMO1hOQBum4x1xWdyIFaiqANmAL4AfAAwwh2weonfo9NTvnsbAIzwBtwBGIARPqG+DVx0AJ8AjEDIrFBdANctADcARrgDbgA8O9tp390AnORA3I4zK+C2CWDCSQ5EZMAEwACMMFyWpTjHkXKeed4FXJGYiOmikODX+ZOWKQBGAPBugAsAIyIDPgEYgBFawdqUihrgugPgCsAI4ZxKcZIyZRv622df2ebzRhBJATefCtz3APwBwAgAztpveHELkJiIW6G/DQzA7wAzACMkc0q2HQzAlw1DAEZI55QsYFIDnK5XiwqMyAeY9QA3VGAEAAOw42D3FyNUkZoIqx6W0zbwNoAJv9KP8ATcUIGnB7u9GCEARsy2VYR7SYoV+NwDMCowAoCTAq4HzlIinHtYfoArACMAGIB9AeMsJWI29CeyRRNwrpUiATBCvyYI7yKRJuCeHvDLeRCSE2EEuAHw/Hrl5X9UZCdiqiZkApyrTr18AgEwAoA3A9yQnYipSV0qwDU54AbACNmUkkbEAHzRcGgvH3LYCEYYAT4cATcARjw3DHaRVLeBc6X564+PBWBEVMAHAL8HfAAw4pkVOFMbmgAYoZ9SABwDMI5iId4G5wdcc4/2xTqjIj8Rh8H6tLkCbrlHG4AR3hW4AvA04H5xIwAYYVKBq/4yewvA5eLqUYERQimV6df5kzVrLwCjAiMmggwAs7bgLQATDkMjvAAbzNK3aENfTaHxqVgIL8AdgHUAYyMY8SYMfpkQgC9HG4ARsouyfIBbZsAHACNE53T5APfEgDsAI2IDJnXA5w6AcRga4QW4AjAAIzyCADgMYMJJDoREVyXXB+qkyvNzFHBDiiL0+0vugJPkeRkGjJMcCH3A3uc4UgNuAIxwBtxQgec7DgCMkC0J+baB0+T5dZsKgBESGZUR8Jl3uA8ARkyHzOy2GlT5LdrQ14BxFAsBwIkB4zM5EC49rG4xTd+ii8UAjEgHmAH4arjf/HdDkiKUZ7cRAPesgDsAI0TXZDmn0FsAZgBGxANsUoHPrIAbACNEmyoZD2IlafaUCcDYCEZoV+AKwDIVGCc5EB4VeDxrH9qGfvf7gjjJgVie0okDLgB8d40LwAgATga4vhuqijxFPABwB2AEACvQMQJ8JgV8ADBCsqkiPnklAL5o5/W3/b6GPI0eHz+//r5dn94VAYBNxxuAt6uDhjfs3Alwgqnm2wqMo1g7zGOzAa4xAMdP9DIFGCc51O7HZ//19e+fP1a+x6drR9UE8AnAS4CxEaxdObs8oVSAjxiAe56MefnYwUkOn7sxW4QLu3ZkCIABGHx/x09pQBYTQjaBYwU4fheL3140ALu1f8RnsAAMwDjJYXcrurSfDsC7dbHeP6cB2K+dODzMH+4HE2zcAPDFSPQbgwXAJs2f0YrJ7glZTNyQGeC+KeAGcSZTT3HA3eM5JL70ZDPA5waAcZLDay0znD7+CWmziwTAVzOefuOedNk8VXpmU4SpA9+6VokmKEkUNwBOtVgkY8B6v8fZ7t3nHgFwuz0u6QCfuwFuAGzTfbgJ+JQcqj6Z0v12RlaFh2MCwB2AF0C1bSqwaPrypK870wASKJdFSgcAJwdcUYHvpmYVqsBsCVizBNvsIlkCDt6uvZPikmcpyXSgRZeAioBJYME6MrLZAZfTMPJV4FvDVbMCjjiFlug4jRSlappP8q1fAB6bZALwwijc2KgrAtTK6lhl2kUiS8Cx95FujR7Lre2fB/hGBWaB7AnSmTkB2DSKNeBiCli9ifVz7nXygMv6YAEwAEfrQudYAxeB7OEgWbkh4J4NcN+nAoeYQr+9Vl6HViQed3Ga0O/MfAHwxYA3rIFt18AClZKlaxy2gfMCrvfGC2tgoQpMAoCjHDASklXF3+6zAZMcYKyBNQCXKGm5I+DQG8F0a/QET3KgC/2PaxVoNmlMUwE4QxuarQFjDfzntRYAHn3XxRZwCwz45uhlrcAZutC0DpikxisK4Ei7SLEBb1SBW9IKzOuAw8wMjXaRAPj+FkfuCpyhC72urITJS7IRYww4cht6YSraglXgpL+NVNYBz85bATh/G3oBQg9WgZugOcMuNC0Dnh7SCsDp29ALU9EMgBOsgdkPsPwcmm0AMwBfPMruAj5RgQXWwGU5dxZG1GRTQwEMAI8CpgSAa8oK7ApYOjGlbq7Rc2KDLhbdrGQZAEuas6vAtGxsoRy1nIALAIsArvEBi24jqXSh14tkoPbqrhX4TAW43r0zsQB3lwq82oUuy4CXBlR4Ds2bVuC4gO9WqAQVuKlXYI018DpgFn/quQPuqMDSgIvYCsoWcPg1MG8F2GjJaV+Bo7ah739iu9jdL6YPyfAVeBlwiZSZms/id/NB1WgA7AM4fAVeFkaRMtOo3tkD7ukBMyqwRhe6LCczBwJcjAAzAF+MeL8/ZpEAN58KvNiFptVkLirPPQDeDjDlBBx9DczugCUXwbQt4KhtaLotITzgmnINvJzMrPPgC70N7AG4ArAL4OAVuKxmTglVW6y2gR0AB21D8xrgGgdwPzJWYNoL8AnAAQDX+5nSwgMOXoGXAQukcs0H+ATg4ZSMDrg5VeC1LjSv+gqVmsUIS3EA3PMAHvjSQICrQQWW3wc+AwCWS02rJjQ5AI7Zhi4DV8qxAR9OFXhpDVxWs5lCpebWgCsAewCOvQZeBsyhUhOAIwDuA7nSwwDuKSswrSZOrP6M1TYwAF+NRBf42jiAY1dgDgFYbBFs1S8C4CtMbeTxGgZw86rAS13o1cQpNhXPGHALCbhnqcB1ZNRqFMA1ZQVeBcyhiovVLpLHOY6ggPmRgOOsgQE4TwUOuY80dDdDAxbY6LbfB6ZFXSVWcaGtKzAAawLuR8YKHAWwUG5+oQIDsDRg0TshvQbmRcAUKzetdpGcALcdAbcggKtbBV7pQq8uUINtkZwAHAHw0Bf3xwNeqcAAPJlTLoB7DsA9JWBxcxZr4LKIq8QqLoYtNewjvR7ylhFwH7rVUdbAtAiYY+UmAbB10BBglml/2AKOXIHjAD6TAfZZBNfkgCku4LGnTpQ1MK+lzY2B/PXx+9UfJrnJ6jdT+SxBPsAMwJ5d6FMZ8K+/vvA9rhYIcI0KuCUHXOICli+aFhV4MZ9pJN9If31nWegYgIUA1+CAQ0yhvxdTFvOZ79Xf/8aXNuBiCdhlEdxTAB7ctWgRAPeUFZgW8/n6Zf/6c9gpC+ADgFcAHwkBt5QVeBFwGX0V6zZoyBKwzyI4HOBzHXAPDnjfCkyjuVZ0AbNpnUMb+hj7RKxXgxYCcHWswPNdaNYD3IazvoUB3ABYCzBHBXw4Ap6vwC8y/uv4UT5v/AAezzTeBzADsBdg+YdnVzBnsAb+Vu+Pj9+v+Ph8+wMmDJBmg8Z2s8ZlEdw2BLy8sP/QHdfAFfjNYNL1Dygz40F6DZryAMA9OWAymFaUP5L9///Zh295qgrcv3uVJOBDD7BYE/rm3XGZQwcDTALVzHhdQCkBf1uBy9tvRXOA21ThqgrVAIDtt4GrcwWeuW3Vcwo93YWm9+kx15CqUyvVpvFoVUQCwOMFhTRuvECnRKNo6ldgfr96mQM812rqGo9WxXVmAeDhfCzugMfPksQ9icU3BpJf/4DJUlp2AeyyE1wB2BpwngpcX8x56mABmoTWFZJpO8AtN+BD48br9rASVeBXr6xjS84+M4QC00NzIx6L4Fj7SCUfYBa55BgV+Nb3oWHAdeauC0wPzQHT4wGPf+i5+3saz7ywXehya+ALn4P1Z1pala8GqsvM8njANHyFKkexVJfAcSsw3fs2dI4xbDMXI7C+o0cAjtXFEgJcQwMOuwa+Cbh06YkwqVQXsRWpw4/MCpiHH8MhAbcdKnATePjeVRgacI8NuOUG7H0Ua+IBkqQCVyHAbeG12QATAD8AcJIKLOWlOgEWW5B2h5+ZFbDQMZ7me8XneKaH6ELz0hXxSvorACYHwC5HOaIDrtLmnXtYcSswL6XFUoFg+epCHiUOgJMBpokfH3YN/L//+CU1Y116dQjAI/eGnw145g8t+G5uk9AjJ0QFXrqgsjT/VADMHkA8ulh1P8BnaMApKrAx4EMesE+Fe3YXq0xkgC/gU+iRE6ECr81haK08MABvAJgmUonDAZ654ghd6LWkODUAn7LFwACwwyI40GlozgZ46i9DZKjAVQhwX/QWAHBfrkHPBtxmRixyEzrsGnhtABcreZFu0JDPDNXjKEduwEX2vgt0OpuSOcMK3M0BH2EB1/CAKwBb9rAyVGCxv05T156FCzfSiwcASwBukQEnqMDjl0OrszvaBDA/GfDM1Qn9hVHBRol7BV7vQleRZ6/AL/I02VtjwMOhi9VCA1bZyfHsYWWowELdgKHUEu6werWIntyGntkGdq3Ac4Djr4G7FODqBri46QDgwYtjv7fEU0kbvwJXKcDL36GLPls3BXzmBkx+gOdGM34FHr+asp78soAZgDMDPiMDjl+BpWasbf1b5APssAiu+wE2eUuTy+/wXeguBbgaPA61ATeZoXhEGzob4LkeVvwKLAZYYD7TADgPYJ66Nj/Acz2s+GvgJvQs646AHaen/FjAc+OXDnD4ClyFvDSB4ZzMTbmF6JEAcA8MWG0i69bDil+BAXgJsEMXKzVgt8PQs0dIwldgqWdZFRjPhIALAI9dWijAbc5OqC40AGcDHGMfqQgCPgMDjl6Bu9BldAl0XW5YzJaXADwGkZ0AT/awwq+BnZrQkic55IrgzAzAfhHcUgM+IwFWNGdVgZvQUDSJ9wLAedrQs4ea2WlScQpeb6QKXIUAV5/vIgu4uv70XIB58gHoBLikBsyiPSwAdl4EA7DQRKkpmrPqQjs1oSU3gtlXBgPwyO1zOsnxH/buIEdyG4kCqAgMD1CAeR8uqvdsgFpUnWaOPpj1tD2VyR8RP0K/bMCrzpYoPn5GUJUeyPAjSuCoJjTyQT4O8MwMuAkwsgZ+Y+RA34qCe5DB0eZfBK9ygM3L+vcPPci70CjAC3MzsYC3ANvPxWyAyRP4jUvphm9Ur1BAC/dU6reh354FIWX9++8ukNfAZIA36tl41paPbEP3d6+r8QBeFIDPutCodsD1YMBdgF95eiF3NKAbBp4E3oGAUQeCIxqwfxE8ywGeEYDf/pM8NTAK8Hoy4EuAX5lNEW9yHOzbxyMSOBLw/TzAS4ABgLepOd4ERs2ozgY4/mupE7Whx9uX1QMAH7w1xJ3Ay/EifrIqfk3M4uqba12ATwEv/6tlAXzUhQ48RfrjVb0BuMcDbg8E/P4ARrzJcTD5uRPYtfj5CeB/C3CKc6T2vggawL4bTpsamA3wd0rAD2xDFwD8w79SCWycwINARRfgn8+mAMAtO+DKCXwLcMDPx8Fs8gd80jejTmDUm4sLNayvAwbWn+AVvvRBcAcDtq3qT46ezWvgky70Ag3GVQHwSQg8rg19Atj/TY4BvlqaBJ6hgBuiBqZIYP8uVjTgcbCq+B8E39kBI0up2xLw6wncKVKtCzAx4KOvoCiXwDdXAg8BFmDLv7BaAjfc1IckMA7wQq/xhdvQR5kmwGwJvGCz4PUEJjHxtDZ0KsBHj5v6XWjQ2osD/C3AKQC3kwHkAHyxAD5I4E0HOG0CexfBmxDw0R/ezhe7rc151MDBgP+wrrycwJ0EcBPg++C5m7blzgBXS2Dk/YzzBAYCNtimlW1DpwJ8tmUfxRIYeT/9PIHHUwHHtqHflpDuAAAfH0lEQVR7JsBnb34xJ/ACjQZuGnzFAd4CXBTwzQ34oAsNArxx0+DlBKbp63p3sWLb0AMP2GxFOvwmeeYEnnSAX03gJsAhP2dXRAB45wJs+x5HYALzAH5WG/psALsr4F4A8MC1bW6qBGY5RXpaG/psAH0Pggd+u8CSwKCgWTjA33kBDwFOBHjmAoxL4G4L+NUEHjwgvPfQMy9g3y/VOXzaxF1o1BfqTNyc/xbgDICbAeDb81qZAL+fwISAX01goqaQN+DINnRPBLgfDh5xDYwCDNzdfIcBPvfwoDZ0PwQYDngmAzxgc9YY8IsJ3JgAj2cD3gLsncALNEvjErgzAfZ+lSMxYM83OYYS+P980gYC/koMuAnwESqjov42uFaSLvTkA/xiAgN3rdNmqgiwRWPpdFmlAvx+Al98gL/CAFtt1kqeI41Df46Aj/8q4hoYdAWBCczVEnIuglcc4NsC8HZba/IBHlkAf2UG7FwEx7WhWyLAxzO/fgIv4Oi+lsBNgHkAz9MPEGCHBG5YwOMsgckAX48GfP7gHgr4/S40qMybwNF9LYGpTpEe1IZOBPh8s86bwKgvlUXO+NcSmOsU6Tlt6GPAl9v9nPe7eWvg+Feh/3dwvqMA282Wgm3ofjyCbq9ina8UvAm8QBmDBPyVGvD1EMDDBvASYPMdC1cC3wIc8nMnB3ylAwzbsYATuB8lcKMD7LuH3kyA9/lAGQAGnFfxdqEJErgfJXCns+BcBDMBXscqLAD3BIBdE7gzJXCn240KsB8sr4WiVg0M3kI3lgQGAW7PBTzPB2r7XOmLl1q+Bt7ICf9SAg86wM4nwTPGbzMCfAtwRAIv5FR4KYHvpwNeAmwf9OUTeCIH+CsIMCrLHtGG7oAR9NlRpAD8dhcadAFQwK8kMN8p0uV8EpwY8IgDvMgAv53AoAEJS+D+eMBBXSzEbPIBPKoARi3fjSmBO2OUCTA94Csh4JEF8CsJPBgB+xbBMW1oxAj6AL6rAEa1MKkSWICD2tBmgNG306yulCKBKQG/kMDIHta2nTMPALwQCx26KQd545q2C50+gTkhPKANjRhBl1exIPt0JXCCBJ4C7Hs24/MmBwRwVw1sk8CUp0je72LRAJ6Qhc6jh6UEJkngwemglQfcswDGpHz5LjR0iL/TA/bdQ88AwCMLYEyjrBdP4A0F/EICs5aSrnvoxQL4ygJ4IW43bRe6WwOOSWAB9gfscBCM2SqUSuCuBHZtrqUBvCFTGXw7mKKjVA38J8AfBz/9/QTurAxcAW8SwAszTNAHATqpKpXA5tvDrxDA037eFGpDYyZTywKYNoEnI+CYBMZO8OptaEPA9rXMhnwMRQJPxrn5VQDwqA0YFJ32gEFtMtoudPIEHrSAuwBTAAaNF20CU+4Of57AvIWkaxHs34buhoDt36jBhBZFDUy5O/yOALwTA/ZvQzfMZGrmGwoQYCWwSQI34hQbpQF3UBpYA0bt0VkTeFMC/o4APAX4EPBGjdI0Xmg25nMYEpgT8I8TuBMDdu1i1QK8jJfRifkchi508gQexIBdi2D3NvQATaYeARh0nUrg4wQW4Kg29J0kgVH7FdXAJglMvQsdAuxXo1p/vBLYJIGp+0CPA7ySAF6gh6kEPk3gRg3Ycw+9GQBPlLCbD7AS2CKBO3eGVW5DowAbv4oF63aoC22RwAIc1YZusGuwvRvY8qAEtkjgwQ141AXccwDG/a6EamCLBBbgKMDjaYCVwBYJTF5Eer6LtUoBXpZPQAnMksCNHHDhNvSADaHpmxy4dUYJbJDAnRzw9SzAGzdGfIDVhTZIYHrAnkVwPOD31Fm+yQE8o6qUwE0JTFgE+3ax7ryAN2zFyloDN5YERgbcFuBjwB8fH6gxYuthKYEtEpi/i1u1DW0+BQxLmJUXcLUEpp//bRQF3AU4cQJ3kgSGLiQ2O1BHwFuAf7bC455k1i50J0ngBIA9i+BSgCGPA/mLEkrgRyZwKwp4pACMbHBXqoFZEngkmP4CHFjRd+AnK4HxCUx/iuQLeFYCvNkADyUwPIEztIAci2DPNnSOltwArnNKYHwCZwDcBDjueSArDXPAn0pgxtnvCHgL8A/Gfl9KYJIETtCEdi2CHQH3FDfTywGulcBdgAX45RJ4KYFZEjgH4OEneBYCfFutnRP4HJXARwk8Ukz+LsBRNwNdGJTA8ATO8B6HaxdLgJMAbupCZzlFci2ClwCb9bCUwPAEbknmvl8R7NfFGmkBr9SASyWwAPvVAQH3tGwuciqBWRK4JwHc6wH2qOvPn8hdD3CpBM4C+CqYwBkAg/+vaUpgdAKnmfr12tAtw2oEfZFSXWh8AqcB7FcELwG2akIrgakTeKef7gL8o3Vz5QZcKYGbAIedI6UADC4ylMDgBM4DuF4XqwuwEvg0gXsewKMaYJcbmha7hEuAWRIYOolW/sDybEOnBbyx96wu9EECjzwTX4ADFlVwE1oJjE7gRBO/XBvaBfA2uMYlwDQJnCm5qrWh0wKeAsySwC0T4FEMcIZ7QTf5BBibwFjAFY5dqgE+eyhNgLkTuGea935dLBe/LcG9oHtYUMDqQqc6RfIsgl3a0D0BYHQPSwkswALseC/oHpYAC3CZc6QMgOGZLsDYGjjXtB8C7HsvTYC5EzjVKZLjqxyVAG/0gC8BdgM8awH220N7AB78gDs14Ppd6K/pegmXABPeTF3A9X8f+HYF7PD6Qy8EuCUAjN9oaQsNBTwEOOwcKS3gSwns9QR/u+7iPF5AFGDP3UQrCtgwgffvz9+//vrvv5+/Pn/99fn74/PXxz/959fnvP7un3/59rBWIcBbgP9uw7OVwP/wBF3OL7IeAzueBFcCPLGjvWgAM3ahfQFnO0XyK4Ir1fMLu75PGsBK4C7AcW1oAa5YA/sCHsnmfIrCka0aQAO+8gMuk8ACHFjQ8wM26GEJMO8c8vkaizqAbwEWYKY55AO4TBcrwXdsGjShS3WhwwG3hICbALvdikWrslICX7UAr1KA7zqAbwG2SeBwwPlOkRxLx0KAJ/IKrwKAqyRwvia0Y/N2Ph6wRQ9LgHnDLOW2Ia4i6DkBLwEWYAFOAXhYbEwqdaEFmHnraf0kBj3gmx3w0xM44ynSleKrpJiacW8DaSajoi406yZuFQN81wG8BdgtgbcAs+yhpwALMDXgkWm+C7A34GGyTJs3sQSYHfAlwHGAJxPg690utACHAh4C7FHO2zQGtIVm3YqWA2z7KDo74C7AjwLseOFdgKMA7xqAbwEutHWIOUdyBfyOEJselppYAizALkd8CQA/fAs9sgL2KoIr3MP77owaHdW70HdWBqse4PVkwM1oTateAzsCvtMC7gJsvj0y6mH9cWGoVAOnfR9iOgJuBQDfGQEvm8U3bQIPAX4q4MYOeFQGPCoABu9DL8+fwTrtzwAvs8cKGuJZBLBlDSzAPAXkLAN4QuYmYkDMa2DPLnRoAo/EgLsAGwO2akKrBiYFvF0BXwL8mrwJWQe20fWlrYF7HcBLgJkBL8jssNohpE3gSMDgNqgzYJ8i2PCmuu8WmgdwqXPgQoCnL2CfIng7r0DT7Lm+TM+sz1HqGKkFSuipATsdozrXAHYjs6mvDwr4U4Dpm9AFimC7QYQAbmYbklI1cCTgkRvwEOBXRmYjlncI4KYttAAX6GI5A74RHwKZmsgEboyAvdq5ed46DOxi1QE8AZcHAVw+gZ0o5D5F8upi7YcCbneKBKasge+UAKY3YKculusGYtt9NASw2cSDbqGju9AC/ATAw24bg0hg5/WlVA3sBLhnB9wF2G7763x5Ahzexa0KeHoO/zQE/Jq+uzjgAjXwnR2wTxdrCTD48pBb6P7gBE5+ipQdsOUqeP6EDHtY0AQe0YAvAaYpAnxvzB3wzQLYPIE/BTjBMbBXEZwR8PmrWIZNaOjLSw9O4C7AkW3oxp3Ahk3oPz62nRbwiOoHFQDcygE2rS1ImtAPAOyCYeQH7PMqx/RbPzc34Gm3dglwNOAZAXgI8Au7K5b9QQd+NifgnXDyR/j1KYKn3/DbAp6OK8DLqwNyGD+fABhdP4YAdimClx/gZTou6xCw6fKSNoG7AD+yi2UK+LgH5b+8IG/0EVvoXgGwTxFcBfA+vLopwMb7iUDAW4ALATbtYSEBNwHOfIrktIc2uXLbfpkF4C3ATIBTtGrrdrEaNeBuOgxAwH+Ooc9wwFOAY27DrTzotll/+CZHGsAECdxiOLQigIcA//zj59GymCeB4wE7VJRFAPdKgLfx+nwGeAowEeASx8BOgO+nAbZtQiM3nQSAr5hDmRqnSE5drOk0/osEcMTqIsChtaMAVwI8jB8x7t4JutBBgFO8L8zSxVpOl20NeJ1MDuOLW8Cn75vAQ4DZi+DlNP7WgPfJxU3bm1/AaSzAAmz9OKxH8agbJ8DHu4BspeMMA5z0ZUrrUTx5k6NZjwEus2gBW4PoZQBfhQCbP2CKJnQ1wCHvUg76GU7VxfIBvEkAGzfY7AH7dqHNh0uA+TYYLQbwfF+FNeAbNowUCZwM8A4E7FEELwGeAswEuEwT2qcIXi4LqD3g9b6KixFwZwDcAiKtCbAAW5TPzoAHA2DzhqRDEzoUsMNJ8H/YO7sdt24dCkuAdW8D1fsowMy9Aojv/yonbVM0OR3vH4mkSGktBG0u4u1tkZ9ILm3PNHcAB2aAq3jEAPCuAGsMwSoAF3GAm417k67Aui70jCc5kvH8tlaBVwGYul9ZxCNW+AAuANgTwBpDcNEAOJgAWN7D2gLg4inl21yAsz+AyRnATR7gjjEskl2AKwC2BDBzOBSqXN4A4GQY4AaAF7ah0yyAi4l6wvWwNQBeA+AIgAGwNRdalImlTpFUXCx/AHc/S6ngUsa1KrD+o1jcQ2NZHmBSALjJQ3Jhq00AmGepCwC2NAQr9JBVAeC2FMAZAK9wDOwQ4OwM4GYTYLIBcFDImLUBjgCYDWCNQ02mU7RIlitwdZTvswEO3gAmuwDPe46lsOWxsgs9/OvUZ3ecbQOAmzeAO7MqOgI4mW6hyQ/AdTrACkOw/O0yL2Pfo1hJJRcXAzgrA5yXA1hhCC7it1vMAqzzdejClsfaACeVtgUAmwFYpcz1PYqVAbB9gGk5gBW+z1ClAeampK9PzyoBZjkHj2Qb4OoG4DIfYPkhuO0BsE6Aeeo8WXGhk663u94pEgC+HOba8yKlhmmxCgyAZ3YVouHIZgHW8bB4TAA7AEddLtY7BtYAmACwMYATAAbAUyb9SPMAbh3LWG0CnM0AHKQzRtaxNQFwdg9w1dnTLHhYPDOwIYCzqg1NKwIc3QNczAL8VKrAhSuPP2wA3JwAXPcAuHoDuKPMKZnQPLYtWa/A5CTViwWAPdnQSgB3DJpJq5AwrHBaHuBYdwJYfgjeFeAKgDvvZXDlUlMxoU0cA7sCOOksY8egqbZBA+Ar+/xWACcAPAyw3g93YrChsyGAowTA6c0N5TUBdmRD55kANwMeFsfB6VG81V3oIGGb/Hh90XB72i4AV9Hs5V/Gx+33SWoAZ1GAixGAaTChW9gIYPkhuIreqcAy8gBc9YJVVwN4pGlLWgBXIwCLD8FNFKyqREkzcGMcTz5kUwBnfjbymxtiz/NiBOAIgEUALjYBJg8At7Es+XIGXtSEDgqPcojeaNGixIKH9S4L3QKc2FMmkVYFNgOw+BDMxFgEwO/apTJ6gVkuND/A+d3LAfBsgNW83rtWb5oOcB0mZlIFjuwp83btaVmAEwC+8kZ1uju+IMCB2zfJGwIs7mJVZwC/OACumrFqNxN8Q4Cj0az24GI1ZwDf/MEBmr8lMw5Wg0g+AO5dvkQA2KwNrTdq3tuGFD2s9QDOvHiQHsDFDsDZMcBNjZJmwMMafnTp2O/Qd6Hf3lAbipyG02MIYCcull4jcy+lFD2stwDXsZfPq8CRNWfye4DzwgBHAOwG4MFHl/wAXEcCt5UJrTAEV7ltpuitxy2mpPbnNARw9AMwjSyOQo43SwBLD8FtCYDLfBP6/bhThl49D+DACHA8eG0EwBsBnMYB1vYrKkegZwCc+dq2dLD6aWmAxV2sJQCuk83xcYDPytCHJYDvX5W2BTgCYGaAq/peyxHnGRU4sVmfSRXgaglgcReriKVumA6wbngjM3yGAW79SayQ4bYAlh6Cq9Q9NqMAF/W9tjLs0zMAjlx9W9QFOGwFcJPKXM3v/FQDHtb7TGxDrMwDOHAxknYGOALg8wrcri9d0weYGLZpYwC37pgpJLgtgAMAvrAcszv7YwrLeJBnuNAH20rrvgwABsBDANcJAJ++53kST6nAicf7PI5UWh1g6SFYdy4VWo5iwMM6iNR4jK0BTL3ZIZ/fzRjA0o9yMGQ0AD5JxdKzgPMBjhxpow5wNQawtItVhbaYMhtgbRO6/9w0OQSYOuMFgO1VYKMAJzsA07DNMQXgwMDJ6UrQ6gBLD8FSFViVkmLAwzraasvoFj3FhT5MvdYXLvn6VDYDuAndoCrAdfJkfhqp0QAXcwBfWspEAFjcxdI82ZFajWbAwzrsBsvgjDQH4DSYOJEmAGyNX/Eh2BfAl3+s3df/8Nvrbz2e337/U56PGK78p69gtRuvymYAjmPDV8znaZHWBzgA4NN3a3qNS2fHWa5D4gXgrtMx8QGx2QNYeAguWkitAXDt6ziv/+C9Zgfgs9TraMD3M6Ht29C663jVMpNatdZZsMrV13wJ8BwX+mwXrPfL944AC7tYo0GOJgGOZAzgejW41VAFTgOpc+l0Me4AcPQIcNkQ4HD/hV98GksA939POV/rujc4RRJ3sWR2aWWAq32Ar/5mzWII4NBd7y4CnLYAWHgIFrk7AHxlSaJ1gHPnasSLyZa3AFh4CC6uAL74KFaeAXC6uVV+eZPBE8B093ctiIfJIL/SQ3B1BXB0DHC55NOSHRf6Su0ot14kPR02AGwc4IunVmQRYKLX859/+3h8vrm+pQp8KfU+/t1eHq9XvlMgdzChxV0sEYDDXIDjFICvvGv7+BPG1+t9NMgQwFdT70+EPz5ud7hxE4BlXSyJr6xo//DHpmYbNOGdtpqqwOy1Y0+AhV0sBaDE2xEbAGeOYJiqwEk01xIAng5wtAFw0epZ5AHO+wC8hwktPgQXfoDrZIDJK8Dt64vMcqHZm1wAbM3FUgc4XQA4TgI4SQE8rQIHUcBoF4AzAHYB8Pj7FmMzMHfqCYepGQVYdggW+B12csfAl3aMNGuxOBLcVgVOANj8oxxNuiCqA5wBsAeAEwCePzhkGwA3Lc9AFuAWrLXQwRXA1SjAhm1odS/BNMCJIQFNudDc3YwwwMUqwNkXwE0dYNJqWJpoq1TNtdDMlAlntVmAEwC+AXCaBnBgiISxFjrIAUz7ACw7BFfu8IqOIudTd3JbgYO9CiwHcNwIYNkhuC0GMHmtwM0iwMkRwGb5lR2CfQGcLAM8FqcKgJc8RZIeggc+d0QFZozTx7u7n+hC83K25zGw+BDMTdMEgKvSWjXJOAWLFZi1+5PtKuuuABdPAKezt0wAGADv5WJV5uCGqRV4ql+Qh69tDuAIgK27WK4ATmdgTQU4DYfBHMBBCGACwFsCfPb05txvfowAXJYHuO16DDzXmbkLcNsY4DBcnqy50JymQpM9WAmWZdOGJnsAp7kA59FL26vAANg8wIW1LwDAI0GwB3AQybOtjoGlh+CVAKa5AMcFAc4SJTJvBnCyCPDpmazeVlbcAxzMAhwlFm8vE1oY4Mp6U2UGwFXFw7rAxGgMDALMVS2FXVnbAJu0oTMAZkv2Gqy60FwAt60Blh2CPVXgdJgdaTbAaTAEFitw5E8ygTgV2wAngwBPqcDHzlmeDXAYvLBFgFlWtUqncwDACwBMANgFwHk7gEWHu07mCABz7bTFNMCRfeXsGDlqMmhDz9kJjbfQaax8mASYYVnr9gBncwDHKQAfv+v8ChzHrmvRheZIviLdT5oHOM3Ny9vNrHIrUqwA3JXsxXgFjswLt98pkkWAEwDmCpR1gANvAd7ty4TyLhYjwOI7YTYOcBi6rFGAE++6pQ0BDgD46G0NAXy/h67mAR5c2Cqfy3sDXAAwH8BpZP9cEuCmkMvm+RUdgruoy3MAPvxh1BYADiNXtelCD05wBQAD4GvmtwmA88DqW63AgRWuDU+RZv7azB47eNJBsAmA40B+mwU4MvK74ylSEH2Uo3GDtDXAYeCiZgEOjIuWALCFCQIA80w7xQfA3elXALD8EFy4QJKfRWI2D3Dov6ZdgHsJLgEAmwQ4TAI4OAA4d6eeVRe6H2CdE9HiAOCACnx6EGwE4NB9ScMVuK+CBACsMQRXrnAC4JuhqmsD3HQAbh74leyhG9d2Mg3gKm703fl0aUWAI1dl2BVgyZNgLoDrLICbqQp8meAa/ADcsbwlAGAAvDLA5UJuV7cAtwCAlVwsLoDLtH1Meou7lyexc92zaYDvTihVK4+rD4AFJ7ziB+DHAQpmAA6vvmW33ULfzMDvAQBrHQRXplhOa0SaKRPr7fMmZ8tFtgG+l4JvA/h6hmf8+efHredM379/px////Uvf3+IHyL6/Pykg7/46KBf2UhqHgGsspJ5GsB3trnY1fcwVuAaJpfg0W4svl5/fAuLKNqpLUeb8TyAq3iTcvGZqDsAX1vVzmiITDNRMqVWlvBw17Paj6eZ3e3xLA5jxpvhH0prvdSzUavUX/LwEw3cKTE25O6cVNTfc991v4dJ12qbnBYT5JMh8xkLPi10deWERDYpjr/e88lptSpLfioMZJMKMGYWGX17t94Pz5/q+3EtsGNv7kIvANaO4MJ5iUz6RRkAL9lFtyU/FYax3/X4JEVhvdVcjIV3JgT7llcAG9pjH1WX/FRIonntMzof1RL8XPJT/TUZAOD3iwOAPXdTITw/qH1b61P99QDr8/lzQwK8vygB4DVtjTU/1hOR/X2/funzCxsagnjwpTnCykMQgzIAhiCvetEswYSAoFGTgwgAQxDGXwAMQTvxCxsagtz2zwAYgoaUiQAwBAFgAAxB2qL5KogCBPUokQVVBAKCnJZfAAxBXfokAsAQ5FSZADAEeVUkO0I0IMgrvQAYgty2zzhHgqB7enySMWEIhqCrSkQAGILALwCGIPCLp6Eh6JpeZFOIDASdi6yqIDYQdKYIgCHIrR4EgCEI7TNsaAhC+wwbGoKu6YMIAEOQU2UCwBDkVYnMC0GCoC/1Ig8qCBQEfSUX/FJFoCDov4oZAEMQzCsADEHa5ZcAMAR5da/81F/Y0BD0f/okVyqIGAT9KyIADEGwrwAwBGmPv0QAGIJ8KpJD4WloCHLaPsOGhqB/9PwkAAxBPpXIqxA7CHLaPgNgCHJpPuNhSgj6qUgAGILQPuMcCYJALwCGoItK5F4IIrSte5UJAEMQzCs8DQ1BGH9hQ0PQxfaZCABDkFPRMoINDW2nRAAYglB/YUNDkLLiayl+YUNDaJ8BMAT5UAbA0P/YtWOciGEgDKNC2vS48H1o0m/zr5QD5EhQcAP2lNAgUaYiGfs9cQLMJ0/GYHz2jgTGZ2toOCoChqLTc0blbLG8EjBc+P5dImAwPltDg+WVLRYcclsjYCiqJQKGopaMzynj/vXf0HAxLz0ChqLmyDe5O2pGvH8jYChab2uz9GsNzXgyE8eNgAUM1xife+by5sxx+woYrnABTxfw3aEziCUTEjBuX+9IcK7WI2Aoas2snD0+f62h4byv3x4BQ1GZmoDRr3ckOEefPGBraAp//bZEwFC03yBgylr06yGYom6reK2hMT5bQ4PxWcBwkOlZwBifraHh/3n8tcXC5StgsLsSMBifbbGY5AZ+7j9/tY9H9vePbfezCZhKN/D25K8vIzSlbuBP0QqYwpL26rfwS78AAAAAAAAAAAAAAAAAAAAAAAAAAAAAAAAAAAAAAAAAAAAAAAAAAAAAAAAAAAAAAAAAAAAAAAAAAAAAAAAAAAAAAAAAAAAAAAAAAAAAAAAAAAAAAAAAAAAAAAAAAAAAAAAAAAAAAAAAAAAAAAAAAAAAAAAAAAAAAAAAAAAAAAAAAAAAAAAAAAAAAAAAAAAAAAAAAAAAAAAAAAAAAAAAAAAAAAAAAAAAAAAAAAAAAAAAAAAAAAAAAAAAAAAAAAAAAAAAAAAAAAAAAAAAAAAAAAAAAAAAAAAAAAAAAAAAAAAAAAAAAAAAAAAAAAAAAAAAAAAAAAAAAAAAAAAAAAAAAAAAAAAAAAAAAAAAAAAAAAAAAAAAAAAAAAAAAAAAAAAAAAAAAAAAAAAAAAAAAAAAAAAAAAAAAAAAAAAAAAAAAAAAAAAAAAAAAAAAAAAAAAAAAAAAAAAAAAAAAAAAAAAAAAAAAAAAAAAAAAAAAAAAAAAAAAAAAAAAAAAAAAAAAAAAAAAAAAAAAAAAAAAAAAAAAAAAAAAAAAAAAAAAAAAAAAAAAAAAAAAAAAAAAAAAAAAAAAAAAAAAAAAAAAAAAAAAAAAAAPDdHhwSAAAAAAj6/9obBgAAAAAAAAAAAAAAAAAAAAAAAAAAAAAAAAAAAAAAAAAAAAAAAAAAAAAAAAAAAAAAAAAAAAAAAAAAAAAAAAAAAAAAAAAAAAAAAAAAAAAAAAAAAAAAAAAAAAAAAAAAAAAAAAAAAAAAAAAAABgL5rJ0dcaG98kAAAAASUVORK5CYII=;" parent="1" vertex="1">
          <mxGeometry x="1630" y="1109.5" width="89.33" height="50.5" as="geometry" />
        </mxCell>
        <mxCell id="PY6hMegodC8Zt7V4-v8n-3" value="&lt;b&gt;&lt;font style=&quot;font-size: 32px;&quot; color=&quot;#e78822&quot;&gt;GODP&lt;/font&gt;&lt;/b&gt;" style="text;strokeColor=none;align=center;fillColor=none;html=1;verticalAlign=middle;whiteSpace=wrap;rounded=0;" parent="1" vertex="1">
          <mxGeometry x="1599.33" y="520" width="120" height="60" as="geometry" />
        </mxCell>
        <mxCell id="PY6hMegodC8Zt7V4-v8n-7" value="" style="outlineConnect=0;dashed=0;verticalLabelPosition=bottom;verticalAlign=top;align=center;html=1;shape=mxgraph.aws3.cloud_2;fillColor=#F58534;gradientColor=none;" parent="1" vertex="1">
          <mxGeometry x="1660" y="393.5" width="75" height="75" as="geometry" />
        </mxCell>
        <mxCell id="PY6hMegodC8Zt7V4-v8n-9" value="" style="shape=image;html=1;verticalAlign=top;verticalLabelPosition=bottom;labelBackgroundColor=#ffffff;imageAspect=0;aspect=fixed;image=https://cdn1.iconfinder.com/data/icons/bootstrap-vol-3/16/filetype-java-128.png" parent="1" vertex="1">
          <mxGeometry x="430" y="270" width="28" height="28" as="geometry" />
        </mxCell>
        <UserObject label="" tags="Background" id="PY6hMegodC8Zt7V4-v8n-10">
          <mxCell style="vsdxID=306;fillColor=none;gradientColor=none;image;aspect=fixed;image=data:image/png,iVBORw0KGgoAAAANSUhEUgAABcMAAAHUCAYAAAD2jDB/AAAAAXNSR0IArs4c6QAAAARnQU1BAACxjwv8YQUAAAAJcEhZcwAAFiUAABYlAUlSJPAAAEiZSURBVHhe7d3t0eM20jDcO4T9p78OwVVOwCFMCHYGE8Jm4BAcgkNwCBvChrAhvG/3DDSPRAMkQVHi1zlVXd6dSySBpkSRTQj8PwAAAAAAAAAAAAAAAAAAAAAAAAAAAAAAAAAAAAAAAAAAAAAAAAAAAAAAAAAAAAAAAAAAAAAAAAAAAAAAAAAAAAAAAAAAAAAAAAAAAAAAAAAAAAAAAAAAAAAAAAAAAAAAAAAAAAAAAAAAAAAAAAAAAAAAAAAAAAAAAAAAAAAAAAAAAAAAAAAAAAAAAAAAAAAAAAAAAAAAAAAAAAAAAAAAAAAAAAAAAAAAAAAAAAAAAAAAAAAAAAAAAAAAAAAAAAAAAAAAAAAAAAAAAAAAAAAAAAAAAAAAAAAAAAAAAAAAAAAAAAAAAAAAAAAAAAAAAAAAAAAAAAAAAAAAAAAAAAAAAAAAAAAAAAAAAAAAAAAAAAAAAAAAAAAAAAAAAAAAAAAAAAAAAAAAAAAAAAAAAAAAAAAAAAAAAAAAAAAAAAAAAAAAAAAAAAAAAAAAAAAAAAAAAAAAAAAAAAAAAAAAAAAAAAAAAAAAAAAAAAAAAAAAAAAAAAAAAAAAAAAAAAAAAAAAAAAAAAAAAAAAAAAAAAAAAAAAAAAAAAAAAAAAAAAAAAAAAAAAAAAAAAAAAAAAAAAAAAAAAAAAAAAAAAAAAAAAAAAAAAAAAAAAAAAAAAAAAAAAAAAAAAAAAAAAAAAAAAAAAAAAAAAAAAAAAAAAAAAAAAAAAAAAAAAAAAAAAAAAAAAAAAAAAAAAAAAAAAAAAAAAAAAAAAAAAAAAAAAAAAAAAAAAAAAAAAAAAAAAAAAAAAAAAAAAAAAAAAAAAAAAAAAAAAAAAAAAAAAAAAAAAAAAAAAAAAAAAAAAAAAAAAAAAAAAAAAAAAAAAAAAAAAAAAAAAAAAAAAAAAAAAAAAAAAAAAAAAAAAAAAAAAAAAAAAAAAAAAAAAAAAAAAAAAAAAAAAAAAAAAAAAAAAAAAAAAAAAAAAAAAAAAAAAAAAAAAAAAAAAAAAAAAAAAAAAAAAAAAAAAAAAAAAAAAAAAAAAAAAAAAAAAAAAAAAAAAAAAAAAAAAAAAAAAAAAAAAAAAAAAAAAAAAAAAAAAAAAABouf3y+88Rv5b4LeLfHfEl4r7sz2WVAAAAAADwWbdffv9XKVZ/jcgC9t8R/4n4/94YuY2M3F5uN7f/r9IkAAAAAABYLgvOETla+170/l9ErVi9Vfw34q+IbJ8COQAAAAAA07KYHJFTm/wZkYXmWgF675Gj1P+IyCK+4jgAAAAAAD/m+M6R1e+e6mSryBHtObXKT6XLAAAAAABcwe17ATxHTx919PfSyP5mvxXGAQAAAADOKAvAETkC/GoF8FbkSPgcMW4qFQAAAACAo7t9nwM8pwqpFYTF98g50n8tKQMAAAAA4Ahu3x+EaRR4f2S+8uaB0eIAAAAAAHt1+z4VSo5y/l9Erdi7ZeS0JDlCfRh7LNhn/vJmgqI4AAAAAMBe3P5fEbxW2H1nZNE4C9q57Swe56jqXzNK07rFsjmq/ds6InJO71zvXxG5nVob3hmK4gAAAAAAW7t9tgieI7izKJ3F4SxUb1Igju1mn7+UdmR7PjEKXlEcAAAAAODTsihbirO1wu1akcXvLLTnaO+fyqZ3KdtX2pntfee0K9+K4mWzAAAAAAC8y+371CHvGg2dI61z/bsufk+J9v9c+pHzlNf6+Wpkwf1L2RwAAAAAAGu5fZ+a5B3F3SyA56jqU04BEv3KUePvKoznPOaHvnEAAAAAALALt+9TovxRiq9rRY5szgLxpebAjv5mYTynl1l7KhVTpwAAAAAALHX7/qDINadEyTm1fy2rv7TIQ+Y2R8XX8rQkcuT5z2X1AAAAAABMuX0fDb5WofbbQx8jLjUKfK7IS44Wz5sEa910MEocAAAAAGDK7fvc4GtM43HJqVCWyjxF5E2DNYriRokDAAAAALTcvhdja8XVnshi7m9llXSK3K1VFLcfAAAAAAAe3b4XYP8uRdSlkcVX06GsJPMYscaDS3MKFvsEAAAAALi22y+//xzx6ihkBdc3ibzmnOKvzt+e06b8VFYJAAAAAHAtt19+/+2hYLokcjS5uak/IPL86lzuecPj17I6AAAAAIBruL02BUcWVr+WVfEhkfP7fOK1fTI3zCMOAAAAAJzf7XtBNac1qRVK50SOBjflxoYi/zm1TU59Uts/c+LPsioAAAAAgPO5fS+ELy2iGg2+M7E/XhklriAOAAAAAJzP7bVCuAcw7lTslxwlvnQu8dyvHnwKAAAAAJzD7bVpNf4oq2GnYh/ljY6/HvZZTyiIAwAAAADHd/teCM8pTmqF0LHIZb6U1XAAsb++Puy/nlAQBwAAAACO67a8EJ7F0Z/LajiQ2G+/Rizd5wriAAAAAMCx3H75/aeIJUXRvyMURQ8s9l/u+yXT4iiIAwAAAADHkQXNUtisFTzH4s+yCg4u9mW+B/LGRm0/j4WCOAAAAACwf1nILAXNWqFzLDwo84Riv/452M9zwk0RAAAAAGDfbssK4b+VxTmh2L8K4gAAAADAeWQBc1DQnBMK4RcQ+3nJe+NrWRwAAAAAYB9uv/z+70Ehc04ohF9I7O8/Bvt/TniPAAAAAAD7cPvl9y+DAuacUOS8oNjvvSPE/xfxc1kcAAAAAGAbWagsBctaIbMVCuEXFvu/tyD+34h/lcUBAAAAAD4rC5QRvQ/MvGwhPPqe04T8/RB/lD9dTvS9tyD+d1kUAAAAAOCzbv0FzT/LopcU/R+OoL90gTf6/9cgH1Px77IoAAAAAMBn3H75/bdBoXIqLl0IT5WcXL0YvuSXBb+WxQEAAAAA3uvWP094FjwvP+fzICcZl5/6I3KQBfGe95L5wwEAAACAz7j1jebNQufhipfR5p8i/h3xn/JPL4t1/SM/5U+XFnnovbnyV1kUAAAAAOA9bt8LxLUCZSt+LoseQrY3YjiX9csP/Yx15Ajox3V+i/Lny4tc9E6786UsCgAAAACwrtv3QnGtMNmKr2XRw4g21/r43/LnxWIdvw7W+S3KnwmRjz+G+RmJQ/7iAAAAAAA4gFvf9CiHncoi2p7zUg/789Lo8FheMXyGyMkl3mMAAAAAwE7dfvn966AQORaHfshhtL02Qvml0eGxvGL4DJGTnKu9Z/7wX8uiAAAAAACvuV2sQBntb00Hs3h0eCxbLYZHHGpO9U+InPTMH37oGy8AAAAAwI7c/vlAybH4d1ns0KIftalS/i5/7hbLtorhRjZXRF4u954DAAAAADZ0axdxa/GfstjhRV9a08IsKl7Hcq3RzorhFZGXf0XM/TVCvu6nsigAAAAAQL9b3wMNT1PYjb7k1DC1Pi4aHR7L/XuwnnsohjdEbnqmS/mzLMbJxb7OaYzyJl1+pjL+jPh7JO6vy/dTLufGyY7k/ij7JW9A5n7KZzbU9uM9hvvTNEkAAADA60qxoVZ4rMUfZbHTiD61bgR0z/Mdy2TxprYuxfARkZ8sftXyVgu5PJnYp1kozeNQFrx7bsxNRf6a4F5Y/RKhoPoBmeeS78x7z2d7Kh73p+NAiDxkrvNmwVhc5sZQpe+t2OVzPKJdc/bnWWN3+6TSxmaURRhRy1sjTv+cnejj/QbxnNjdMTzadB+wcNXYdJ9U2jOMyzyrKvs66HszyiIfU2uDmI6SPoD3i4NObd7sWmQh4nTFpOhT62ZA9yjkWKZVDP9SXkJF5Kc1Qr8Wi+d0Zz9iP2axNEcHzz3+rBVZTM3RyUaOryjzWfK6ZvF7TuRzB/IYfskbHdHvvHCo5eUxLjPF1KDfY7HL75Fo15z9edbY3T6ptLEZZRFG1PLWiNOf50UfW9cLtdjdM3OiTZ/+rt9bbLpPKu2pxW/l5acW/Zz9XiyLfEytDWI6SvoA3isOOD2jwk/5pRr9ypFYtf5mdBUQ4vWtk1sPf5yQORrkbCzcNT6g2G9ZMN2iAN6KPIG+xMXCu2T+Sh5r+f10ZGH8Ujceo79zi6f5i4vT3zAY9HksFMP3F4rhJ1fLWyMUw59DMXx/cYRieN4Iv8KvLBTDTxYlfQDvFQecuUWpXZ2YRnuyoLbaF3ysK4sotX53jQ6P1yuGLxQ5ypsSh3w/Mi72VxZ49nzhlBcM+dk1jcoMmaeSr8xbLZ9bRx5HcpT6FYq/PcXT0z9zodLnViiG7y8Uw0+ulrdGKIY/h2L4/uIIxfCMPB869blQ9E8x/GRR0gfwPnGw6RkVvpuRuNGWnFf43q5VRnXGenLKhsf+Psbs0eHx2izS19ahGD5D5OmQ70nqch9FHOmCSVF8ROal5GevRfBhnH5/Rt96i6en/i6q9LcViuH7C8Xwk6vlrRGK4c+hGL6/OEoxPOPUn6fs36C/zSiLfEytDWI6SvoA3icONnNH4f5VFtlctOWxEH6PtQrirQLP7BOeeG3rC1kxfKbIldHhBxf7Jh9mc+QLpXwPmj7lQeTjSEXwYWS7zzrN15Li6Wmnkqn0tRWK4fsLxfCTq+WtEYrhz6EYvr84UjE844+y6OlE3xTDTxYlfQDvEQeanhG4u3jwVrQjC2y19mW8/PPvXMdgnffIQsqskYXxOsXwF0WueooBl3la+hHE/siRw61fRxwx8vN86QdtRv/z8zj3BtXeI/fnqY4Z0Z8lxdP8TjvlsXPQz7FQDN9fKIafXC1vjVAMfw7F8P3F0YrhGWcdFKAYfrIo6QN4jzjQ5MO0qgegQexqjtFoz1gR/6W2xvJjxfZZJxDxOsXwFUS+5p7YnH4O3KOIfXGmouljnHZU8Zjo89lubDzGaY7H0ZelxdNTPlBz0MexUAzfXyiGn1wtb41QDH8OxfD9xRGL4ae8ER59Ugw/WZT0AawvDjI9F1u7GxUZbRor0OSDMBdf4MeyrWLef8tLRsXrFMNXEPk69Hv0amIfnLVo+hiXufESfc0bg2e8sfEYWQw+/LEj+vBK8XQ3U6CtpdLHViiG7y8Uw0+ulrdGKIY/h2L4/uKIxfCMPLc71Y3w6I9i+MmipA9gfXGQaU0HMozdFn+ybYO2PsbiEW+x3NeH9Qxjcp7VeI1i+EoiZ3OLcXK7kch9jh6e+yuTpZHvg/xc5Wc+Lx5bka9598XZKUfTPor+9UyhtSRyZFLup7xxWduP9/jE/sy2HHr+7Gj/q8XTUx0/K/1rhWL4/kIx/ORqeWuEYvhzKIbvL45aDM/4T1nNKUR/Zr8XyyIfU2uDmI6SPoB1xQHmp+EBZyR2/VOqaN/Yl9+iolUu87COYUyenOdrBsvc43Qj8N4tcja3KDdr1D7rirzn6OEsJtb2ydLI9WWRNG9K/Vo21S2WzePcl4gcsb52sT7Xd9b5lufeKO2JzFfuh9wfi0Zi53Jl+VzPO0asfy2bOpxo+xrF09M8ULPSt1Yohu8vFMNPrpa3RiiGP4di+P7iyMXwjNP82jH6ohh+sijpA1hXHGDGRj4/xu5PRKONU6NSs2jSXbSKZbIYV1tfxmiBLv7e+kI+/Yn9O0Te5ha+TlPMOYLMd8RahfBcTxZh37YPY91ZTM1j31qF8WzzaQri0Zc8lq5ZCM88Z77fMg1Jrresf83C+CEvDKPdaxRPT/N+HvRrLM5QDD/VqP49quS8GWURRtTy1gjF8Oc4ejF88eAG6io5XhKneB5O9GO3xfA9iH4f+lgDsJo4yJ2quBjtnCqId1/kx+uz0FdbV8ZowST+rhi+osjb3C9wI+8/JHK91jQaeSzKdX102pHYXo5oX6Pwe4oCYvRhzaluMq8fzUlsL4uHaxXyD1cQjzavNZI43wOHnwJo0KexUAxnUiXnzSiLMKKWt0Yohj+HYjhPKjleGmc4j1UMHxH9VgwHiANcFoFqB75hHGraiWhvFnOyMFXrS8aSgvjY+pqjHeNvraKSYvgCkbfct7V81uLUcznvQeR4jUL4tyJ4WeVmog05uvjVIuqhC4jZ9tKHWt96IvO46cMoc/ulHbX29cShCuLR3rWK4RmHv6lY6VMrFMOZVMl5M8oijKjlrRGK4c+hGM6TSo6XRl7vHvr6KdqvGD4i+q0YDhAHuLmFgsMdCKPNc+Yvnl2Ai9fm3LS1dWT8UV72D5XX3kMxfKHI3dz37WHn/T2CyO+rRbf8fO5uH0Wbsl+vFIQP+yCiaHvPxWwtcvlNi+BD0Z7cn6/26zAF8WjrmsXwjOb32xFU+tMKxXAmVXLejLIII2p5a4Ri+HMohvOkkuNX4tAP1Iz2K4aPiH4rhgPEAW6qWHyPXRU35op2r1YQj9flKMPa8hnNu+iD1z2GYvhCkbu5xYFTPR19TyK3rz4sM+fh3/XIk2hfz8niMI44vcYro6jzvbDrqbSifTmn+Cvv2UMUhaOdaxfDMw47j2ilL61QDGdSJefNKIswopa3RiiGP4diOE8qOX41DnceexdtVwwfEf1WDAeuLQ5uY/NgP8ahfyYd7Z9zITm3ID42WrQ6wrXyunsohr8g8jd3rvtD3sjZs8jp1DREY5HLHaawFm195cGgR+rnK4X/vOg4xE9qo515E+eVUf+736fRxncUw/MzcMh5RAf9GAvFcCZVct6MsggjanlrhGL4cyiG86SS4zXikDfCo92K4SOi34rhwLXFwW3uKMBDfhE+yj4M+lSLyX7mawbLPEZ1XvXK6+6hGP6CyN/cL3JTpawscrq0mJjLHa6glm2OWFIQz2V2fzMm2jj3xmgtDjeFRrQ5b+a8Mgp+1+/haN87iuEZeQPycPOIDvowForhTKrkvBllEUbU8tYIxfDnUAznSSXHa8URz9sVw0dEvxXDgWuLg9uckbVZzDn0QzTuoh9zCuKjB/z4+9TDG/9RUK+85h6K4S+I/I1NW/MY8ryiyGfPCdRjZCH8sMeSbHvpQ61vY7Hr91+0Lz9Hpx/5XhPtX/pe3nVRONr2rmJ4xuGOp5U+tGKXfYt2KYbvSCXnzSiLMKKWt0ac/lwu+qgYzmKVHK8Vh6sFRHsVw0dEvxXDgeuKA1uOdKwd8IZx2PnCaqI/cwrio33Ovw9e/xj/OFmvvOYe1ZHkzBc5nFucPMUNna1FHpcW2fKk9PD7IPsQsaRwvNuicbSt5+L1MQ7/i6GU/Rj0a27sdvqwaNs7i+EZh/o1QKX9rVAMZ1Il580oizCilrdGKIY/h2I4Tyo5XjMO9QymaK9i+Ijot2I4cF15YBsc6FpxioLHo+jTH4M+1qJZEI+/TV2YPp3gVf7+I8pLWChyOPd9vOsH+x1B5DALwXPnaX+MUz3ENPqzZMqUXY6qiTb1nAw/xqm+F7I/g/7NjV0eV6JdPcXT0/8qoNL2ViiGM6mS82aURRhRy1sjFMOfQzGcJ5Uct2Lp9/5hBshFWxXDR0S/FcOB64oD29wviVOOqI1+zZkvdqwgPlYUfFqu8vcfUV7CQpHDS/7CYQuRwyWF00NPjdISfVoyx/auTiajPUunRzndDdIU/fo66Oec2OtNjp7iad4cXjL9T/b9EPOIDto9ForhTKrkvBllEUbU8tYIxfDnUAznSSXHrcj9NGdgWC0O8RymaKdi+Ijot2I4cE1xUJua9/oem/wMPLab7csvsSxOvO3hc7HuWQXxiH8UO+Lfpr5EfrS78rcfUV7CCyKPc0Yrm5LmBZG/ufOzP8au51V+VfSt90JiV4XTaEvPRes9Tv0w2ujfkodq7m7KkGhTV/E0Yun0P4f4jA/aPBaK4Uyq5LwZZRFG1PLWCMXw51AM50klx6349lnK/w7+fW7sft9FGxXDR0S/FcOBa4qD2txRjZsUPnK7g3bkqLX8GfvqF92xzjnFj3+Mbo3/P1Uc/PHFUfnbjygv4QWRx7kFrLfdWDm7yN2SE+bDPX2+R/RvybQxuzihjHb0FNfucYlfV0Q/l4yS3tWxJdrTXTyN/879lc0wdl+gqrS5FYrhTKrkvBllEUbU8tYIxfDn2N1nPdqkGL6hSo5bcS+GL53+MG+e7/qaKtqnGD4i+q0YDlxTHtQGB7lWbFLMiu2OfTH/FbHqz/TLOmvbeoxaQXxsuR+jQAf//hTfVsRLIo9zb+6ccnqHd4u8LSmcnnoE8V30szc3/yuLbira0VvwPfUo/0fZz4jeUdK7KtJEexYVT+N/L507fdc3SirtbYViOJMqOW9GWYQRtbw1QjH8ORTDeVLJcSt+fJbify95Dk7GP66L9yTaphg+IvqtGA5cUxzU5nxBbFK0ie3OvejLL+4cEfzyyVSsI4sfc4pDT1/88b+nirBZWBjtT1kVL4g85v6r5ncQ5g1fIPLWc3GTcfoL1kfR3zk30x5j05syuf1Be+bEqUf5D0V/l8wJv5sL+2zLoG1j8XSRE/9/yVQxGbu92VhpaysUw5lUyXkzyiKMqOWtEYrhz6EYzpNKjlvx9FmK/7/knCdjt9dV0TbF8BHRb8Vw4JoqB7labDVfeN6h7i2+5ajFnL938U+2YtmlBfGxUez5N8XwD4hcztp35eXMFDlbMnXCpaajyf4O+j8Vm17Qx/bnfFYeY3dzYn9C9Lv3Jscm35k10ZaXiqfxb73fwffY5U2TSjtboRjOpErOm1EWYUQtb41QDH8OxXCeVHLcin98luLfet57j7HLX4JGuxTDR0S/FcOB64kD2tzi1qZfbrH9vPhbckGehZ5F84vnMmX52nof40dBPP479WUy+vdvG+ZlkctZDzMsL2emyFnvKNFLnjBFv3vztMkNg9huT1Et4zLTowxFv/MmR+9Ph3dxIyja8WoxPL8Lx270tuLH9GB7MmjjWCiGM6mS82aURRhRy1sjFMOfQzGcJ5Uct6L6WYp/7x0EcI/d7ctok2L4iOi3YjhwPXFAm/sT+V18sWU7IpYUxTOyQPWlrGqWeH1PQTyLJVOjQkeLKWWzvChyeaj39RFEruZOP3OPXRbCPiH63Vtk3urhxIea0mVr0f+ei4WMXYyij3a8XDyNf188j2hZxW5U2tgKxXAmVXLejLIII2p5a4Ri+HMohvOkkuNWtIrhc6+Bh5HnCrv6VWi0RzF8RPRbMRy4njigHXIEbbQpi85L5zLNEW550J/1RR2vy5OBOUWAfM2SaV1+RNkkL4pcHuIXD0eSuRrkbioufbIU/e+5gPh4wTC22Tudy3/LopcVOZj7XXCPvTwgdZXiafxtyfzyGbuaR7TSvlYohjOpkvNmlEUYUctbIxTDn0MxnCeVHLei+VmKvy35VVzGj19N70G0RTF8RPRbMRy4njigzfly2O3cytG2e1F8yRd1RvZ/chqV+PvcUXH5mlk3GGpRNscKavmtxCXnP14ictVT3M3PwSVHhd9F/3tvHnw0X7G93vZdelT4XeSh54Iho+vXSO8QbViteBp/X/r9tpv3T6VtrVAMZ1Il580oizCilrdGKIY/h2I4Tyo5bsXoZyn+3vOd8xi7uREebVEMHxH9VgwHricOaHMKvLt9OvRdtDFH7OWBfGlRPJfLonrzgV/5t/K62vKPsbQNLpRWFPmcc+Jz+oupNUSeekcRX/4mQ+SgN2cfLZrG9npublx+VPhd5KJ3uqDNH6QZbVi1eBqvWTqP6C4eqFlpVysUw5lUyXkzyiKMqOWtEYrhz6EYzpNKjlsx+VmK1/QOoLjHLt6X0Q7F8BHRb8Vw4HoqB7haHOagF229F8WXPOzrHrlsfun/Y6Rm/NvSeVNnRdkMK4h8zplGZxfTGOxd5Kn3JHhXcwVuJfLQU3D+2A2E2FZvod6J74PIR9cUXWWxzUQb1i6G5/dsz3v7HvndufkvRgZtGgvFcCZVct6MsggjanlrhGL4c+zusx5tUgzfUCXHrZj1WYrXLZ2edA+/kFMMHxH9VgwHriUOZnMvqA55ghLtzulPllywP0aOgHv6Eo///7aCeNkEK4h8zvpiLy9nROSp54Lm9Beoc0Uu8hiUuZsTnyyGu7nxgshHTzEyY9MLwdj+6sXTeN3S78HNp12rtKkViuFMquS8GWURRtTy1gjF8OdQDOdJJcetmP1ZitcuvRG+6S/DYvuz34tlkUuJfiuGA9cSB7Mvg4NbKw5dCIn254Xj0p913+PpoZvx37cUxL81mFVEPk99s+eTKjkbC3NL71zso57j4W6fGbGlyEvPr482nTYotv+W4mm8du45xDA2nXqt0p5WKIYzqZLzZpRFGFHLWyMUw59DMZwnlRy3oqcY3vsg8XtkEX2zX4bFthXDR0S/FcOBa8mD2eDgVo3y8sOLvtwftlntZ0d8Gy0esXpBvDSVFUQ+c/9U8zwIJ+AjMj+DfE2FUcQ7F/uo57j1tSzGg8hLz4MkN72hENt/W/E0Xr90HtHN3leVtrRCMZxJlZw3oyzCiFreGqEY/hyK4Typ5LgVXZ+leP3c66thbPYMldi2YviI6LdiOHAteTAbHNxqcboHp0WfXn3Y5j1yZOCrI86fojSRldRyXAlf6iMyP4N8jYVRxDsX+6j3IsbNjYrIS9eo6LLYJmL7by2exjJLbzJvUvyotKMViuFMquS8GWURRtTy1gjF8OdQDOdJJcet6P4sxTI5DWBtXVOxyfs0tqsYPiL6rRgOXEsczOZ8MZz6ZDP6l1/mrzxsc9UozWIltRxXwpf6iMhPzw2fTaeDYFrso54LmNPdDF1TJV9jsdmFfm570Jax6D4exjKvPFDz4zdbBm0YC8VwJlVy3oyyCCNqeWuEYvhz7O6zHm1SDN9QJcetWPRZiuUO80DN2KZi+Ijot2I4cC1xMJvzxbDZT5o+KfqZF5c9J21vidIcVhI5nbNPFXBHRH56ilzmC9+52Ec9J7yXOP4vFfnp+c7YclqQtxdPY7mchuwQ84gOtj8WiuFMquS8GWURRtTy1gjF8OdQDOdJJcetWPxZymUH65oTea7w0QdqxvZmt7MscinRb8Vw4FriYDanyHWpA170d615xRdFaQYriZzOOfk5/QXVKyr5GotNnxbPtNhHPRcuTnhHRH565g3f7KZbbPsjxdNYduk8oh99oGZl+61QDGdSJefNKIswopa3RiiGP8fuPuvRJsXwDVVy3IpXiuH5y7Alv7D+6I3w2JZi+Ijot2I4cC2Vg1stLnnAi37f5xX/6BQqZfOsJHI6Z4oPxfCGyE3eHKrlrBplMXYs9lPPSH8XpyMiPz0Pj9zsOBPb/ljxNJZfOo/ox0bOV7bdCsVwJlVy3oyyCCNqeWuEYvhzKIbzpJLjVrz0WYrl80b4kl+GfezXh7EtxfAR0W/FcOBaKge3Wlz+gBc5yIv7ngLS4iibZCWR0zlf7orhDZGbnqKLh2ceQGW/jYWHZ46I/PR8Pi5RDE+xjl0/ULOy3VYohjOpkvNmlEUYUctbIxTDn0MxnCeVHLfi5c9SrGPpjfCP/GoutqMYPiL6rRgOXEvl4FaLjz/kYq8iF3kB+tYpVMqmWEnkdM6XuyJuQ+TmEMU+5qvst2aURWiIHB3ilxOx7Y8XT2M9S24gf+SBmoNtjoViOJMqOW9GWYQRtbw1QjH8OY5eDD967K6YX2ljK1b5LMV6et6vj/H25w3FNhTDR0S/FcOBa6kc3Gpx+Dv12YcZkV8CcyML4kt+DjYn8su6FbW29ESt349xulGg0afsdy3PT1FezkDkpmcaCA9b3LnYR6a9WVktb60oi3xcbDuP79U2VWKtYvhu5xEdbG8sFMOZVMl5M8oijKjlrRGK4c+hGL5tXL4YnmJdc6anHMbbH6gZ65/9XiyLXEr0+9DHGoBulYNbLT765R7bywvoe3H2XsR9jMfi8D0+Oq/3hSPzXMt/PkRuuJ/y53L3/ZixyYMVY7vZllpfnqK8nIHIzaz8lXBytHOxj/KzWNt3tTh9oWENlbw1oyzycbHtnv2+2uc41rV0HtG3PlCzsr1WnKEY3vre3n2U7u5etLWW92qURRhRy1sjFMOfQzF821AMD7GuvI5f8suw/K56243wWPfs92JZ5FKi3673gGupHNxq8elieM9FnjhYlN38MbFNxfAXRG6cHJ1I7CPF8JVV8taMssjHxbY3KYanWN/SeUTfdjypbKsVZyiGHzZKd3ev1vZWlEUYUctbIxTDn0MxfNtQDC9ifUtvhL/tM53rHmyrGWWRS4l+u94DriMOZPlFVTvADUMxXKwWZTd/TGxTMfwFkRsnRycS+0gxfGWVvDWjLPJxse3NiuEp1pm/Hqptayre8sySynZaoRi+YZTu7l6t7a0oizCilrdGKIY/h2L4tqEY/iDWufR76i0P1Iz1KoaPiH673gOupXJwq4ViuFgtym7+mNimYvgLIjdOjk4k9pFi+MoqeWtGWeTjYtubFsNTrHdJUeQt84gOtjEWiuEbRunu7tXa3oqyCCNqeWuEYvhzKIZvG4rhA7HenucOPcbqD9SMdSqGj4h+u94DrqVycKuFYrhYLcpu/pjYpmL4CyI3To5OJPaRYvjKKnlrRlnk42LbeyiGL51HdPUHag7WPxaK4RtG6e7u1dreirIII2p5a4Ri+HMohm8biuEVse4/B9uaE6vfCI/1KYaPiH673gOupXJwq8Wni+EeoLnf6HmA5peI+37M8ADNA4rczMpfibc+9I7XxT6aOz1Wxv/KYoyo5K0ZZZGPi23nMbjapkq87SIn1r10HtG/yipWUVl/KxTDN4zS3d2rtb0VZRFG1PLWCMXw51AM3zYUwyti3bt4oGasa/Z7sSxyKdHvQx9rALpVDm612N2Xe6/sw4zIL4El8VgUnhNLTgjmRJ401Nr3GLV+P8ZPJWWnEX3Kftfy9RTl5QxEbvJ9Uc1ZJU5/YXoGlf3WjLIIDZGjvMir5q4WZbGPi233fI7fepET688bpbXtTsVq7aqsuxWK4RtG6e7u1dreirIII2p5a4Ri+HMohm8biuENsf48V9r0gZq5rsG6m1EWuZTo96GPNQDdKge3WrzlAVZXFfl850Vsnmjkl9npitpLlXzUcvUY/ykvZyByoxh+MpX9NharTk9xNpGfns/HZseZ2PZuiuEptzHY5txY5Xykst5WKIZvGKW7u1dreyvKIoyo5a0RiuHPoRi+bSiGj4ht9Pwy8TFW+dVprEcxfET0WzEcuJbKwa0WDngrinx+6iI252jbZGqSPYkczPlyV8RtiNx0nbyWxdix2E8900od/pdB7xT5+W2Qr7HY7DgT295VMTzFdjabR3SwzrFQDN8wSnd3r9b2VpRFGFHLWyMUw5/j6MVw5xsrq+S4FR/5LMV2es6ZHuPlB2rGOhTDR0S/FcOBa6kc3GrhgLeiyOenL2Lzy3/1p3IfRfT9r4dctEIxfEQlX2PhVwk7F/uo5+L0a1mMishPz8XDZnPqx7b3WAzf7IGag/WNhWL4hlG6u3u1treiLMKIWt4aoRj+HIrhPKnkuBUf+yzFtpbcCM946UZ4LK8YPiL6rRgOXEsczOZciDrgrSjyudVFbI4G/RpxqWkPor9zTn4Uw0dEfnpGEptWaediH+UDb2v7rhYeijoi8tNzob/Zd2lse3fF8BTb+ini4w/UrKyvFWcohmfhIV9/uCjd3b1oay3v1SiLMKKWt1aURU4r+qgYzmKVHLfio991sb0lN8LzXGHxNWwsqxg+IvqtGA5cSxzM5nwxvHTRybPIZ17k1fL8qbjUvOLRzznv8T/Ky6mI/Byi4Mc8sY/yplht39XCfPojIj89hdzNLvRz24O2jMVHP8OxvaXfiYuP25V1teIMxXDH5Der5LwZZRFG1PLWirLIaUUfewpUuysmR5sUwzdUyXErPl0Mz1+G9Qy0ucfic9JYVjF8RPRbMRy4ljiYzfliMGp2RZHPrYvhj3H6ecUH/W2FL/URmZ9BvsbC8WLnYh/1HoM8RLMi8tL7MKjN8hjb3nXxNLb50XlEK+tphWI4kyo5b0ZZhBG1vLWiLHJa0ceeX3IphvOkkuNWfPy7LraZ51BLfhm26BeLsZxi+Ijot2I4cC15MBsc3Grx3/JyVhD5XLMYnicReaK85O76Y+QJwilPQgf9bIUv9RGRny+DfE2F4unOVfbZWFz2mQNjIi89Fw6bfo/G9ndfPI3tfuyBmoN1jIViOJMqOW9GWYQRkaeeAuqpzzeif4cuJkebFMM3VMlxKzb5rovtfuxGeCyjGD4i+q0YDlxLHswGB7dqlJezgsjnmsXwjG8PE4vIguWch0WORRbVT1P4ir7MHbnpBHxE5CffX7W8tcK84TsX+6jnAtVUWRWRl545Lzedez22f4jiaWx7yTyi+b3VVRAbLD8WiuFMquS8GWURRkSeFFCL6F/PMXF3v/SMNtmXG6rkuBWbfdfFtnt+/fAYXe/3eL1i+Ijot2I4cC1xMJs74vMS80t/QuRy7WJ4xreCeFl/PpAs5wR+ZbT4fV7xQ4+4ifbPzbUT8AmRo8MU/vYkcpHvwfwszYmP3Ygq26vtu1YY7f8g8pHH2VqeWrHpTcbY/lGK4XnjbcnPprsu5CvLt0IxnEmVnDejLMKIyFPPwI5T/3Kp0t9mlEV2JdqlGL6hSo5bsel3XWx/yWCuPFeYfW4ar1UMHxH97rkucF4BHF8czBQLPyxzOcjtWvGjIH4X/z+3teSn5/fIE41c/pA3Q6Lds77Yy8sZEXnqHbmheBoiDz0n+B+7iRDb6p3v+tQFh16Rj0PdTIjtH6Z4GttfOo/o7AdqVpZthWI4kyo5b0ZZhBGRp57j62kfgB596/me/l9ZbFeiXYrhG6rkuBVbF8PzRviSX4bNfqBmvFYxfET0WzEcuJ7KAa4WDnoriVy+qxie8Y+CeMp/i8h52ZacaNwji+KHOlEtba715TF2eQGxN5EnxdNOkYPe6WW+lkU/IrbX8+uRxU/wP6PIx6FyF204VPE02vDWeUQry7VCMZxJlZw3oyzCiMhTz+d/l5/RNUTfDp+HbNegnWOhGL6ySo5bsfn7J9qw9Eb4rIEk8TrF8BHRb8Vw4HrigDbni8e0ByuJXC4thmfxZc6+qhbE7+Jv+fP+Vx66mScThzhhLW2t9eExTnshtbbIVc975vIP3o0c9Bb0PvoLjNhe72h/F6oh8tC7Xz96k6Mm2nC44mm0Y8k8ovkdOTmP6GCZsVAMZ1Il580oizAi8tR1nlwWO53oW88vO3d5nRbtUgzfUCXHrdjFd120o/eB/feYPM+K1yiGj4h+K4YD1xMHtDlfDkYFriRyubQYnpEnCXMK4rNOauJ1ub6l06jk+2bXo38H7W3FaX9iu7bM1SB3U3HpC5vof88UKR+/eRDb7B3t78ZRiDz03kjcfMqgaMMhi6fRlp5Cyj1y/4zmfPD6sVAMZ1Il580oizChlruROOVDu6NfPd81m990rYl2KYZvqJLjVuzmuy7aks+9qrVxKkbfP/F3xfAR0W/FcOB64oA2q8BVXs6LIpe9BajHyC+quT8jmz1KJF6b0znkyceSaVTyZH13RfFo09w87/ICYo8iV70PDbxs8TT63purTW7KxHZ7P/NXv8HROyp8F6P1oh1HLYbnd1PvzYeM0WNP5fWtUAxnUiXnzSiLMCFy1fPddLpfr0afeq8VJn8Rs4Vol2L4hio5bsWuvuuiPUsGauW1cfMXlvE3xfAR0W/FcOB64oA29+LeScpKKrl9jLEv62+jR+O/qxfE72KZXHfeIJmz/sf4VhSP2HwUZCptqbVzGN7XHSJfPRc2GZecOzz63TuKfpML2dhub3H3yjc4lhRmd3F8yXYM2jUWu7rIifbM/b4bRvMGU+W1rVAMZ1Il580oizAhctXzHXq6Z79En07R/2ibYviGKjluxd6K4Xm+tWSAVnOq0Ph3xfAR0W/FcOB64oBmBO2HVXL7GFPFqW8/B43/5n6bc6KweMRMLJvTqPRM9ZCRRYv8Qt20KB7b94uHN4ic9RZPs3i4ixskn5L9jegp3m06v3psv7fQeNUbHD0XChm7mV4s2nLo4mm0aek8otX3auV1rVAMZ1Il580oizAhctX7mT/VVCnRn54br3+VxXYn2qYYvqFKjluxu++6aFP+wnLJjfDqdW/8u2L4iOi3YjhwTZWDXC12e7J1NJXc/ojy97GT4B9f8vG/5945f+knpLF8bieLoD136Tctisd257TVXPgLRN56R8deal726G9v0XTTk8rc/qA9U5Gf7avd4Jh70/gxdnPTINpy+OJptmvQzrnxj19dVF7TCsVwJlVy3oyyCDPU8jcSu/ysLhF96R10sNvBStE2xfANVXLcir1+1y0598r4x2ci/k0xfET0WzEcuKY4qM35gjjdzxC3Usntjyh/n/pC+lGIyv8dMafwu0phJtaTd+pzfvG5BdHm/G3vEtvMnNTaMoyXbhJcVeSt90It4xIXOdHP3rnCM7b+FUXvSPaM0xQe5oj+9twIzNh0tP9QtOcUxdNoW+8vlTL+cfNm8PexUAxnUiXnzSiLMEPkq/fz/vHzzXeIfvQUkDN22+9om2L4hio5bsVuz+mibUuuOTKe3k/x/xXDR0S/FcOBa8qD2uAg14pdPqDlaCp5vce3Gw7x36ni1NMd7/j/Hy2I38X68o792Pzim/yaILY79+e1l5zuYQ2Ru97R4fn6048mjj72XsTu4oZMtGPJ0/svMXVW9LN3/veMXV3UZ3sG7RuLPRfD537XDePpV0CVv7dCMZxJlZw3oyzCDJGv3iLY4X/BGn3onR5m1zems32D9o6FYvjKKjluxd7fRy8/UDP+t2L4iOi3YjhwTXFQm3vyZd7wFVTyeo8fJyPxv8e++P8x6jD+bZOC+F2sN99D2ebHwvgmcziWdjz2uRWnGEW0hchd7wVbxqmnWor+LSko7+Y9GG3pvcGRceqL1+jfkhFJu7uojDadpnga7Xt5HtHK31qhGM6kSs6bURZhpshZ72f90N9J0f7e7+FdD+qI9imGb6iS41bsuhieoo2LboRHfBuIE/9VDB8R/VYMB64pDmpZSK0d7IZh3vAVVPJ6j8di+NR0C9VR+vHvcwrBbz15jvVnoXSzeaJj23MuJnY1jcERRQ57R0FnnHL+8OhX/kqi96J9V9P0RHt6Cmz3yD6f8hdD2a+HfvbE7m6yRZtOVTyNNi55r2Z8++6r/HsrFMOZVMl5M8oizBQ56x0RethnwUTbe4pRGfn9u+tf3EX7FMM3VMlxK45QDJ/61XQrvp1rx38Vw0dEvxXDgeuKA9vcL4nTT3XwbpWc3uPpZCT//+Dvj9EspOXfBq8dhgLWzgqRRxQ5XDpC81TT00R/lk7dsMeiaW/hISPfA6f6lUX0Z8nNjYxdXiBEu05XPI12LvklRkbPTQ7FcCZVct6MsggzRc6WPIfjcO/5aPOSm6+7H1wQbVQM31Alx63YfTE8RTsXn5tFKIaPiH4rhgPXlQe2wYGuFacqZG2hktN7DIvhYxe8ow80jb9fsiAefZr7Pt5kCpeziTwuLUid5jgSfVlSCN9r0XTpyJvMwSkK4tGPpRdbux2RGG07ZfE02rr05k3t32uhGM6kSs6bURahQ+Rtyef8MIXVaOtpbqgPRRsVwzdUyXErDlEMT9HWpQ/UnP3dXzZ1KdFvxXDguuLANndUghG1L6rk9B7/OBmJfxub8mO0oBh/v1xBPPoz94LCLxxWErnsudh5jMM/gyD6sOQifdcPE4229RTaHuPwx5Nsf+lHrX9jseu+R9tOWzyN9i4pIs0NxXAmVXLejLIIHSJvS0aHH+b7KNr510O758YhrsWinYrhG6rkuBWHKYanaO+SB5vPjrKZS4l+K4YD1xYHtzlzLecJpkLiCwb5fIxaMXzsDvjkyUu8ZuoO+uELWHfRj7kXTIc66du7yOfS0cQZh7y5Fu3OPi+5gM3Y/QVftLHnpPgx8n1wyAvaaPfS0UYZu/6lQ7TvzMXwV44/U6EYzqRKzptRFqFT5O50N55TtG/pr1sOcR0W7VQM31Alx6043HVRtnnQh9WibOJSot+K4cC1xcFt7kmZqVJeEPlr3XSonozEv4/dpJj8mWS8ZqrIs/sLhjmiD3O/yA8/InlvIqdLRxNn5AntYd5/2daIpaNRD/MA0Wjr0mJ/xtEKqq+MMtr9DZ1o46mLp9HmJfPtzgnFcCZVct6MsgidIndLn1GS39W7PL+Idi0phGcc5jMdbVUM31Alx604YjH8lXPx0SibuJTot2I4cG1xcPsyONi14q+yCAtE/lonh61i+NgX1KwvpHjdVEF8txcMc0X75/yyIeNUD/vbi8jrKyNr8yJ39/O4RxuzCLV0FOqhPmPZ1tLmWl/mRB7ndv1Zi/ZlEfWlPpZV7Vq08/TF02j3K8efViiGM6mS82aURVgg8rf0GSX5nb2bX0BGW175Zdlun01RE+1VDN9QJcetOFwxPEW7l05tNxpl9ZcS/VYMB4gD3NwvFQXFhSJ3vcXwsZ+B/7e8bFK89rQF8Wj33OLAoS4kjibyu3Sk0z3yAnF378FsU8Qro4fz83u4Y2a0eezYMydy2d2dNEebsl89J/61OMzxMtp5ieJptH3teUQVw5lUyXkzyiIsFDnsKa4+Rn4Xbf6r1mjDqzdgDzWtYbRXMXxDlRy34pDF8BRtnzuQb3aUVV9K9FsxHCAOcHOLWQ6EC0XuWieHzZ/b598Gr32M2SeQ8dqpu+hHncN57vvWFClvFjl+tSD+rYAasYtCY7QjT7Tn/uqgFYedlz/bHvFKQTwj87eL6bWyHaU9tXbOjUPdOIy2XqZ4Gu1fWiyrhWI4kyo5b0ZZhIUih0unS7lH3nDf5MZ0bDfPa15p++HOX6PNiuEbquS4FYcthqdo/6uDG56irPZSot+K4QBxgMvCR+3AN4zZI5J5FrlrnRw2v1zib2MPh+wqYMfrT1UQj/bmKM9aP2pxyJHvRxN5frUgnrFpUTy2m0XwNQprh3/GQvRhjYJ4xiZF8dhmHiPWKIJnHO4XNNHeKxXDc1+vsZ8zFMOZVMl5M8oivCDy+OpI0I+eW8R28vP66jHpkNNTRrsVwzdUyXErDl0MT9GHNa47vkVZ5aVEvxXDAVIc5OaetO1+jt89irx1F8NT/L31RZ8n9l0n9fH6qeLWkR70N/cL3Fz3HxT5XuvENN+nua63j66ObWQhLeclXauYdpqHDUdf8pixVl5yPTmlxVtH6MX6s825nTUK+RmHnEoq2nyp4mn0Ya2bN4rhTKrkvBllEV4UuVzjGQF5jMjzx7d8D8V6s42vTIlyj0N+76Rot2L4hio5bsUZiuF5/r7G500xfDqcVwDnlQe5wUGvFYf/8txC5m2Qx3tMFcPHLoC7i26xzNSJwyEKedFON292KnLec3I1J+5F1BwZtsrFYawnC2dZAF/6QKtWnKYQfhd9Wu1i4yHu+zSPby/t01w+It8bub61Cvf32OV89nNEuy9XPI1+rFEsUwxnUiXnY5Hnf2eIzaf+ijasNhI0Io/veR6wuDAey96/f7Jdl74Bexdtz/dKrV+1yL4O32dHj03PA2P7tTzX4hTX89GPV6dR+hZldZcS/VYMB0hxkBubkmMYh50LdyuRszxBquVy8sslXtNadtGJTCx36IJ4tm/Q3laY1mcjkfvcR2tdGA4j37t54ZkncXkRmkWif1zMxr/l+zz/lpEXvPn6/Cy9o125ztPeeIm+ZS7XLEIMI/dpFiZyH+V7577fanHfl/n6tYvfj3GYX8rURPszV7V+1eI0FznZl0HfekMxnEmVnF8hdjGKN9rxju+i/C7J84Op76A858jXZBvGzqOXRq7zsIXwFO1vXbNcJTY9/lba04rTDG6LvuRns9bH2VFWdSnR757zJecVwLnFgW7uCeYhH7i4pczZIIf3mFMMHyv+LhrREstlcWtsVOxuf7oYbZtbAPPFvaHI/5pTbOw5so+XuEEY/cxCdC0HZ4pT3NiIPvRcHJ7qWBn9GftumwrFcCZVcn6F2M15YbTl1Ztee4zDF8JT9EExfEOV9rTiNMXwFP156fy0rOZSot+K4QB3caDrudh667yvZxP5an3hzPpyide1ioovjV6M5VtF+iwI7a7AF23yHj2Q2AfvHlG8dWTR7fAXrz2iv3mT4x0j4vYQeRF/iuNG9OPKxfCpXz+NhWI4kyo5v0LsapBEtGfurwSPEKc5l4h+KIZvqNKeVpyqGJ6iT4uvN8oqLiX6rRgO8CgOdnMvII0O7xD5erUY3jrpf3kqkFjHWEF8Vyfn0Z65J9nenzsS+yN/WnymUeL52fhaundJ0f8zjcw73f6M/ly6eBp9WvpATcVwJlVyfoXY3S8Go01n+AXaqT6v0R/F8A1V2tOK0xXDU/Rr0Y3wsvilRL8VwwEexcGuZ6SFkbczRa5aXziz5ueO1+VIt9aF/cs/6Y91tPb7f8pLNhdt6SkGmNd+Z2Kf5Hv4DAXU04weflXmoeSjlqejRN4MPN3+jD5dvnga/erJwT0Uw5lUyfkVYpfT50W78twiH6Bca/OeI4v4u52ScKnok2L4hirtacVZi+Fj18vNKItfSvRbMRxgKA54c0dZ/FUWYULkqvWFM/tEOF7bWscqo6BjPbWC+G4ephltmfu+POUJ3lnE/skC6hGnTjnlhesaMi8RR5s6JS/YT7s/s28PfZ2K017kRN965xFVDGdSJedXiF0fL7N9EUcZJZ7n86ecYi36pRi+oUp7WnHaa6XoW/5ipNbnZpRFLyX6rRgOMBQHvJ7R4YpDM0Se1iiG593u2jr+V17ysljX40/L91QI9548mdhPRymK58X1bj4LexZ5yulw9n4hfOoi+F328aHPU3Hqi5zoX89xRjGcSZWcXyEOcdyMdub54l6L4qf8JdKj6J9i+IYq7WnFqQcORf96rhsVw6fDeQVwHXHQMwp3RZGnl4vhKV7fuqhfrVgX68qC+MtTr6wl2pI3AbwfTyr2WRbF8/OxZH7fd0Y+0Go3n4MjibzlMSSPVXvZp9mO0xchHkVfFU+L6F9+h8z95YJiOJMqOb9CHOomYrR3L0XxS33/RD8VwzdUaU8rTn+9FH2cPX1SWeRSot+K4QA1cdDruaNq1OSEyNFaxfAsHNbWc9opa6JvPV/Wpx/xeWax/3Jk8ZZF1CyY5bQK5gRfQeQxi5D5XZI3Fmr5fmfcCxCXvKER/VY8fRB9nDuPqGI4kyo5v0Ic8vwq2x2xxXlFnk/k998pp0Npif4qhm+o0p5WXGLwUPZz0O9qlJdfSvRbMRygJQ58c0dU5AnmpU72ekV+sshXy133xUUskyf1tXWdbh9En1rF/1oYFX4isT/zAjZHdbxzLuo8dmWhVgH8zSK/WYzM4+A792le9OT6L39TLHJw/8XFnLhEvqKf+YuFWv8fY5c396Nd9ueOVHJ+hTj8d2T04Z3fQffziSyAX/Z8ovS/9v65Smx6/K20pxWXGMgW/cxzz1r/n6K8/FKi33mdVc1HJZxXANcSB76e0eF/lMWoiPy0RnV1f7nEMq0C8dfyktOIPvWMMPFFfWK5fyOyaJ0Xsvm+6LmYzYvUXCYvVPOkLi+IFb83Fvsg9+n9wjn3T8bUTdjc74/7Mpf/uawSAGaJ7477ecXjd9DUCPL763JgivMJAIAzihO8noKTYmRD5maQq29R/twtls0T8eH6/lP+fArRn56bMX+WxbioeA/kTaL8nH2L8s8AAAAAME8pLNWKj7U4VTF2TZGbtYvhrf1yitEp0Y+587tm5OuMygEAAAAAXnPre/iZByxURF5WLYanWL42OvwU+Y9+eM8BAAAAAJ91+z79wNxRuhmmKBiInFTn+S5/XiSWrxXY/1v+fFjRh57pUXJ+YQ9vBQAAAADWcfv+gJlaMbIWCpQVgxx9i/KnxWIdtTndD/swuWi7Gy8AAAAAwLZufQ/T/KssRlHJ0ctzrMc6aqOo/yh/Ppxou/cYAAAAALCt2y+//zwoRk7F17IooZKfv8ufXhLryZH4j+s95FQp0e4/Bv0Yixw97tcHAAAAAMB73H75/d8PBck5cdgpO9ZWyc1axfDh6PA/y58Oo9KHqfhSFgUAAAAAeI9b31QWRvAWkYfhCO5ViuEp1vVXRM7rfrhcR5vzFwc984SbHgUAAAAAeL9bf/Eyi+eXL4hHDv5+yEnGasXwo4oc/Cui573k4awAAAAAwOfc+qe1ONzUHWuLHAyL4f8uf7qk6H8Wwnt+ZZDxa1kcAAAAAOAzbr/8/uegUDkVly6IR/8Vwx9E/3Nql8d8TMWl8wUAAAAAbOS2bGTvb2Xxy4m+58NHsyB+jyvnovdGyuWnlAEAAAAANnTrnz8847JFYBYVws0TDgAAAABs7/bL718eCpdzQ0H8gmK/9xbC80bLz2VxAAAAAIBt3b5PAVIrZo6FgviFxP7uLYRneI8AAAAAAPtyU+ykIfbzkvfG17I4AAAAAMC+3PofqJmhIH5isX+XFML/LIsDAAAAAOzP7Zff/xWxpCD+R1kFJxL7VSEcAAAAADin2/KCuCLoScS+XPoeyGX+VVYDAAAAALBvt19+/ynif6XA2RN/RyiGHljsv9z3CuEAAAAAwDXcfvn954glBfEsiv5cVsOBxH77NWLpPlcIBwAAAACO6ba8IJ7LfCmr4QBif3192H89oRAOAAAAABzf7XtBfMm0GRkerLlzsY9yfvC/HvZZTyiEAwAAAADnkQXPUvisFUSnIpf7qayKHYn9ktOi/Lfsp95QCAcAAAAAzicLn6UAWiuMTkVOm/K1rIodiP3x74f90xt/ltUAAAAAAJzP7XtB/M+Homhv/B1hlPiGIv+vTHuToRAOAAAAAFzD7Zff/xgUSHvCKPENRM7zRsYro8EzfiurAwAAAAC4hiyMDgqlvZGjxH8uq+ONIs+vzA2ekTcwfi2rAwAAAAC4ltv3KTeyUForoM6NnHbFgxjfIPL6U8RfJc9LwwNQAQAAAABu36ffyFHetULq3MiCek7hoSi+gsxjxCtT2dzDjQoAAAAAgEe31+ejzsiiuHmpF4rc3ecFf3W0vv0AAAAAANBye31u6nvkOr5GGJU8Q+YpYo0ieEZOi2IudwAAAACAMbfvhdlX56m+h+lTRkReck7wnMpkjSJ4xr/LqgEAAAAAmOP2y+9fItYq0mZk0ffXsvpLizxkbte64ZBhNDgAAAAAwFK376PE13iQ42Pcp1D5qWzmErK/ETlKfo1paB7DaHAAAAAAgDXcvs8lnqOPa8XYVyJHR/8WccppVKJfWQDPwv87cvd3xKVuKAAAAAAAfMTte2F3zalTHiML44cfMR7t/7n04x0F8IwcWf6lbA4AAAAAgHe4fZ86Jaf7qBVq14os+OYc4zlqfNfF8WxfaeeaD8KsxbeHkZbNAgAAAADwCbfvReAsANcKt2tHFsdz5HgW4XPKlk2mVYntZp/z4ZfZjpym5J3F73t8K4JHnHIqGQAAAACAQ7h9tij+GFkkzoJ0bjuLxTk6Owvli4vludzDOnKqk1xvFuFzO7U2vDMUwQEAAAAA9ub2/4rinxgt3Rs5f3cWtIeRI85rr98yFMEBAAAAAPYui7ilmLvHQvOeI/OVo9sVwQEAAAAAjqQUd3MEdq34K75Hjqb/taQMAAAAAICjun2fQsVo8f8XOW1LzkluFDgAAAAAwBndfvn954g/Iq5WGM8CePb7p5IKAAAAAACu4Pa9MJ4jxrNQXCsgHz1yipgcAa4ADgAAAADAjwdv5hzjOYf2UUeN30d/f4kwBQoAAAAAAOOymFyKyjlyPEdY/y+iVoDeKrJg/1dEtu/XCMVvAAAAAABelwXnUnjOqUfuRfJ3T7GS28jI7eV2Fb4BAAAAANjO7fsc5FmszsgpV7KAPTdyFPp9WXN8AwAAAAAAAAAAAAAAAAAAAAAAAAAAAAAAAAAAAAAAAAAAAAAAAAAAAAAAAAAAAAAAAAAAAAAAAAAAAAAAAAAAAAAAAAAAAAAAAAAAAAAAAAAAAAAAAAAAAAAAAAAAAAAAAAAAAAAAAAAAAAAAAAAAAAAAAAAAAAAAAAAAAAAAAAAAAAAAAAAAAAAAAAAAAAAAAAAAAAAAAAAAAAAAAAAAAAAAAAAAAAAAAAAAAAAAAAAAAAAAAAAAAAAAAAAAAAAAAAAAAAAAAAAAAAAAAAAAAAAAAAAAAAAAAAAAAAAAAAAAAAAAAAAAAAAAAAAAAAAAAAAAAAAAAAAAAAAAAAAAAAAAAAAAAAAAAAAAAAAAAAAAAAAAAAAAAAAAAAAAAAAAAAAAAAAAAAAAAAAAAAAAAAAAAAAAAAAAAAAAAAAAAAAAAAAAAAAAAAAAAAAAAAAAAAAAAAAAAAAAAAAAAAAAAAAAAAAAAAAAAAAAAAAAAAAAAAAAAAAAAAAAAAAAAAAAAAAAAAAAAAAAAAAAAAAAAAAAAAAAAAAAAAAAAAAAAAAAAAAAAAAAAAAAAAAAAAAAAAAAAAAAAAAAAAAAAAAAAAAAAAAAAAAAAAAAAAAAAAAAAAAAAAAAAAAAAAAAAAAAAAAAAAAAAAAAAAAAAAAAAAAAAAAAAAAAAAAAAAAAAAAAAAAAAAAAAAAAAAAAAAAAAAAAAAAAAAAAAAAAAAAAAAAAAAAAAAAAAAAAAAAAAAAAAAAAAAAAAAAAAAAAAAAAAAAAAAAAAAAAAAAAAAAAAAAAAAAAAAAAAAAAAAAAAAAAAAAAAAAAAAAAAAAAAAAAAAAAAAAAAAAAAAAAAAAAAAAAAAAAAAAAAAAAAAAAAAAAAAAAAAAAAAAAAAAAAAAAAAAAAAAAAAAAAAAAAAAAAAAAAAAAAAAAAAAAAAAAAAAAAAAAAAAAAAAAAAAAAAAAAAAAAAAAAAAAAAAAAAAAAAAAAAAAAAAAAAAAAAAAAAAAAAAAAAAAAAAAAAAAAAAAAAAAAAAAAAAAAAAAAAAczv/93/8PFdu4UC8Qt98AAAAASUVORK5CYII=;strokeColor=none;points=[[0,0.48,0],[1,0.48,0],[0.51,1,0]];labelBackgroundColor=none;rounded=0;html=1;whiteSpace=wrap;" parent="1" vertex="1">
            <mxGeometry x="560" y="353.5" width="225.7" height="71.5" as="geometry" />
          </mxCell>
        </UserObject>
        <mxCell id="PY6hMegodC8Zt7V4-v8n-11" style="edgeStyle=orthogonalEdgeStyle;rounded=0;orthogonalLoop=1;jettySize=auto;html=1;strokeWidth=2;fillColor=#d5e8d4;strokeColor=#82b366;" parent="1" source="PY6hMegodC8Zt7V4-v8n-22" target="PY6hMegodC8Zt7V4-v8n-10" edge="1">
          <mxGeometry relative="1" as="geometry">
            <mxPoint x="298" y="264" as="sourcePoint" />
            <mxPoint x="1015" y="474" as="targetPoint" />
          </mxGeometry>
        </mxCell>
        <mxCell id="PY6hMegodC8Zt7V4-v8n-13" value="" style="rounded=1;whiteSpace=wrap;html=1;fillColor=#EBFBFF;strokeColor=#E7E3FF;shadow=1;" parent="1" vertex="1">
          <mxGeometry x="430" y="550" width="850" height="130" as="geometry" />
        </mxCell>
        <UserObject label="&lt;font style=&quot;font-size: 18px;&quot;&gt;Data Mesh&lt;/font&gt;" tags="Background" id="PY6hMegodC8Zt7V4-v8n-12">
          <mxCell style="vsdxID=306;fillColor=none;gradientColor=none;image;aspect=fixed;image=data:image/png,iVBORw0KGgoAAAANSUhEUgAABcMAAAHUCAYAAAD2jDB/AAAAAXNSR0IArs4c6QAAAARnQU1BAACxjwv8YQUAAAAJcEhZcwAAFiUAABYlAUlSJPAAAEiZSURBVHhe7d3t0eM20jDcO4T9p78OwVVOwCFMCHYGE8Jm4BAcgkNwCBvChrAhvG/3DDSPRAMkQVHi1zlVXd6dSySBpkSRTQj8PwAAAAAAAAAAAAAAAAAAAAAAAAAAAAAAAAAAAAAAAAAAAAAAAAAAAAAAAAAAAAAAAAAAAAAAAAAAAAAAAAAAAAAAAAAAAAAAAAAAAAAAAAAAAAAAAAAAAAAAAAAAAAAAAAAAAAAAAAAAAAAAAAAAAAAAAAAAAAAAAAAAAAAAAAAAAAAAAAAAAAAAAAAAAAAAAAAAAAAAAAAAAAAAAAAAAAAAAAAAAAAAAAAAAAAAAAAAAAAAAAAAAAAAAAAAAAAAAAAAAAAAAAAAAAAAAAAAAAAAAAAAAAAAAAAAAAAAAAAAAAAAAAAAAAAAAAAAAAAAAAAAAAAAAAAAAAAAAAAAAAAAAAAAAAAAAAAAAAAAAAAAAAAAAAAAAAAAAAAAAAAAAAAAAAAAAAAAAAAAAAAAAAAAAAAAAAAAAAAAAAAAAAAAAAAAAAAAAAAAAAAAAAAAAAAAAAAAAAAAAAAAAAAAAAAAAAAAAAAAAAAAAAAAAAAAAAAAAAAAAAAAAAAAAAAAAAAAAAAAAAAAAAAAAAAAAAAAAAAAAAAAAAAAAAAAAAAAAAAAAAAAAAAAAAAAAAAAAAAAAAAAAAAAAAAAAAAAAAAAAAAAAAAAAAAAAAAAAAAAAAAAAAAAAAAAAAAAAAAAAAAAAAAAAAAAAAAAAAAAAAAAAAAAAAAAAAAAAAAAAAAAAAAAAAAAAAAAAAAAAAAAAAAAAAAAAAAAAAAAAAAAAAAAAAAAAAAAAAAAAAAAAAAAAAAAAAAAAAAAAAAAAAAAAAAAAAAAAAAAAAAAAAAAAAAAAAAAAAAAAAAAAAAAAAAAAAAAAAAAAAAAAAAAAAAAAAAAAAAAAAAAAAAAAAAAAAAAAAAAAAAAAAAAAAAAAAAAAAAAAAAAAAAAAAAAAAAAAAAAAAAAAAAAAAAAAAAAAAAAAAAAAAAAAAAAAAAAAAAAAAAAAAAAAAAAAAAAAAAAAAAAAAAAAAAAAAAAAAAAAAAAAAAAAAAAAAAAAAAAAAAAAAAAAAAAAAAAAAAAAAAAAAAAAAAAAAAAAABouf3y+88Rv5b4LeLfHfEl4r7sz2WVAAAAAADwWbdffv9XKVZ/jcgC9t8R/4n4/94YuY2M3F5uN7f/r9IkAAAAAABYLgvOETla+170/l9ErVi9Vfw34q+IbJ8COQAAAAAA07KYHJFTm/wZkYXmWgF675Gj1P+IyCK+4jgAAAAAAD/m+M6R1e+e6mSryBHtObXKT6XLAAAAAABcwe17ATxHTx919PfSyP5mvxXGAQAAAADOKAvAETkC/GoF8FbkSPgcMW4qFQAAAACAo7t9nwM8pwqpFYTF98g50n8tKQMAAAAA4Ahu3x+EaRR4f2S+8uaB0eIAAAAAAHt1+z4VSo5y/l9Erdi7ZeS0JDlCfRh7LNhn/vJmgqI4AAAAAMBe3P5fEbxW2H1nZNE4C9q57Swe56jqXzNK07rFsjmq/ds6InJO71zvXxG5nVob3hmK4gAAAAAAW7t9tgieI7izKJ3F4SxUb1Igju1mn7+UdmR7PjEKXlEcAAAAAODTsihbirO1wu1akcXvLLTnaO+fyqZ3KdtX2pntfee0K9+K4mWzAAAAAAC8y+371CHvGg2dI61z/bsufk+J9v9c+pHzlNf6+Wpkwf1L2RwAAAAAAGu5fZ+a5B3F3SyA56jqU04BEv3KUePvKoznPOaHvnEAAAAAALALt+9TovxRiq9rRY5szgLxpebAjv5mYTynl1l7KhVTpwAAAAAALHX7/qDINadEyTm1fy2rv7TIQ+Y2R8XX8rQkcuT5z2X1AAAAAABMuX0fDb5WofbbQx8jLjUKfK7IS44Wz5sEa910MEocAAAAAGDK7fvc4GtM43HJqVCWyjxF5E2DNYriRokDAAAAALTcvhdja8XVnshi7m9llXSK3K1VFLcfAAAAAAAe3b4XYP8uRdSlkcVX06GsJPMYscaDS3MKFvsEAAAAALi22y+//xzx6ihkBdc3ibzmnOKvzt+e06b8VFYJAAAAAHAtt19+/+2hYLokcjS5uak/IPL86lzuecPj17I6AAAAAIBruL02BUcWVr+WVfEhkfP7fOK1fTI3zCMOAAAAAJzf7XtBNac1qRVK50SOBjflxoYi/zm1TU59Uts/c+LPsioAAAAAgPO5fS+ELy2iGg2+M7E/XhklriAOAAAAAJzP7bVCuAcw7lTslxwlvnQu8dyvHnwKAAAAAJzD7bVpNf4oq2GnYh/ljY6/HvZZTyiIAwAAAADHd/teCM8pTmqF0LHIZb6U1XAAsb++Puy/nlAQBwAAAACO67a8EJ7F0Z/LajiQ2G+/Rizd5wriAAAAAMCx3H75/aeIJUXRvyMURQ8s9l/u+yXT4iiIAwAAAADHkQXNUtisFTzH4s+yCg4u9mW+B/LGRm0/j4WCOAAAAACwf1nILAXNWqFzLDwo84Riv/452M9zwk0RAAAAAGDfbssK4b+VxTmh2L8K4gAAAADAeWQBc1DQnBMK4RcQ+3nJe+NrWRwAAAAAYB9uv/z+70Ehc04ohF9I7O8/Bvt/TniPAAAAAAD7cPvl9y+DAuacUOS8oNjvvSPE/xfxc1kcAAAAAGAbWagsBctaIbMVCuEXFvu/tyD+34h/lcUBAAAAAD4rC5QRvQ/MvGwhPPqe04T8/RB/lD9dTvS9tyD+d1kUAAAAAOCzbv0FzT/LopcU/R+OoL90gTf6/9cgH1Px77IoAAAAAMBn3H75/bdBoXIqLl0IT5WcXL0YvuSXBb+WxQEAAAAA3uvWP094FjwvP+fzICcZl5/6I3KQBfGe95L5wwEAAACAz7j1jebNQufhipfR5p8i/h3xn/JPL4t1/SM/5U+XFnnovbnyV1kUAAAAAOA9bt8LxLUCZSt+LoseQrY3YjiX9csP/Yx15Ajox3V+i/Lny4tc9E6786UsCgAAAACwrtv3QnGtMNmKr2XRw4g21/r43/LnxWIdvw7W+S3KnwmRjz+G+RmJQ/7iAAAAAAA4gFvf9CiHncoi2p7zUg/789Lo8FheMXyGyMkl3mMAAAAAwE7dfvn966AQORaHfshhtL02Qvml0eGxvGL4DJGTnKu9Z/7wX8uiAAAAAACvuV2sQBntb00Hs3h0eCxbLYZHHGpO9U+InPTMH37oGy8AAAAAwI7c/vlAybH4d1ns0KIftalS/i5/7hbLtorhRjZXRF4u954DAAAAADZ0axdxa/GfstjhRV9a08IsKl7Hcq3RzorhFZGXf0XM/TVCvu6nsigAAAAAQL9b3wMNT1PYjb7k1DC1Pi4aHR7L/XuwnnsohjdEbnqmS/mzLMbJxb7OaYzyJl1+pjL+jPh7JO6vy/dTLufGyY7k/ij7JW9A5n7KZzbU9uM9hvvTNEkAAADA60qxoVZ4rMUfZbHTiD61bgR0z/Mdy2TxprYuxfARkZ8sftXyVgu5PJnYp1kozeNQFrx7bsxNRf6a4F5Y/RKhoPoBmeeS78x7z2d7Kh73p+NAiDxkrvNmwVhc5sZQpe+t2OVzPKJdc/bnWWN3+6TSxmaURRhRy1sjTv+cnejj/QbxnNjdMTzadB+wcNXYdJ9U2jOMyzyrKvs66HszyiIfU2uDmI6SPoD3i4NObd7sWmQh4nTFpOhT62ZA9yjkWKZVDP9SXkJF5Kc1Qr8Wi+d0Zz9iP2axNEcHzz3+rBVZTM3RyUaOryjzWfK6ZvF7TuRzB/IYfskbHdHvvHCo5eUxLjPF1KDfY7HL75Fo15z9edbY3T6ptLEZZRFG1PLWiNOf50UfW9cLtdjdM3OiTZ/+rt9bbLpPKu2pxW/l5acW/Zz9XiyLfEytDWI6SvoA3isOOD2jwk/5pRr9ypFYtf5mdBUQ4vWtk1sPf5yQORrkbCzcNT6g2G9ZMN2iAN6KPIG+xMXCu2T+Sh5r+f10ZGH8Ujceo79zi6f5i4vT3zAY9HksFMP3F4rhJ1fLWyMUw59DMXx/cYRieN4Iv8KvLBTDTxYlfQDvFQecuUWpXZ2YRnuyoLbaF3ysK4sotX53jQ6P1yuGLxQ5ypsSh3w/Mi72VxZ49nzhlBcM+dk1jcoMmaeSr8xbLZ9bRx5HcpT6FYq/PcXT0z9zodLnViiG7y8Uw0+ulrdGKIY/h2L4/uIIxfCMPB869blQ9E8x/GRR0gfwPnGw6RkVvpuRuNGWnFf43q5VRnXGenLKhsf+Psbs0eHx2izS19ahGD5D5OmQ70nqch9FHOmCSVF8ROal5GevRfBhnH5/Rt96i6en/i6q9LcViuH7C8Xwk6vlrRGK4c+hGL6/OEoxPOPUn6fs36C/zSiLfEytDWI6SvoA3icONnNH4f5VFtlctOWxEH6PtQrirQLP7BOeeG3rC1kxfKbIldHhBxf7Jh9mc+QLpXwPmj7lQeTjSEXwYWS7zzrN15Li6Wmnkqn0tRWK4fsLxfCTq+WtEYrhz6EYvr84UjE844+y6OlE3xTDTxYlfQDvEQeanhG4u3jwVrQjC2y19mW8/PPvXMdgnffIQsqskYXxOsXwF0WueooBl3la+hHE/siRw61fRxwx8vN86QdtRv/z8zj3BtXeI/fnqY4Z0Z8lxdP8TjvlsXPQz7FQDN9fKIafXC1vjVAMfw7F8P3F0YrhGWcdFKAYfrIo6QN4jzjQ5MO0qgegQexqjtFoz1gR/6W2xvJjxfZZJxDxOsXwFUS+5p7YnH4O3KOIfXGmouljnHZU8Zjo89lubDzGaY7H0ZelxdNTPlBz0MexUAzfXyiGn1wtb41QDH8OxfD9xRGL4ae8ER59Ugw/WZT0AawvDjI9F1u7GxUZbRor0OSDMBdf4MeyrWLef8tLRsXrFMNXEPk69Hv0amIfnLVo+hiXufESfc0bg2e8sfEYWQw+/LEj+vBK8XQ3U6CtpdLHViiG7y8Uw0+ulrdGKIY/h2L4/uKIxfCMPLc71Y3w6I9i+MmipA9gfXGQaU0HMozdFn+ybYO2PsbiEW+x3NeH9Qxjcp7VeI1i+EoiZ3OLcXK7kch9jh6e+yuTpZHvg/xc5Wc+Lx5bka9598XZKUfTPor+9UyhtSRyZFLup7xxWduP9/jE/sy2HHr+7Gj/q8XTUx0/K/1rhWL4/kIx/ORqeWuEYvhzKIbvL45aDM/4T1nNKUR/Zr8XyyIfU2uDmI6SPoB1xQHmp+EBZyR2/VOqaN/Yl9+iolUu87COYUyenOdrBsvc43Qj8N4tcja3KDdr1D7rirzn6OEsJtb2ydLI9WWRNG9K/Vo21S2WzePcl4gcsb52sT7Xd9b5lufeKO2JzFfuh9wfi0Zi53Jl+VzPO0asfy2bOpxo+xrF09M8ULPSt1Yohu8vFMNPrpa3RiiGP4di+P7iyMXwjNP82jH6ohh+sijpA1hXHGDGRj4/xu5PRKONU6NSs2jSXbSKZbIYV1tfxmiBLv7e+kI+/Yn9O0Te5ha+TlPMOYLMd8RahfBcTxZh37YPY91ZTM1j31qF8WzzaQri0Zc8lq5ZCM88Z77fMg1Jrresf83C+CEvDKPdaxRPT/N+HvRrLM5QDD/VqP49quS8GWURRtTy1gjF8Oc4ejF88eAG6io5XhKneB5O9GO3xfA9iH4f+lgDsJo4yJ2quBjtnCqId1/kx+uz0FdbV8ZowST+rhi+osjb3C9wI+8/JHK91jQaeSzKdX102pHYXo5oX6Pwe4oCYvRhzaluMq8fzUlsL4uHaxXyD1cQjzavNZI43wOHnwJo0KexUAxnUiXnzSiLMKKWt0Yohj+HYjhPKjleGmc4j1UMHxH9VgwHiANcFoFqB75hHGraiWhvFnOyMFXrS8aSgvjY+pqjHeNvraKSYvgCkbfct7V81uLUcznvQeR4jUL4tyJ4WeVmog05uvjVIuqhC4jZ9tKHWt96IvO46cMoc/ulHbX29cShCuLR3rWK4RmHv6lY6VMrFMOZVMl5M8oijKjlrRGK4c+hGM6TSo6XRl7vHvr6KdqvGD4i+q0YDhAHuLmFgsMdCKPNc+Yvnl2Ai9fm3LS1dWT8UV72D5XX3kMxfKHI3dz37WHn/T2CyO+rRbf8fO5uH0Wbsl+vFIQP+yCiaHvPxWwtcvlNi+BD0Z7cn6/26zAF8WjrmsXwjOb32xFU+tMKxXAmVXLejLIII2p5a4Ri+HMohvOkkuNX4tAP1Iz2K4aPiH4rhgPEAW6qWHyPXRU35op2r1YQj9flKMPa8hnNu+iD1z2GYvhCkbu5xYFTPR19TyK3rz4sM+fh3/XIk2hfz8niMI44vcYro6jzvbDrqbSifTmn+Cvv2UMUhaOdaxfDMw47j2ilL61QDGdSJefNKIswopa3RiiGP4diOE8qOX41DnceexdtVwwfEf1WDAeuLQ5uY/NgP8ahfyYd7Z9zITm3ID42WrQ6wrXyunsohr8g8jd3rvtD3sjZs8jp1DREY5HLHaawFm195cGgR+rnK4X/vOg4xE9qo515E+eVUf+736fRxncUw/MzcMh5RAf9GAvFcCZVct6MsggjanlrhGL4cyiG86SS4zXikDfCo92K4SOi34rhwLXFwW3uKMBDfhE+yj4M+lSLyX7mawbLPEZ1XvXK6+6hGP6CyN/cL3JTpawscrq0mJjLHa6glm2OWFIQz2V2fzMm2jj3xmgtDjeFRrQ5b+a8Mgp+1+/haN87iuEZeQPycPOIDvowForhTKrkvBllEUbU8tYIxfDnUAznSSXHa8URz9sVw0dEvxXDgWuLg9uckbVZzDn0QzTuoh9zCuKjB/z4+9TDG/9RUK+85h6K4S+I/I1NW/MY8ryiyGfPCdRjZCH8sMeSbHvpQ61vY7Hr91+0Lz9Hpx/5XhPtX/pe3nVRONr2rmJ4xuGOp5U+tGKXfYt2KYbvSCXnzSiLMKKWt0ac/lwu+qgYzmKVHK8Vh6sFRHsVw0dEvxXDgeuKA1uOdKwd8IZx2PnCaqI/cwrio33Ovw9e/xj/OFmvvOYe1ZHkzBc5nFucPMUNna1FHpcW2fKk9PD7IPsQsaRwvNuicbSt5+L1MQ7/i6GU/Rj0a27sdvqwaNs7i+EZh/o1QKX9rVAMZ1Il580oizCilrdGKIY/h2I4Tyo5XjMO9QymaK9i+Ijot2I4cF15YBsc6FpxioLHo+jTH4M+1qJZEI+/TV2YPp3gVf7+I8pLWChyOPd9vOsH+x1B5DALwXPnaX+MUz3ENPqzZMqUXY6qiTb1nAw/xqm+F7I/g/7NjV0eV6JdPcXT0/8qoNL2ViiGM6mS82aURRhRy1sjFMOfQzGcJ5Uct2Lp9/5hBshFWxXDR0S/FcOB64oD29wviVOOqI1+zZkvdqwgPlYUfFqu8vcfUV7CQpHDS/7CYQuRwyWF00NPjdISfVoyx/auTiajPUunRzndDdIU/fo66Oec2OtNjp7iad4cXjL9T/b9EPOIDto9ForhTKrkvBllEUbU8tYIxfDnUAznSSXHrcj9NGdgWC0O8RymaKdi+Ijot2I4cE1xUJua9/oem/wMPLab7csvsSxOvO3hc7HuWQXxiH8UO+Lfpr5EfrS78rcfUV7CCyKPc0Yrm5LmBZG/ufOzP8au51V+VfSt90JiV4XTaEvPRes9Tv0w2ujfkodq7m7KkGhTV/E0Yun0P4f4jA/aPBaK4Uyq5LwZZRFG1PLWCMXw51AM50klx6349lnK/w7+fW7sft9FGxXDR0S/FcOBa4qD2txRjZsUPnK7g3bkqLX8GfvqF92xzjnFj3+Mbo3/P1Uc/PHFUfnbjygv4QWRx7kFrLfdWDm7yN2SE+bDPX2+R/RvybQxuzihjHb0FNfucYlfV0Q/l4yS3tWxJdrTXTyN/879lc0wdl+gqrS5FYrhTKrkvBllEUbU8tYIxfDn2N1nPdqkGL6hSo5bcS+GL53+MG+e7/qaKtqnGD4i+q0YDlxTHtQGB7lWbFLMiu2OfTH/FbHqz/TLOmvbeoxaQXxsuR+jQAf//hTfVsRLIo9zb+6ccnqHd4u8LSmcnnoE8V30szc3/yuLbira0VvwPfUo/0fZz4jeUdK7KtJEexYVT+N/L507fdc3SirtbYViOJMqOW9GWYQRtbw1QjH8ORTDeVLJcSt+fJbify95Dk7GP66L9yTaphg+IvqtGA5cUxzU5nxBbFK0ie3OvejLL+4cEfzyyVSsI4sfc4pDT1/88b+nirBZWBjtT1kVL4g85v6r5ncQ5g1fIPLWc3GTcfoL1kfR3zk30x5j05syuf1Be+bEqUf5D0V/l8wJv5sL+2zLoG1j8XSRE/9/yVQxGbu92VhpaysUw5lUyXkzyiKMqOWtEYrhz6EYzpNKjlvx9FmK/7/knCdjt9dV0TbF8BHRb8Vw4JoqB7labDVfeN6h7i2+5ajFnL938U+2YtmlBfGxUez5N8XwD4hcztp35eXMFDlbMnXCpaajyf4O+j8Vm17Qx/bnfFYeY3dzYn9C9Lv3Jscm35k10ZaXiqfxb73fwffY5U2TSjtboRjOpErOm1EWYUQtb41QDH8OxXCeVHLcin98luLfet57j7HLX4JGuxTDR0S/FcOB64kD2tzi1qZfbrH9vPhbckGehZ5F84vnMmX52nof40dBPP479WUy+vdvG+ZlkctZDzMsL2emyFnvKNFLnjBFv3vztMkNg9huT1Et4zLTowxFv/MmR+9Ph3dxIyja8WoxPL8Lx270tuLH9GB7MmjjWCiGM6mS82aURRhRy1sjFMOfQzGcJ5Uct6L6WYp/7x0EcI/d7ctok2L4iOi3YjhwPXFAm/sT+V18sWU7IpYUxTOyQPWlrGqWeH1PQTyLJVOjQkeLKWWzvChyeaj39RFEruZOP3OPXRbCPiH63Vtk3urhxIea0mVr0f+ei4WMXYyij3a8XDyNf188j2hZxW5U2tgKxXAmVXLejLIII2p5a4Ri+HMohvOkkuNWtIrhc6+Bh5HnCrv6VWi0RzF8RPRbMRy4njigHXIEbbQpi85L5zLNEW550J/1RR2vy5OBOUWAfM2SaV1+RNkkL4pcHuIXD0eSuRrkbioufbIU/e+5gPh4wTC22Tudy3/LopcVOZj7XXCPvTwgdZXiafxtyfzyGbuaR7TSvlYohjOpkvNmlEUYUctbIxTDn0MxnCeVHLei+VmKvy35VVzGj19N70G0RTF8RPRbMRy4njigzfly2O3cytG2e1F8yRd1RvZ/chqV+PvcUXH5mlk3GGpRNscKavmtxCXnP14ictVT3M3PwSVHhd9F/3tvHnw0X7G93vZdelT4XeSh54Iho+vXSO8QbViteBp/X/r9tpv3T6VtrVAMZ1Il580oizCilrdGKIY/h2I4Tyo5bsXoZyn+3vOd8xi7uREebVEMHxH9VgwHricOaHMKvLt9OvRdtDFH7OWBfGlRPJfLonrzgV/5t/K62vKPsbQNLpRWFPmcc+Jz+oupNUSeekcRX/4mQ+SgN2cfLZrG9npublx+VPhd5KJ3uqDNH6QZbVi1eBqvWTqP6C4eqFlpVysUw5lUyXkzyiKMqOWtEYrhz6EYzpNKjlsx+VmK1/QOoLjHLt6X0Q7F8BHRb8Vw4HoqB7haHOagF229F8WXPOzrHrlsfun/Y6Rm/NvSeVNnRdkMK4h8zplGZxfTGOxd5Kn3JHhXcwVuJfLQU3D+2A2E2FZvod6J74PIR9cUXWWxzUQb1i6G5/dsz3v7HvndufkvRgZtGgvFcCZVct6MsggjanlrhGL4c+zusx5tUgzfUCXHrZj1WYrXLZ2edA+/kFMMHxH9VgwHriUOZnMvqA55ghLtzulPllywP0aOgHv6Eo///7aCeNkEK4h8zvpiLy9nROSp54Lm9Beoc0Uu8hiUuZsTnyyGu7nxgshHTzEyY9MLwdj+6sXTeN3S78HNp12rtKkViuFMquS8GWURRtTy1gjF8OdQDOdJJcetmP1ZitcuvRG+6S/DYvuz34tlkUuJfiuGA9cSB7Mvg4NbKw5dCIn254Xj0p913+PpoZvx37cUxL81mFVEPk99s+eTKjkbC3NL71zso57j4W6fGbGlyEvPr482nTYotv+W4mm8du45xDA2nXqt0p5WKIYzqZLzZpRFGFHLWyMUw59DMZwnlRy3oqcY3vsg8XtkEX2zX4bFthXDR0S/FcOBa8mD2eDgVo3y8sOLvtwftlntZ0d8Gy0esXpBvDSVFUQ+c/9U8zwIJ+AjMj+DfE2FUcQ7F/uo57j1tSzGg8hLz4MkN72hENt/W/E0Xr90HtHN3leVtrRCMZxJlZw3oyzCiFreGqEY/hyK4Typ5LgVXZ+leP3c66thbPYMldi2YviI6LdiOHAteTAbHNxqcboHp0WfXn3Y5j1yZOCrI86fojSRldRyXAlf6iMyP4N8jYVRxDsX+6j3IsbNjYrIS9eo6LLYJmL7by2exjJLbzJvUvyotKMViuFMquS8GWURRtTy1gjF8OdQDOdJJcet6P4sxTI5DWBtXVOxyfs0tqsYPiL6rRgOXEsczOZ8MZz6ZDP6l1/mrzxsc9UozWIltRxXwpf6iMhPzw2fTaeDYFrso54LmNPdDF1TJV9jsdmFfm570Jax6D4exjKvPFDz4zdbBm0YC8VwJlVy3oyyCCNqeWuEYvhz7O6zHm1SDN9QJcetWPRZiuUO80DN2KZi+Ijot2I4cC1xMJvzxbDZT5o+KfqZF5c9J21vidIcVhI5nbNPFXBHRH56ilzmC9+52Ec9J7yXOP4vFfnp+c7YclqQtxdPY7mchuwQ84gOtj8WiuFMquS8GWURRtTy1gjF8OdQDOdJJcetWPxZymUH65oTea7w0QdqxvZmt7MscinRb8Vw4FriYDanyHWpA170d615xRdFaQYriZzOOfk5/QXVKyr5GotNnxbPtNhHPRcuTnhHRH565g3f7KZbbPsjxdNYduk8oh99oGZl+61QDGdSJefNKIswopa3RiiGP8fuPuvRJsXwDVVy3IpXiuH5y7Alv7D+6I3w2JZi+Ijot2I4cC2Vg1stLnnAi37f5xX/6BQqZfOsJHI6Z4oPxfCGyE3eHKrlrBplMXYs9lPPSH8XpyMiPz0Pj9zsOBPb/ljxNJZfOo/ox0bOV7bdCsVwJlVy3oyyCCNqeWuEYvhzKIbzpJLjVrz0WYrl80b4kl+GfezXh7EtxfAR0W/FcOBaKge3Wlz+gBc5yIv7ngLS4iibZCWR0zlf7orhDZGbnqKLh2ceQGW/jYWHZ46I/PR8Pi5RDE+xjl0/ULOy3VYohjOpkvNmlEUYUctbIxTDn0MxnCeVHLfi5c9SrGPpjfCP/GoutqMYPiL6rRgOXEvl4FaLjz/kYq8iF3kB+tYpVMqmWEnkdM6XuyJuQ+TmEMU+5qvst2aURWiIHB3ilxOx7Y8XT2M9S24gf+SBmoNtjoViOJMqOW9GWYQRtbw1QjH8OY5eDD967K6YX2ljK1b5LMV6et6vj/H25w3FNhTDR0S/FcOBa6kc3Gpx+Dv12YcZkV8CcyML4kt+DjYn8su6FbW29ESt349xulGg0afsdy3PT1FezkDkpmcaCA9b3LnYR6a9WVktb60oi3xcbDuP79U2VWKtYvhu5xEdbG8sFMOZVMl5M8oijKjlrRGK4c+hGL5tXL4YnmJdc6anHMbbH6gZ65/9XiyLXEr0+9DHGoBulYNbLT765R7bywvoe3H2XsR9jMfi8D0+Oq/3hSPzXMt/PkRuuJ/y53L3/ZixyYMVY7vZllpfnqK8nIHIzaz8lXBytHOxj/KzWNt3tTh9oWENlbw1oyzycbHtnv2+2uc41rV0HtG3PlCzsr1WnKEY3vre3n2U7u5etLWW92qURRhRy1sjFMOfQzF821AMD7GuvI5f8suw/K56243wWPfs92JZ5FKi3673gGupHNxq8elieM9FnjhYlN38MbFNxfAXRG6cHJ1I7CPF8JVV8taMssjHxbY3KYanWN/SeUTfdjypbKsVZyiGHzZKd3ev1vZWlEUYUctbIxTDn0MxfNtQDC9ifUtvhL/tM53rHmyrGWWRS4l+u94DriMOZPlFVTvADUMxXKwWZTd/TGxTMfwFkRsnRycS+0gxfGWVvDWjLPJxse3NiuEp1pm/Hqptayre8sySynZaoRi+YZTu7l6t7a0oizCilrdGKIY/h2L4tqEY/iDWufR76i0P1Iz1KoaPiH673gOupXJwq4ViuFgtym7+mNimYvgLIjdOjk4k9pFi+MoqeWtGWeTjYtubFsNTrHdJUeQt84gOtjEWiuEbRunu7tXa3oqyCCNqeWuEYvhzKIZvG4rhA7HenucOPcbqD9SMdSqGj4h+u94DrqVycKuFYrhYLcpu/pjYpmL4CyI3To5OJPaRYvjKKnlrRlnk42LbeyiGL51HdPUHag7WPxaK4RtG6e7u1dreirIII2p5a4Ri+HMohm8biuEVse4/B9uaE6vfCI/1KYaPiH673gOupXJwq8Wni+EeoLnf6HmA5peI+37M8ADNA4rczMpfibc+9I7XxT6aOz1Wxv/KYoyo5K0ZZZGPi23nMbjapkq87SIn1r10HtG/yipWUVl/KxTDN4zS3d2rtb0VZRFG1PLWCMXw51AM3zYUwyti3bt4oGasa/Z7sSxyKdHvQx9rALpVDm612N2Xe6/sw4zIL4El8VgUnhNLTgjmRJ401Nr3GLV+P8ZPJWWnEX3Kftfy9RTl5QxEbvJ9Uc1ZJU5/YXoGlf3WjLIIDZGjvMir5q4WZbGPi233fI7fepET688bpbXtTsVq7aqsuxWK4RtG6e7u1dreirIII2p5a4Ri+HMohm8biuENsf48V9r0gZq5rsG6m1EWuZTo96GPNQDdKge3WrzlAVZXFfl850Vsnmjkl9npitpLlXzUcvUY/ykvZyByoxh+MpX9NharTk9xNpGfns/HZseZ2PZuiuEptzHY5txY5Xykst5WKIZvGKW7u1dreyvKIoyo5a0RiuHPoRi+bSiGj4ht9Pwy8TFW+dVprEcxfET0WzEcuJbKwa0WDngrinx+6iI252jbZGqSPYkczPlyV8RtiNx0nbyWxdix2E8900od/pdB7xT5+W2Qr7HY7DgT295VMTzFdjabR3SwzrFQDN8wSnd3r9b2VpRFGFHLWyMUw5/j6MVw5xsrq+S4FR/5LMV2es6ZHuPlB2rGOhTDR0S/FcOBa6kc3GrhgLeiyOenL2Lzy3/1p3IfRfT9r4dctEIxfEQlX2PhVwk7F/uo5+L0a1mMishPz8XDZnPqx7b3WAzf7IGag/WNhWL4hlG6u3u1treiLMKIWt4aoRj+HIrhPKnkuBUf+yzFtpbcCM946UZ4LK8YPiL6rRgOXEsczOZciDrgrSjyudVFbI4G/RpxqWkPor9zTn4Uw0dEfnpGEptWaediH+UDb2v7rhYeijoi8tNzob/Zd2lse3fF8BTb+ini4w/UrKyvFWcohmfhIV9/uCjd3b1oay3v1SiLMKKWt1aURU4r+qgYzmKVHLfio991sb0lN8LzXGHxNWwsqxg+IvqtGA5cSxzM5nwxvHTRybPIZ17k1fL8qbjUvOLRzznv8T/Ky6mI/Byi4Mc8sY/yplht39XCfPojIj89hdzNLvRz24O2jMVHP8OxvaXfiYuP25V1teIMxXDH5Der5LwZZRFG1PLWirLIaUUfewpUuysmR5sUwzdUyXErPl0Mz1+G9Qy0ucfic9JYVjF8RPRbMRy4ljiYzfliMGp2RZHPrYvhj3H6ecUH/W2FL/URmZ9BvsbC8WLnYh/1HoM8RLMi8tL7MKjN8hjb3nXxNLb50XlEK+tphWI4kyo5b0ZZhBG1vLWiLHJa0ceeX3IphvOkkuNWfPy7LraZ51BLfhm26BeLsZxi+Ijot2I4cC15MBsc3Grx3/JyVhD5XLMYnicReaK85O76Y+QJwilPQgf9bIUv9RGRny+DfE2F4unOVfbZWFz2mQNjIi89Fw6bfo/G9ndfPI3tfuyBmoN1jIViOJMqOW9GWYQRkaeeAuqpzzeif4cuJkebFMM3VMlxKzb5rovtfuxGeCyjGD4i+q0YDlxLHswGB7dqlJezgsjnmsXwjG8PE4vIguWch0WORRbVT1P4ir7MHbnpBHxE5CffX7W8tcK84TsX+6jnAtVUWRWRl545Lzedez22f4jiaWx7yTyi+b3VVRAbLD8WiuFMquS8GWURRkSeFFCL6F/PMXF3v/SMNtmXG6rkuBWbfdfFtnt+/fAYXe/3eL1i+Ijot2I4cC1xMJs74vMS80t/QuRy7WJ4xreCeFl/PpAs5wR+ZbT4fV7xQ4+4ifbPzbUT8AmRo8MU/vYkcpHvwfwszYmP3Ygq26vtu1YY7f8g8pHH2VqeWrHpTcbY/lGK4XnjbcnPprsu5CvLt0IxnEmVnDejLMKIyFPPwI5T/3Kp0t9mlEV2JdqlGL6hSo5bsel3XWx/yWCuPFeYfW4ar1UMHxH97rkucF4BHF8czBQLPyxzOcjtWvGjIH4X/z+3teSn5/fIE41c/pA3Q6Lds77Yy8sZEXnqHbmheBoiDz0n+B+7iRDb6p3v+tQFh16Rj0PdTIjtH6Z4GttfOo/o7AdqVpZthWI4kyo5b0ZZhBGRp57j62kfgB596/me/l9ZbFeiXYrhG6rkuBVbF8PzRviSX4bNfqBmvFYxfET0WzEcuJ7KAa4WDnoriVy+qxie8Y+CeMp/i8h52ZacaNwji+KHOlEtba715TF2eQGxN5EnxdNOkYPe6WW+lkU/IrbX8+uRxU/wP6PIx6FyF204VPE02vDWeUQry7VCMZxJlZw3oyzCiMhTz+d/l5/RNUTfDp+HbNegnWOhGL6ySo5bsfn7J9qw9Eb4rIEk8TrF8BHRb8Vw4HrigDbni8e0ByuJXC4thmfxZc6+qhbE7+Jv+fP+Vx66mScThzhhLW2t9eExTnshtbbIVc975vIP3o0c9Bb0PvoLjNhe72h/F6oh8tC7Xz96k6Mm2nC44mm0Y8k8ovkdOTmP6GCZsVAMZ1Il580oizAi8tR1nlwWO53oW88vO3d5nRbtUgzfUCXHrdjFd120o/eB/feYPM+K1yiGj4h+K4YD1xMHtDlfDkYFriRyubQYnpEnCXMK4rNOauJ1ub6l06jk+2bXo38H7W3FaX9iu7bM1SB3U3HpC5vof88UKR+/eRDb7B3t78ZRiDz03kjcfMqgaMMhi6fRlp5Cyj1y/4zmfPD6sVAMZ1Il580oizChlruROOVDu6NfPd81m990rYl2KYZvqJLjVuzmuy7aks+9qrVxKkbfP/F3xfAR0W/FcOB64oA2q8BVXs6LIpe9BajHyC+quT8jmz1KJF6b0znkyceSaVTyZH13RfFo09w87/ICYo8iV70PDbxs8TT63purTW7KxHZ7P/NXv8HROyp8F6P1oh1HLYbnd1PvzYeM0WNP5fWtUAxnUiXnzSiLMCFy1fPddLpfr0afeq8VJn8Rs4Vol2L4hio5bsWuvuuiPUsGauW1cfMXlvE3xfAR0W/FcOB64oA29+LeScpKKrl9jLEv62+jR+O/qxfE72KZXHfeIJmz/sf4VhSP2HwUZCptqbVzGN7XHSJfPRc2GZecOzz63TuKfpML2dhub3H3yjc4lhRmd3F8yXYM2jUWu7rIifbM/b4bRvMGU+W1rVAMZ1Il580oizAhctXzHXq6Z79En07R/2ibYviGKjluxd6K4Xm+tWSAVnOq0Ph3xfAR0W/FcOB64oBmBO2HVXL7GFPFqW8/B43/5n6bc6KweMRMLJvTqPRM9ZCRRYv8Qt20KB7b94uHN4ic9RZPs3i4ixskn5L9jegp3m06v3psv7fQeNUbHD0XChm7mV4s2nLo4mm0aek8otX3auV1rVAMZ1Il580oizAhctX7mT/VVCnRn54br3+VxXYn2qYYvqFKjluxu++6aFP+wnLJjfDqdW/8u2L4iOi3YjhwTZWDXC12e7J1NJXc/ojy97GT4B9f8vG/5945f+knpLF8bieLoD136Tctisd257TVXPgLRN56R8deal726G9v0XTTk8rc/qA9U5Gf7avd4Jh70/gxdnPTINpy+OJptmvQzrnxj19dVF7TCsVwJlVy3oyyCDPU8jcSu/ysLhF96R10sNvBStE2xfANVXLcir1+1y0598r4x2ci/k0xfET0WzEcuKY4qM35gjjdzxC3Usntjyh/n/pC+lGIyv8dMafwu0phJtaTd+pzfvG5BdHm/G3vEtvMnNTaMoyXbhJcVeSt90It4xIXOdHP3rnCM7b+FUXvSPaM0xQe5oj+9twIzNh0tP9QtOcUxdNoW+8vlTL+cfNm8PexUAxnUiXnzSiLMEPkq/fz/vHzzXeIfvQUkDN22+9om2L4hio5bsVuz+mibUuuOTKe3k/x/xXDR0S/FcOBa8qD2uAg14pdPqDlaCp5vce3Gw7x36ni1NMd7/j/Hy2I38X68o792Pzim/yaILY79+e1l5zuYQ2Ru97R4fn6048mjj72XsTu4oZMtGPJ0/svMXVW9LN3/veMXV3UZ3sG7RuLPRfD537XDePpV0CVv7dCMZxJlZw3oyzCDJGv3iLY4X/BGn3onR5m1zems32D9o6FYvjKKjluxd7fRy8/UDP+t2L4iOi3YjhwTXFQm3vyZd7wFVTyeo8fJyPxv8e++P8x6jD+bZOC+F2sN99D2ebHwvgmcziWdjz2uRWnGEW0hchd7wVbxqmnWor+LSko7+Y9GG3pvcGRceqL1+jfkhFJu7uojDadpnga7Xt5HtHK31qhGM6kSs6bURZhpshZ72f90N9J0f7e7+FdD+qI9imGb6iS41bsuhieoo2LboRHfBuIE/9VDB8R/VYMB64pDmpZSK0d7IZh3vAVVPJ6j8di+NR0C9VR+vHvcwrBbz15jvVnoXSzeaJj23MuJnY1jcERRQ57R0FnnHL+8OhX/kqi96J9V9P0RHt6Cmz3yD6f8hdD2a+HfvbE7m6yRZtOVTyNNi55r2Z8++6r/HsrFMOZVMl5M8oizBQ56x0RethnwUTbe4pRGfn9u+tf3EX7FMM3VMlxK45QDJ/61XQrvp1rx38Vw0dEvxXDgeuKA9vcL4nTT3XwbpWc3uPpZCT//+Dvj9EspOXfBq8dhgLWzgqRRxQ5XDpC81TT00R/lk7dsMeiaW/hISPfA6f6lUX0Z8nNjYxdXiBEu05XPI12LvklRkbPTQ7FcCZVct6MsggzRc6WPIfjcO/5aPOSm6+7H1wQbVQM31Alx63YfTE8RTsXn5tFKIaPiH4rhgPXlQe2wYGuFacqZG2hktN7DIvhYxe8ow80jb9fsiAefZr7Pt5kCpeziTwuLUid5jgSfVlSCN9r0XTpyJvMwSkK4tGPpRdbux2RGG07ZfE02rr05k3t32uhGM6kSs6bURahQ+Rtyef8MIXVaOtpbqgPRRsVwzdUyXErDlEMT9HWpQ/UnP3dXzZ1KdFvxXDguuLANndUghG1L6rk9B7/OBmJfxub8mO0oBh/v1xBPPoz94LCLxxWErnsudh5jMM/gyD6sOQifdcPE4229RTaHuPwx5Nsf+lHrX9jseu+R9tOWzyN9i4pIs0NxXAmVXLejLIIHSJvS0aHH+b7KNr510O758YhrsWinYrhG6rkuBWHKYanaO+SB5vPjrKZS4l+K4YD1xYHtzlzLecJpkLiCwb5fIxaMXzsDvjkyUu8ZuoO+uELWHfRj7kXTIc66du7yOfS0cQZh7y5Fu3OPi+5gM3Y/QVftLHnpPgx8n1wyAvaaPfS0UYZu/6lQ7TvzMXwV44/U6EYzqRKzptRFqFT5O50N55TtG/pr1sOcR0W7VQM31Alx6043HVRtnnQh9WibOJSot+K4cC1xcFt7kmZqVJeEPlr3XSonozEv4/dpJj8mWS8ZqrIs/sLhjmiD3O/yA8/InlvIqdLRxNn5AntYd5/2daIpaNRD/MA0Wjr0mJ/xtEKqq+MMtr9DZ1o46mLp9HmJfPtzgnFcCZVct6MsgidIndLn1GS39W7PL+Idi0phGcc5jMdbVUM31Alx604YjH8lXPx0SibuJTot2I4cG1xcPsyONi14q+yCAtE/lonh61i+NgX1KwvpHjdVEF8txcMc0X75/yyIeNUD/vbi8jrKyNr8yJ39/O4RxuzCLV0FOqhPmPZ1tLmWl/mRB7ndv1Zi/ZlEfWlPpZV7Vq08/TF02j3K8efViiGM6mS82aURVgg8rf0GSX5nb2bX0BGW175Zdlun01RE+1VDN9QJcetOFwxPEW7l05tNxpl9ZcS/VYMB4gD3NwvFQXFhSJ3vcXwsZ+B/7e8bFK89rQF8Wj33OLAoS4kjibyu3Sk0z3yAnF378FsU8Qro4fz83u4Y2a0eezYMydy2d2dNEebsl89J/61OMzxMtp5ieJptH3teUQVw5lUyXkzyiIsFDnsKa4+Rn4Xbf6r1mjDqzdgDzWtYbRXMXxDlRy34pDF8BRtnzuQb3aUVV9K9FsxHCAOcHOLWQ6EC0XuWieHzZ/b598Gr32M2SeQ8dqpu+hHncN57vvWFClvFjl+tSD+rYAasYtCY7QjT7Tn/uqgFYedlz/bHvFKQTwj87eL6bWyHaU9tXbOjUPdOIy2XqZ4Gu1fWiyrhWI4kyo5b0ZZhIUih0unS7lH3nDf5MZ0bDfPa15p++HOX6PNiuEbquS4FYcthqdo/6uDG56irPZSot+K4QBxgMvCR+3AN4zZI5J5FrlrnRw2v1zib2MPh+wqYMfrT1UQj/bmKM9aP2pxyJHvRxN5frUgnrFpUTy2m0XwNQprh3/GQvRhjYJ4xiZF8dhmHiPWKIJnHO4XNNHeKxXDc1+vsZ8zFMOZVMl5M8oivCDy+OpI0I+eW8R28vP66jHpkNNTRrsVwzdUyXErDl0MT9GHNa47vkVZ5aVEvxXDAVIc5OaetO1+jt89irx1F8NT/L31RZ8n9l0n9fH6qeLWkR70N/cL3Fz3HxT5XuvENN+nua63j66ObWQhLeclXauYdpqHDUdf8pixVl5yPTmlxVtH6MX6s825nTUK+RmHnEoq2nyp4mn0Ya2bN4rhTKrkvBllEV4UuVzjGQF5jMjzx7d8D8V6s42vTIlyj0N+76Rot2L4hio5bsUZiuF5/r7G500xfDqcVwDnlQe5wUGvFYf/8txC5m2Qx3tMFcPHLoC7i26xzNSJwyEKedFON292KnLec3I1J+5F1BwZtsrFYawnC2dZAF/6QKtWnKYQfhd9Wu1i4yHu+zSPby/t01w+It8bub61Cvf32OV89nNEuy9XPI1+rFEsUwxnUiXnY5Hnf2eIzaf+ijasNhI0Io/veR6wuDAey96/f7Jdl74Bexdtz/dKrV+1yL4O32dHj03PA2P7tTzX4hTX89GPV6dR+hZldZcS/VYMB0hxkBubkmMYh50LdyuRszxBquVy8sslXtNadtGJTCx36IJ4tm/Q3laY1mcjkfvcR2tdGA4j37t54ZkncXkRmkWif1zMxr/l+zz/lpEXvPn6/Cy9o125ztPeeIm+ZS7XLEIMI/dpFiZyH+V7577fanHfl/n6tYvfj3GYX8rURPszV7V+1eI0FznZl0HfekMxnEmVnF8hdjGKN9rxju+i/C7J84Op76A858jXZBvGzqOXRq7zsIXwFO1vXbNcJTY9/lba04rTDG6LvuRns9bH2VFWdSnR757zJecVwLnFgW7uCeYhH7i4pczZIIf3mFMMHyv+LhrREstlcWtsVOxuf7oYbZtbAPPFvaHI/5pTbOw5so+XuEEY/cxCdC0HZ4pT3NiIPvRcHJ7qWBn9GftumwrFcCZVcn6F2M15YbTl1Ztee4zDF8JT9EExfEOV9rTiNMXwFP156fy0rOZSot+K4QB3caDrudh667yvZxP5an3hzPpyide1ioovjV6M5VtF+iwI7a7AF23yHj2Q2AfvHlG8dWTR7fAXrz2iv3mT4x0j4vYQeRF/iuNG9OPKxfCpXz+NhWI4kyo5v0LsapBEtGfurwSPEKc5l4h+KIZvqNKeVpyqGJ6iT4uvN8oqLiX6rRgO8CgOdnMvII0O7xD5erUY3jrpf3kqkFjHWEF8Vyfn0Z65J9nenzsS+yN/WnymUeL52fhaundJ0f8zjcw73f6M/ly6eBp9WvpATcVwJlVyfoXY3S8Go01n+AXaqT6v0R/F8A1V2tOK0xXDU/Rr0Y3wsvilRL8VwwEexcGuZ6SFkbczRa5aXziz5ueO1+VIt9aF/cs/6Y91tPb7f8pLNhdt6SkGmNd+Z2Kf5Hv4DAXU04weflXmoeSjlqejRN4MPN3+jD5dvnga/erJwT0Uw5lUyfkVYpfT50W78twiH6Bca/OeI4v4u52ScKnok2L4hirtacVZi+Fj18vNKItfSvRbMRxgKA54c0dZ/FUWYULkqvWFM/tEOF7bWscqo6BjPbWC+G4ephltmfu+POUJ3lnE/skC6hGnTjnlhesaMi8RR5s6JS/YT7s/s28PfZ2K017kRN965xFVDGdSJedXiF0fL7N9EUcZJZ7n86ecYi36pRi+oUp7WnHaa6XoW/5ipNbnZpRFLyX6rRgOMBQHvJ7R4YpDM0Se1iiG593u2jr+V17ysljX40/L91QI9548mdhPRymK58X1bj4LexZ5yulw9n4hfOoi+F328aHPU3Hqi5zoX89xRjGcSZWcXyEOcdyMdub54l6L4qf8JdKj6J9i+IYq7WnFqQcORf96rhsVw6fDeQVwHXHQMwp3RZGnl4vhKV7fuqhfrVgX68qC+MtTr6wl2pI3AbwfTyr2WRbF8/OxZH7fd0Y+0Go3n4MjibzlMSSPVXvZp9mO0xchHkVfFU+L6F9+h8z95YJiOJMqOb9CHOomYrR3L0XxS33/RD8VwzdUaU8rTn+9FH2cPX1SWeRSot+K4QA1cdDruaNq1OSEyNFaxfAsHNbWc9opa6JvPV/Wpx/xeWax/3Jk8ZZF1CyY5bQK5gRfQeQxi5D5XZI3Fmr5fmfcCxCXvKER/VY8fRB9nDuPqGI4kyo5v0Ic8vwq2x2xxXlFnk/k998pp0Npif4qhm+o0p5WXGLwUPZz0O9qlJdfSvRbMRygJQ58c0dU5AnmpU72ekV+sshXy133xUUskyf1tXWdbh9En1rF/1oYFX4isT/zAjZHdbxzLuo8dmWhVgH8zSK/WYzM4+A792le9OT6L39TLHJw/8XFnLhEvqKf+YuFWv8fY5c396Nd9ueOVHJ+hTj8d2T04Z3fQffziSyAX/Z8ovS/9v65Smx6/K20pxWXGMgW/cxzz1r/n6K8/FKi33mdVc1HJZxXANcSB76e0eF/lMWoiPy0RnV1f7nEMq0C8dfyktOIPvWMMPFFfWK5fyOyaJ0Xsvm+6LmYzYvUXCYvVPOkLi+IFb83Fvsg9+n9wjn3T8bUTdjc74/7Mpf/uawSAGaJ7477ecXjd9DUCPL763JgivMJAIAzihO8noKTYmRD5maQq29R/twtls0T8eH6/lP+fArRn56bMX+WxbioeA/kTaL8nH2L8s8AAAAAME8pLNWKj7U4VTF2TZGbtYvhrf1yitEp0Y+587tm5OuMygEAAAAAXnPre/iZByxURF5WLYanWL42OvwU+Y9+eM8BAAAAAJ91+z79wNxRuhmmKBiInFTn+S5/XiSWrxXY/1v+fFjRh57pUXJ+YQ9vBQAAAADWcfv+gJlaMbIWCpQVgxx9i/KnxWIdtTndD/swuWi7Gy8AAAAAwLZufQ/T/KssRlHJ0ctzrMc6aqOo/yh/Ppxou/cYAAAAALCt2y+//zwoRk7F17IooZKfv8ufXhLryZH4j+s95FQp0e4/Bv0Yixw97tcHAAAAAMB73H75/d8PBck5cdgpO9ZWyc1axfDh6PA/y58Oo9KHqfhSFgUAAAAAeI9b31QWRvAWkYfhCO5ViuEp1vVXRM7rfrhcR5vzFwc984SbHgUAAAAAeL9bf/Eyi+eXL4hHDv5+yEnGasXwo4oc/Cui573k4awAAAAAwOfc+qe1ONzUHWuLHAyL4f8uf7qk6H8Wwnt+ZZDxa1kcAAAAAOAzbr/8/uegUDkVly6IR/8Vwx9E/3Nql8d8TMWl8wUAAAAAbOS2bGTvb2Xxy4m+58NHsyB+jyvnovdGyuWnlAEAAAAANnTrnz8847JFYBYVws0TDgAAAABs7/bL718eCpdzQ0H8gmK/9xbC80bLz2VxAAAAAIBt3b5PAVIrZo6FgviFxP7uLYRneI8AAAAAAPtyU+ykIfbzkvfG17I4AAAAAMC+3PofqJmhIH5isX+XFML/LIsDAAAAAOzP7Zff/xWxpCD+R1kFJxL7VSEcAAAAADin2/KCuCLoScS+XPoeyGX+VVYDAAAAALBvt19+/ynif6XA2RN/RyiGHljsv9z3CuEAAAAAwDXcfvn954glBfEsiv5cVsOBxH77NWLpPlcIBwAAAACO6ba8IJ7LfCmr4QBif3192H89oRAOAAAAABzf7XtBfMm0GRkerLlzsY9yfvC/HvZZTyiEAwAAAADnkQXPUvisFUSnIpf7qayKHYn9ktOi/Lfsp95QCAcAAAAAzicLn6UAWiuMTkVOm/K1rIodiP3x74f90xt/ltUAAAAAAJzP7XtB/M+Homhv/B1hlPiGIv+vTHuToRAOAAAAAFzD7Zff/xgUSHvCKPENRM7zRsYro8EzfiurAwAAAAC4hiyMDgqlvZGjxH8uq+ONIs+vzA2ekTcwfi2rAwAAAAC4ltv3KTeyUForoM6NnHbFgxjfIPL6U8RfJc9LwwNQAQAAAABu36ffyFHetULq3MiCek7hoSi+gsxjxCtT2dzDjQoAAAAAgEe31+ejzsiiuHmpF4rc3ecFf3W0vv0AAAAAANBye31u6nvkOr5GGJU8Q+YpYo0ieEZOi2IudwAAAACAMbfvhdlX56m+h+lTRkReck7wnMpkjSJ4xr/LqgEAAAAAmOP2y+9fItYq0mZk0ffXsvpLizxkbte64ZBhNDgAAAAAwFK376PE13iQ42Pcp1D5qWzmErK/ETlKfo1paB7DaHAAAAAAgDXcvs8lnqOPa8XYVyJHR/8WccppVKJfWQDPwv87cvd3xKVuKAAAAAAAfMTte2F3zalTHiML44cfMR7t/7n04x0F8IwcWf6lbA4AAAAAgHe4fZ86Jaf7qBVq14os+OYc4zlqfNfF8WxfaeeaD8KsxbeHkZbNAgAAAADwCbfvReAsANcKt2tHFsdz5HgW4XPKlk2mVYntZp/z4ZfZjpym5J3F73t8K4JHnHIqGQAAAACAQ7h9tij+GFkkzoJ0bjuLxTk6Owvli4vludzDOnKqk1xvFuFzO7U2vDMUwQEAAAAA9ub2/4rinxgt3Rs5f3cWtIeRI85rr98yFMEBAAAAAPYui7ilmLvHQvOeI/OVo9sVwQEAAAAAjqQUd3MEdq34K75Hjqb/taQMAAAAAICjun2fQsVo8f8XOW1LzkluFDgAAAAAwBndfvn954g/Iq5WGM8CePb7p5IKAAAAAACu4Pa9MJ4jxrNQXCsgHz1yipgcAa4ADgAAAADAjwdv5hzjOYf2UUeN30d/f4kwBQoAAAAAAOOymFyKyjlyPEdY/y+iVoDeKrJg/1dEtu/XCMVvAAAAAABelwXnUnjOqUfuRfJ3T7GS28jI7eV2Fb4BAAAAANjO7fsc5FmszsgpV7KAPTdyFPp9WXN8AwAAAAAAAAAAAAAAAAAAAAAAAAAAAAAAAAAAAAAAAAAAAAAAAAAAAAAAAAAAAAAAAAAAAAAAAAAAAAAAAAAAAAAAAAAAAAAAAAAAAAAAAAAAAAAAAAAAAAAAAAAAAAAAAAAAAAAAAAAAAAAAAAAAAAAAAAAAAAAAAAAAAAAAAAAAAAAAAAAAAAAAAAAAAAAAAAAAAAAAAAAAAAAAAAAAAAAAAAAAAAAAAAAAAAAAAAAAAAAAAAAAAAAAAAAAAAAAAAAAAAAAAAAAAAAAAAAAAAAAAAAAAAAAAAAAAAAAAAAAAAAAAAAAAAAAAAAAAAAAAAAAAAAAAAAAAAAAAAAAAAAAAAAAAAAAAAAAAAAAAAAAAAAAAAAAAAAAAAAAAAAAAAAAAAAAAAAAAAAAAAAAAAAAAAAAAAAAAAAAAAAAAAAAAAAAAAAAAAAAAAAAAAAAAAAAAAAAAAAAAAAAAAAAAAAAAAAAAAAAAAAAAAAAAAAAAAAAAAAAAAAAAAAAAAAAAAAAAAAAAAAAAAAAAAAAAAAAAAAAAAAAAAAAAAAAAAAAAAAAAAAAAAAAAAAAAAAAAAAAAAAAAAAAAAAAAAAAAAAAAAAAAAAAAAAAAAAAAAAAAAAAAAAAAAAAAAAAAAAAAAAAAAAAAAAAAAAAAAAAAAAAAAAAAAAAAAAAAAAAAAAAAAAAAAAAAAAAAAAAAAAAAAAAAAAAAAAAAAAAAAAAAAAAAAAAAAAAAAAAAAAAAAAAAAAAAAAAAAAAAAAAAAAAAAAAAAAAAAAAAAAAAAAAAAAAAAAAAAAAAAAAAAAAAAAAAAAAAAAAAAAAAAAAAAAAAAAAAAAAAAAAAAAAAAAAAAAAAAAAAAAAAAAAAAAAAAAAAAAAAAAAAAAAAAAAAAAAAAAAAAAAAAAAAAAAAAAAAAAAAAAAAAAAAAAAAAAAAAAAAAAAAAAAAAAAAAAAAAAAAAAAAAAAAAAAAAAAAAAAAAAAAAAAAAAAAAAAAAAAAAAAAAAAAAAAAAAAAAAAAAAAAAAAAAAAAAAAAAAAAAAczv/93/8PFdu4UC8Qt98AAAAASUVORK5CYII=;strokeColor=none;points=[[0,0.48,0],[1,0.48,0],[0.51,1,0]];labelBackgroundColor=none;rounded=0;html=1;whiteSpace=wrap;" parent="1" vertex="1">
            <mxGeometry x="440" y="560" width="189.4" height="60" as="geometry" />
          </mxCell>
        </UserObject>
        <mxCell id="PY6hMegodC8Zt7V4-v8n-15" value="" style="outlineConnect=0;dashed=0;verticalLabelPosition=bottom;verticalAlign=top;align=center;html=1;shape=mxgraph.aws3.topic;fillColor=#5294CF;gradientColor=none;" parent="1" vertex="1">
          <mxGeometry x="648.1" y="582" width="49.5" height="66" as="geometry" />
        </mxCell>
        <mxCell id="PY6hMegodC8Zt7V4-v8n-16" value="" style="outlineConnect=0;dashed=0;verticalLabelPosition=bottom;verticalAlign=top;align=center;html=1;shape=mxgraph.aws3.topic;fillColor=#5294CF;gradientColor=none;" parent="1" vertex="1">
          <mxGeometry x="880" y="582" width="49.5" height="66" as="geometry" />
        </mxCell>
        <mxCell id="PY6hMegodC8Zt7V4-v8n-17" value="ADS&lt;br&gt;Golden" style="outlineConnect=0;dashed=0;verticalLabelPosition=bottom;verticalAlign=top;align=center;html=1;shape=mxgraph.aws3.topic;fillColor=#5294CF;gradientColor=none;" parent="1" vertex="1">
          <mxGeometry x="1180" y="582" width="49.5" height="66" as="geometry" />
        </mxCell>
        <mxCell id="PY6hMegodC8Zt7V4-v8n-19" value="Digital Human&lt;br&gt;Session" style="shape=image;html=1;verticalAlign=top;verticalLabelPosition=bottom;labelBackgroundColor=#ffffff;imageAspect=0;aspect=fixed;image=https://cdn2.iconfinder.com/data/icons/crystalproject/128x128/apps/Session-Manager.png" parent="1" vertex="1">
          <mxGeometry x="250" y="360.25" width="58" height="58" as="geometry" />
        </mxCell>
        <mxCell id="PY6hMegodC8Zt7V4-v8n-20" style="rounded=0;orthogonalLoop=1;jettySize=auto;html=1;strokeWidth=2;fillColor=#d5e8d4;strokeColor=#82b366;" parent="1" source="PY6hMegodC8Zt7V4-v8n-19" target="PY6hMegodC8Zt7V4-v8n-10" edge="1">
          <mxGeometry relative="1" as="geometry">
            <mxPoint x="1073" y="697" as="targetPoint" />
            <mxPoint x="748" y="698" as="sourcePoint" />
          </mxGeometry>
        </mxCell>
        <mxCell id="PY6hMegodC8Zt7V4-v8n-21" value="" style="shape=image;html=1;verticalAlign=top;verticalLabelPosition=bottom;labelBackgroundColor=#ffffff;imageAspect=0;aspect=fixed;image=https://cdn1.iconfinder.com/data/icons/bootstrap-vol-3/16/filetype-java-128.png" parent="1" vertex="1">
          <mxGeometry x="430" y="393.5" width="28" height="28" as="geometry" />
        </mxCell>
        <mxCell id="PY6hMegodC8Zt7V4-v8n-22" value="IRIS" style="image;aspect=fixed;html=1;points=[];align=center;fontSize=12;image=img/lib/azure2/databases/SQL_Server.svg;" parent="1" vertex="1">
          <mxGeometry x="250" y="230" width="68" height="68" as="geometry" />
        </mxCell>
        <mxCell id="PY6hMegodC8Zt7V4-v8n-32" style="rounded=0;orthogonalLoop=1;jettySize=auto;html=1;strokeWidth=2;fillColor=#d5e8d4;strokeColor=#82b366;entryX=0.5;entryY=0;entryDx=0;entryDy=0;entryPerimeter=0;" parent="1" source="PY6hMegodC8Zt7V4-v8n-10" target="PY6hMegodC8Zt7V4-v8n-15" edge="1">
          <mxGeometry relative="1" as="geometry">
            <mxPoint x="1210" y="397" as="targetPoint" />
            <mxPoint x="790" y="400" as="sourcePoint" />
          </mxGeometry>
        </mxCell>
        <mxCell id="PY6hMegodC8Zt7V4-v8n-46" style="rounded=0;orthogonalLoop=1;jettySize=auto;html=1;strokeWidth=2;fillColor=#3333FF;strokeColor=#82B366;exitX=0.5;exitY=0;exitDx=0;exitDy=0;exitPerimeter=0;edgeStyle=orthogonalEdgeStyle;" parent="1" source="PY6hMegodC8Zt7V4-v8n-16" target="PY6hMegodC8Zt7V4-v8n-10" edge="1">
          <mxGeometry relative="1" as="geometry">
            <mxPoint x="683" y="592" as="targetPoint" />
            <mxPoint x="683" y="432" as="sourcePoint" />
          </mxGeometry>
        </mxCell>
        <mxCell id="PY6hMegodC8Zt7V4-v8n-47" style="rounded=0;orthogonalLoop=1;jettySize=auto;html=1;strokeWidth=2;fillColor=#3333FF;strokeColor=#82B366;exitX=0.5;exitY=0;exitDx=0;exitDy=0;exitPerimeter=0;edgeStyle=orthogonalEdgeStyle;entryX=0.51;entryY=1;entryDx=0;entryDy=0;entryPerimeter=0;dashed=1;" parent="1" source="PY6hMegodC8Zt7V4-v8n-17" target="PY6hMegodC8Zt7V4-v8n-10" edge="1">
          <mxGeometry relative="1" as="geometry">
            <mxPoint x="683" y="432" as="targetPoint" />
            <mxPoint x="915" y="592" as="sourcePoint" />
          </mxGeometry>
        </mxCell>
        <mxCell id="PY6hMegodC8Zt7V4-v8n-53" value="" style="rounded=1;whiteSpace=wrap;html=1;fillColor=#EBFFFE;strokeColor=#F5FCFF;shadow=1;" parent="1" vertex="1">
          <mxGeometry x="430" y="774.5" width="850" height="130" as="geometry" />
        </mxCell>
        <mxCell id="PY6hMegodC8Zt7V4-v8n-33" value="" style="image;aspect=fixed;html=1;points=[];align=center;fontSize=12;image=img/lib/azure2/analytics/Azure_Databricks.svg;" parent="1" vertex="1">
          <mxGeometry x="680" y="720" width="35.09" height="38" as="geometry" />
        </mxCell>
        <mxCell id="PY6hMegodC8Zt7V4-v8n-34" value="ODS" style="sketch=0;aspect=fixed;html=1;points=[];align=center;image;fontSize=12;image=img/lib/mscae/Data_Lake.svg;" parent="1" vertex="1">
          <mxGeometry x="642.45" y="799.5" width="60.8" height="80" as="geometry" />
        </mxCell>
        <mxCell id="PY6hMegodC8Zt7V4-v8n-37" value="DWD" style="sketch=0;aspect=fixed;html=1;points=[];align=center;image;fontSize=12;image=img/lib/mscae/Data_Lake.svg;" parent="1" vertex="1">
          <mxGeometry x="874.35" y="799.5" width="60.8" height="80" as="geometry" />
        </mxCell>
        <mxCell id="PY6hMegodC8Zt7V4-v8n-38" value="" style="image;aspect=fixed;html=1;points=[];align=center;fontSize=12;image=img/lib/azure2/analytics/Azure_Databricks.svg;" parent="1" vertex="1">
          <mxGeometry x="775.65" y="789.5" width="35.09" height="38" as="geometry" />
        </mxCell>
        <mxCell id="PY6hMegodC8Zt7V4-v8n-39" style="rounded=0;orthogonalLoop=1;jettySize=auto;html=1;strokeWidth=2;fillColor=#d5e8d4;strokeColor=#82b366;entryX=-0.016;entryY=0.5;entryDx=0;entryDy=0;entryPerimeter=0;" parent="1" source="PY6hMegodC8Zt7V4-v8n-34" target="PY6hMegodC8Zt7V4-v8n-37" edge="1">
          <mxGeometry relative="1" as="geometry">
            <mxPoint x="688.65" y="809.5" as="targetPoint" />
            <mxPoint x="687.65" y="730.5" as="sourcePoint" />
          </mxGeometry>
        </mxCell>
        <mxCell id="PY6hMegodC8Zt7V4-v8n-40" value="" style="image;aspect=fixed;html=1;points=[];align=center;fontSize=12;image=img/lib/azure2/analytics/Azure_Databricks.svg;" parent="1" vertex="1">
          <mxGeometry x="860" y="720" width="35.09" height="38" as="geometry" />
        </mxCell>
        <mxCell id="PY6hMegodC8Zt7V4-v8n-41" value="ADS" style="sketch=0;aspect=fixed;html=1;points=[];align=center;image;fontSize=12;image=img/lib/mscae/Data_Lake.svg;" parent="1" vertex="1">
          <mxGeometry x="1174.35" y="799.5" width="60.8" height="80" as="geometry" />
        </mxCell>
        <mxCell id="PY6hMegodC8Zt7V4-v8n-42" style="rounded=0;orthogonalLoop=1;jettySize=auto;html=1;strokeWidth=2;fillColor=#d5e8d4;strokeColor=#82b366;dashed=1;" parent="1" source="PY6hMegodC8Zt7V4-v8n-37" target="PY6hMegodC8Zt7V4-v8n-41" edge="1">
          <mxGeometry relative="1" as="geometry">
            <mxPoint x="915" y="658" as="targetPoint" />
            <mxPoint x="915" y="810" as="sourcePoint" />
          </mxGeometry>
        </mxCell>
        <mxCell id="PY6hMegodC8Zt7V4-v8n-35" style="rounded=0;orthogonalLoop=1;jettySize=auto;html=1;strokeWidth=2;fillColor=#d5e8d4;strokeColor=#82b366;" parent="1" source="PY6hMegodC8Zt7V4-v8n-37" target="PY6hMegodC8Zt7V4-v8n-16" edge="1">
          <mxGeometry relative="1" as="geometry">
            <mxPoint x="683" y="592" as="targetPoint" />
            <mxPoint x="678" y="820" as="sourcePoint" />
          </mxGeometry>
        </mxCell>
        <mxCell id="PY6hMegodC8Zt7V4-v8n-36" style="rounded=0;orthogonalLoop=1;jettySize=auto;html=1;strokeWidth=2;fillColor=#d5e8d4;strokeColor=#82b366;" parent="1" source="PY6hMegodC8Zt7V4-v8n-15" target="PY6hMegodC8Zt7V4-v8n-34" edge="1">
          <mxGeometry relative="1" as="geometry">
            <mxPoint x="676" y="920" as="targetPoint" />
            <mxPoint x="641" y="811" as="sourcePoint" />
          </mxGeometry>
        </mxCell>
        <mxCell id="PY6hMegodC8Zt7V4-v8n-43" style="rounded=0;orthogonalLoop=1;jettySize=auto;html=1;strokeWidth=2;fillColor=#d5e8d4;strokeColor=#82b366;dashed=1;" parent="1" source="PY6hMegodC8Zt7V4-v8n-41" target="PY6hMegodC8Zt7V4-v8n-17" edge="1">
          <mxGeometry relative="1" as="geometry">
            <mxPoint x="915" y="658" as="targetPoint" />
            <mxPoint x="915" y="810" as="sourcePoint" />
          </mxGeometry>
        </mxCell>
        <mxCell id="PY6hMegodC8Zt7V4-v8n-58" value="" style="rounded=1;whiteSpace=wrap;html=1;fillColor=#EBFFFE;strokeColor=#F5FCFF;shadow=1;" parent="1" vertex="1">
          <mxGeometry x="430" y="979.5" width="850" height="130" as="geometry" />
        </mxCell>
        <mxCell id="PY6hMegodC8Zt7V4-v8n-59" value="ODS" style="sketch=0;aspect=fixed;html=1;points=[];align=center;image;fontSize=12;image=img/lib/mscae/Data_Lake.svg;" parent="1" vertex="1">
          <mxGeometry x="642.45" y="1004.5" width="60.8" height="80" as="geometry" />
        </mxCell>
        <mxCell id="PY6hMegodC8Zt7V4-v8n-60" value="DWD" style="sketch=0;aspect=fixed;html=1;points=[];align=center;image;fontSize=12;image=img/lib/mscae/Data_Lake.svg;" parent="1" vertex="1">
          <mxGeometry x="874.35" y="1004.5" width="60.8" height="80" as="geometry" />
        </mxCell>
        <mxCell id="PY6hMegodC8Zt7V4-v8n-61" value="" style="image;aspect=fixed;html=1;points=[];align=center;fontSize=12;image=img/lib/azure2/analytics/Azure_Databricks.svg;" parent="1" vertex="1">
          <mxGeometry x="680" y="930" width="35.09" height="38" as="geometry" />
        </mxCell>
        <mxCell id="PY6hMegodC8Zt7V4-v8n-62" style="rounded=0;orthogonalLoop=1;jettySize=auto;html=1;strokeWidth=2;fillColor=#d5e8d4;strokeColor=#82b366;" parent="1" source="PY6hMegodC8Zt7V4-v8n-34" target="PY6hMegodC8Zt7V4-v8n-59" edge="1">
          <mxGeometry relative="1" as="geometry">
            <mxPoint x="696.05" y="1014.5" as="targetPoint" />
            <mxPoint x="695.05" y="935.5" as="sourcePoint" />
          </mxGeometry>
        </mxCell>
        <mxCell id="PY6hMegodC8Zt7V4-v8n-63" value="APP" style="sketch=0;aspect=fixed;html=1;points=[];align=center;image;fontSize=12;image=img/lib/mscae/Data_Lake.svg;" parent="1" vertex="1">
          <mxGeometry x="1174.35" y="1004.5" width="60.8" height="80" as="geometry" />
        </mxCell>
        <mxCell id="PY6hMegodC8Zt7V4-v8n-64" style="rounded=0;orthogonalLoop=1;jettySize=auto;html=1;strokeWidth=2;fillColor=#d5e8d4;strokeColor=#82b366;dashed=1;" parent="1" target="PY6hMegodC8Zt7V4-v8n-63" edge="1">
          <mxGeometry relative="1" as="geometry">
            <mxPoint x="922.4" y="863" as="targetPoint" />
            <mxPoint x="1205" y="880" as="sourcePoint" />
          </mxGeometry>
        </mxCell>
        <mxCell id="PY6hMegodC8Zt7V4-v8n-65" value="" style="image;aspect=fixed;html=1;points=[];align=center;fontSize=12;image=img/lib/azure2/analytics/Azure_Databricks.svg;" parent="1" vertex="1">
          <mxGeometry x="910.0000000000001" y="930" width="35.09" height="38" as="geometry" />
        </mxCell>
        <mxCell id="PY6hMegodC8Zt7V4-v8n-66" style="rounded=0;orthogonalLoop=1;jettySize=auto;html=1;strokeWidth=2;fillColor=#d5e8d4;strokeColor=#82b366;" parent="1" source="PY6hMegodC8Zt7V4-v8n-37" target="PY6hMegodC8Zt7V4-v8n-60" edge="1">
          <mxGeometry relative="1" as="geometry">
            <mxPoint x="883" y="850" as="targetPoint" />
            <mxPoint x="713" y="850" as="sourcePoint" />
          </mxGeometry>
        </mxCell>
        <mxCell id="PY6hMegodC8Zt7V4-v8n-68" value="" style="image;aspect=fixed;html=1;points=[];align=center;fontSize=12;image=img/lib/azure2/databases/Azure_SQL.svg;" parent="1" vertex="1">
          <mxGeometry x="485.01" y="1015.75" width="80" height="57.5" as="geometry" />
        </mxCell>
        <mxCell id="PY6hMegodC8Zt7V4-v8n-70" value="&lt;font style=&quot;font-size: 18px;&quot;&gt;CDM&lt;/font&gt;" style="image;aspect=fixed;html=1;points=[];align=center;fontSize=12;image=img/lib/azure2/storage/Storage_Accounts.svg;" parent="1" vertex="1">
          <mxGeometry x="500" y="774.5" width="50.01" height="40" as="geometry" />
        </mxCell>
        <mxCell id="PY6hMegodC8Zt7V4-v8n-72" value="LA" style="image;aspect=fixed;html=1;points=[];align=center;fontSize=12;image=img/lib/azure2/databases/SQL_Database.svg;" parent="1" vertex="1">
          <mxGeometry x="260" y="725.5" width="48" height="64" as="geometry" />
        </mxCell>
        <mxCell id="PY6hMegodC8Zt7V4-v8n-75" style="rounded=0;orthogonalLoop=1;jettySize=auto;html=1;strokeWidth=2;fillColor=#0505E8;strokeColor=#0505B3;edgeStyle=orthogonalEdgeStyle;" parent="1" source="PY6hMegodC8Zt7V4-v8n-72" target="PY6hMegodC8Zt7V4-v8n-34" edge="1">
          <mxGeometry relative="1" as="geometry">
            <mxPoint x="683" y="810" as="targetPoint" />
            <mxPoint x="683" y="658" as="sourcePoint" />
          </mxGeometry>
        </mxCell>
        <mxCell id="PY6hMegodC8Zt7V4-v8n-76" value="" style="image;aspect=fixed;html=1;points=[];align=center;fontSize=12;image=img/lib/azure2/analytics/Azure_Databricks.svg;" parent="1" vertex="1">
          <mxGeometry x="440" y="716" width="35.09" height="38" as="geometry" />
        </mxCell>
        <mxCell id="PY6hMegodC8Zt7V4-v8n-77" value="&lt;b&gt;&lt;font style=&quot;font-size: 16px;&quot;&gt;Daily Batch&lt;/font&gt;&lt;/b&gt;&lt;b&gt;&lt;font style=&quot;font-size: 16px;&quot;&gt;&lt;br&gt;&lt;/font&gt;&lt;/b&gt;" style="text;strokeColor=none;align=center;fillColor=none;html=1;verticalAlign=middle;whiteSpace=wrap;rounded=0;" parent="1" vertex="1">
          <mxGeometry x="309.99999999999994" y="716" width="130" height="40" as="geometry" />
        </mxCell>
        <mxCell id="PY6hMegodC8Zt7V4-v8n-79" value="AI Leads" style="image;aspect=fixed;html=1;points=[];align=center;fontSize=12;image=img/lib/azure2/ai_machine_learning/Machine_Learning.svg;" parent="1" vertex="1">
          <mxGeometry x="249" y="836.5" width="64" height="68" as="geometry" />
        </mxCell>
        <mxCell id="PY6hMegodC8Zt7V4-v8n-80" style="rounded=0;orthogonalLoop=1;jettySize=auto;html=1;strokeWidth=2;fillColor=#0505E8;strokeColor=#0505B3;edgeStyle=orthogonalEdgeStyle;" parent="1" source="PY6hMegodC8Zt7V4-v8n-79" target="PY6hMegodC8Zt7V4-v8n-34" edge="1">
          <mxGeometry relative="1" as="geometry">
            <mxPoint x="683" y="810" as="targetPoint" />
            <mxPoint x="318" y="768" as="sourcePoint" />
            <Array as="points">
              <mxPoint x="478" y="871" />
              <mxPoint x="478" y="850" />
            </Array>
          </mxGeometry>
        </mxCell>
        <mxCell id="PY6hMegodC8Zt7V4-v8n-81" value="&lt;b&gt;&lt;font style=&quot;font-size: 16px;&quot;&gt;Weekly Batch&lt;/font&gt;&lt;/b&gt;&lt;b&gt;&lt;font style=&quot;font-size: 16px;&quot;&gt;&lt;br&gt;&lt;/font&gt;&lt;/b&gt;" style="text;strokeColor=none;align=center;fillColor=none;html=1;verticalAlign=middle;whiteSpace=wrap;rounded=0;" parent="1" vertex="1">
          <mxGeometry x="317.99999999999994" y="839.5" width="130" height="40" as="geometry" />
        </mxCell>
        <mxCell id="PY6hMegodC8Zt7V4-v8n-87" value="&lt;b&gt;&lt;font style=&quot;font-size: 12px;&quot;&gt;Leads Status&lt;/font&gt;&lt;/b&gt;&lt;b&gt;&lt;font style=&quot;font-size: 16px;&quot;&gt;&lt;br&gt;&lt;/font&gt;&lt;/b&gt;" style="text;strokeColor=none;align=center;fillColor=none;html=1;verticalAlign=middle;whiteSpace=wrap;rounded=0;" parent="1" vertex="1">
          <mxGeometry x="980" y="340" width="130" height="40" as="geometry" />
        </mxCell>
        <mxCell id="PY6hMegodC8Zt7V4-v8n-88" value="&lt;b&gt;&lt;font style=&quot;font-size: 12px;&quot;&gt;New Leads&lt;/font&gt;&lt;/b&gt;&lt;b&gt;&lt;font style=&quot;font-size: 16px;&quot;&gt;&lt;br&gt;&lt;/font&gt;&lt;/b&gt;" style="text;strokeColor=none;align=center;fillColor=none;html=1;verticalAlign=middle;whiteSpace=wrap;rounded=0;" parent="1" vertex="1">
          <mxGeometry x="980" y="387.5" width="130" height="40" as="geometry" />
        </mxCell>
        <mxCell id="PY6hMegodC8Zt7V4-v8n-90" value="" style="image;aspect=fixed;html=1;points=[];align=center;fontSize=12;image=img/lib/azure2/security/Key_Vaults.svg;" parent="1" vertex="1">
          <mxGeometry x="245" y="612" width="68" height="68" as="geometry" />
        </mxCell>
        <mxCell id="PY6hMegodC8Zt7V4-v8n-91" value="" style="shape=image;html=1;verticalAlign=top;verticalLabelPosition=bottom;labelBackgroundColor=#ffffff;imageAspect=0;aspect=fixed;image=https://cdn1.iconfinder.com/data/icons/bootstrap-vol-3/16/filetype-java-128.png" parent="1" vertex="1">
          <mxGeometry x="1090" y="346" width="28" height="28" as="geometry" />
        </mxCell>
        <mxCell id="PY6hMegodC8Zt7V4-v8n-92" value="" style="shape=image;html=1;verticalAlign=top;verticalLabelPosition=bottom;labelBackgroundColor=#ffffff;imageAspect=0;aspect=fixed;image=https://cdn1.iconfinder.com/data/icons/bootstrap-vol-3/16/filetype-java-128.png" parent="1" vertex="1">
          <mxGeometry x="1090" y="393.5" width="28" height="28" as="geometry" />
        </mxCell>
        <mxCell id="PY6hMegodC8Zt7V4-v8n-93" value="" style="endArrow=none;dashed=1;html=1;dashPattern=1 3;strokeWidth=2;rounded=0;edgeStyle=orthogonalEdgeStyle;" parent="1" source="PY6hMegodC8Zt7V4-v8n-90" target="PY6hMegodC8Zt7V4-v8n-19" edge="1">
          <mxGeometry width="50" height="50" relative="1" as="geometry">
            <mxPoint x="160" y="650" as="sourcePoint" />
            <mxPoint x="210" y="600" as="targetPoint" />
            <Array as="points">
              <mxPoint x="180" y="650" />
              <mxPoint x="180" y="389" />
            </Array>
          </mxGeometry>
        </mxCell>
        <mxCell id="PY6hMegodC8Zt7V4-v8n-94" value="" style="endArrow=none;dashed=1;html=1;dashPattern=1 3;strokeWidth=2;rounded=0;edgeStyle=orthogonalEdgeStyle;" parent="1" source="PY6hMegodC8Zt7V4-v8n-90" target="PY6hMegodC8Zt7V4-v8n-22" edge="1">
          <mxGeometry width="50" height="50" relative="1" as="geometry">
            <mxPoint x="289" y="590" as="sourcePoint" />
            <mxPoint x="289" y="428" as="targetPoint" />
            <Array as="points">
              <mxPoint x="170" y="650" />
              <mxPoint x="170" y="264" />
            </Array>
          </mxGeometry>
        </mxCell>
        <mxCell id="PY6hMegodC8Zt7V4-v8n-95" value="" style="endArrow=none;dashed=1;html=1;dashPattern=1 3;strokeWidth=2;rounded=0;edgeStyle=orthogonalEdgeStyle;" parent="1" source="PY6hMegodC8Zt7V4-v8n-90" target="PY6hMegodC8Zt7V4-v8n-34" edge="1">
          <mxGeometry width="50" height="50" relative="1" as="geometry">
            <mxPoint x="360" y="690" as="sourcePoint" />
            <mxPoint x="410" y="640" as="targetPoint" />
            <Array as="points">
              <mxPoint x="279" y="700" />
              <mxPoint x="673" y="700" />
            </Array>
          </mxGeometry>
        </mxCell>
        <mxCell id="PY6hMegodC8Zt7V4-v8n-97" value="" style="endArrow=none;dashed=1;html=1;dashPattern=1 3;strokeWidth=2;rounded=0;edgeStyle=orthogonalEdgeStyle;" parent="1" source="PY6hMegodC8Zt7V4-v8n-79" target="PY6hMegodC8Zt7V4-v8n-90" edge="1">
          <mxGeometry width="50" height="50" relative="1" as="geometry">
            <mxPoint x="190" y="760" as="sourcePoint" />
            <mxPoint x="240" y="710" as="targetPoint" />
            <Array as="points">
              <mxPoint x="220" y="880" />
              <mxPoint x="220" y="650" />
            </Array>
          </mxGeometry>
        </mxCell>
        <mxCell id="PY6hMegodC8Zt7V4-v8n-101" value="" style="rounded=1;whiteSpace=wrap;html=1;fillColor=#EBFBFF;strokeColor=#E7E3FF;shadow=1;" parent="1" vertex="1">
          <mxGeometry x="1270" y="280" width="200" height="180" as="geometry" />
        </mxCell>
        <mxCell id="PY6hMegodC8Zt7V4-v8n-99" value="Agent" style="image;sketch=0;aspect=fixed;html=1;points=[];align=center;fontSize=12;image=img/lib/mscae/Person.svg;" parent="1" vertex="1">
          <mxGeometry x="1562.33" y="327.5" width="48.1" height="65" as="geometry" />
        </mxCell>
        <mxCell id="PY6hMegodC8Zt7V4-v8n-100" style="rounded=0;orthogonalLoop=1;jettySize=auto;html=2;strokeWidth=2;fillColor=#d5e8d4;strokeColor=#82b366;endArrow=classic;entryX=1.005;entryY=0.45;entryDx=0;entryDy=0;entryPerimeter=0;" parent="1" source="PY6hMegodC8Zt7V4-v8n-99" target="PY6hMegodC8Zt7V4-v8n-101" edge="1">
          <mxGeometry relative="1" as="geometry">
            <mxPoint x="1470" y="390" as="targetPoint" />
            <mxPoint x="1320" y="389.25" as="sourcePoint" />
          </mxGeometry>
        </mxCell>
        <mxCell id="PY6hMegodC8Zt7V4-v8n-98" value="" style="sketch=0;pointerEvents=1;shadow=0;dashed=0;html=1;strokeColor=none;fillColor=#505050;labelPosition=center;verticalLabelPosition=bottom;verticalAlign=top;outlineConnect=0;align=center;shape=mxgraph.office.concepts.web_page;" parent="1" vertex="1">
          <mxGeometry x="1380" y="353.5" width="80" height="74" as="geometry" />
        </mxCell>
        <mxCell id="PY6hMegodC8Zt7V4-v8n-52" value="MongoDB" style="dashed=0;outlineConnect=0;html=1;align=center;labelPosition=center;verticalLabelPosition=bottom;verticalAlign=top;shape=mxgraph.weblogos.mongodb" parent="1" vertex="1">
          <mxGeometry x="1310" y="346.15" width="41.2" height="86.2" as="geometry" />
        </mxCell>
        <mxCell id="PY6hMegodC8Zt7V4-v8n-23" value="&lt;b&gt;&lt;font style=&quot;font-size: 32px;&quot; color=&quot;#e78822&quot;&gt;CUBE&lt;/font&gt;&lt;/b&gt;" style="text;strokeColor=none;align=center;fillColor=none;html=1;verticalAlign=middle;whiteSpace=wrap;rounded=0;" parent="1" vertex="1">
          <mxGeometry x="1310" y="280" width="120" height="60" as="geometry" />
        </mxCell>
        <mxCell id="PY6hMegodC8Zt7V4-v8n-86" style="rounded=0;orthogonalLoop=1;jettySize=auto;html=2;strokeWidth=2;fillColor=#d5e8d4;strokeColor=#82b366;endArrow=classic;" parent="1" edge="1">
          <mxGeometry relative="1" as="geometry">
            <mxPoint x="785.6999999999998" y="379.25" as="targetPoint" />
            <mxPoint x="1270" y="380" as="sourcePoint" />
          </mxGeometry>
        </mxCell>
        <mxCell id="PY6hMegodC8Zt7V4-v8n-31" style="rounded=0;orthogonalLoop=1;jettySize=auto;html=2;strokeWidth=2;fillColor=#d5e8d4;strokeColor=#82b366;endArrow=classic;" parent="1" edge="1">
          <mxGeometry relative="1" as="geometry">
            <mxPoint x="1270" y="390" as="targetPoint" />
            <mxPoint x="780" y="390" as="sourcePoint" />
          </mxGeometry>
        </mxCell>
        <mxCell id="PY6hMegodC8Zt7V4-v8n-96" value="" style="endArrow=none;dashed=1;html=1;dashPattern=1 3;strokeWidth=2;rounded=0;edgeStyle=orthogonalEdgeStyle;" parent="1" source="PY6hMegodC8Zt7V4-v8n-52" target="PY6hMegodC8Zt7V4-v8n-90" edge="1">
          <mxGeometry width="50" height="50" relative="1" as="geometry">
            <mxPoint x="255" y="660" as="sourcePoint" />
            <mxPoint x="260" y="399" as="targetPoint" />
            <Array as="points">
              <mxPoint x="1331" y="490" />
              <mxPoint x="279" y="490" />
            </Array>
          </mxGeometry>
        </mxCell>
      </root>
    </mxGraphModel>
  </diagram>
  <diagram id="xvToLOv-125T57xLGkD9" name="Page-2">
    <mxGraphModel dx="1034" dy="464" grid="1" gridSize="10" guides="1" tooltips="1" connect="1" arrows="1" fold="1" page="1" pageScale="1" pageWidth="850" pageHeight="1100" math="0" shadow="0">
      <root>
        <mxCell id="0" />
        <mxCell id="1" parent="0" />
        <mxCell id="68H7BtTvMwh0Yu2v56fw-1" value="AWS" style="outlineConnect=0;dashed=0;verticalLabelPosition=bottom;verticalAlign=top;align=center;html=1;shape=mxgraph.aws3.topic_2;fillColor=#D9A741;gradientColor=none;" parent="1" vertex="1">
          <mxGeometry x="200" y="230" width="93" height="58.5" as="geometry" />
        </mxCell>
        <mxCell id="68H7BtTvMwh0Yu2v56fw-2" value="CC" style="outlineConnect=0;dashed=0;verticalLabelPosition=bottom;verticalAlign=top;align=center;html=1;shape=mxgraph.aws3.topic;fillColor=#5294CF;gradientColor=none;" parent="1" vertex="1">
          <mxGeometry x="450" y="100" width="49.5" height="66" as="geometry" />
        </mxCell>
        <mxCell id="68H7BtTvMwh0Yu2v56fw-4" value="" style="edgeStyle=none;rounded=0;html=1;jettySize=auto;orthogonalLoop=1;strokeColor=#00B336;strokeWidth=2;fontColor=#000000;jumpStyle=none;endArrow=block;endFill=1;startArrow=block;startFill=1;" parent="1" source="68H7BtTvMwh0Yu2v56fw-1" target="68H7BtTvMwh0Yu2v56fw-2" edge="1">
          <mxGeometry width="100" relative="1" as="geometry">
            <mxPoint x="440" y="260" as="sourcePoint" />
            <mxPoint x="540" y="260" as="targetPoint" />
          </mxGeometry>
        </mxCell>
        <mxCell id="68H7BtTvMwh0Yu2v56fw-12" value="Replicator" style="edgeLabel;html=1;align=center;verticalAlign=middle;resizable=0;points=[];" parent="68H7BtTvMwh0Yu2v56fw-4" vertex="1" connectable="0">
          <mxGeometry x="0.0499" y="-1" relative="1" as="geometry">
            <mxPoint as="offset" />
          </mxGeometry>
        </mxCell>
        <mxCell id="68H7BtTvMwh0Yu2v56fw-5" value="CP" style="outlineConnect=0;dashed=0;verticalLabelPosition=bottom;verticalAlign=top;align=center;html=1;shape=mxgraph.aws3.topic;fillColor=#5294CF;gradientColor=none;" parent="1" vertex="1">
          <mxGeometry x="450" y="330" width="49.5" height="66" as="geometry" />
        </mxCell>
        <mxCell id="68H7BtTvMwh0Yu2v56fw-6" value="" style="edgeStyle=none;rounded=0;html=1;jettySize=auto;orthogonalLoop=1;strokeColor=#00B336;strokeWidth=2;fontColor=#000000;jumpStyle=none;endArrow=block;endFill=1;startArrow=block;startFill=1;exitX=1;exitY=1;exitDx=0;exitDy=0;exitPerimeter=0;dashed=1;" parent="1" source="68H7BtTvMwh0Yu2v56fw-1" target="68H7BtTvMwh0Yu2v56fw-5" edge="1">
          <mxGeometry width="100" relative="1" as="geometry">
            <mxPoint x="303" y="244" as="sourcePoint" />
            <mxPoint x="460" y="157" as="targetPoint" />
          </mxGeometry>
        </mxCell>
        <mxCell id="68H7BtTvMwh0Yu2v56fw-10" value="Replicator" style="edgeLabel;html=1;align=center;verticalAlign=middle;resizable=0;points=[];" parent="68H7BtTvMwh0Yu2v56fw-6" vertex="1" connectable="0">
          <mxGeometry x="0.1447" relative="1" as="geometry">
            <mxPoint as="offset" />
          </mxGeometry>
        </mxCell>
        <mxCell id="68H7BtTvMwh0Yu2v56fw-7" value="&lt;b&gt;&lt;font style=&quot;font-size: 16px;&quot;&gt;CDP/CDM/CLS&lt;br&gt;&lt;/font&gt;&lt;/b&gt;" style="text;align=left;html=1;verticalAlign=middle;whiteSpace=wrap;rounded=0;" parent="1" vertex="1">
          <mxGeometry x="650" y="239.25" width="130" height="40" as="geometry" />
        </mxCell>
        <mxCell id="68H7BtTvMwh0Yu2v56fw-8" value="" style="endArrow=classic;html=1;rounded=0;exitX=1;exitY=0.5;exitDx=0;exitDy=0;exitPerimeter=0;entryX=0;entryY=1;entryDx=0;entryDy=0;dashed=1;" parent="1" source="68H7BtTvMwh0Yu2v56fw-5" target="68H7BtTvMwh0Yu2v56fw-7" edge="1">
          <mxGeometry width="50" height="50" relative="1" as="geometry">
            <mxPoint x="530" y="470" as="sourcePoint" />
            <mxPoint x="580" y="420" as="targetPoint" />
          </mxGeometry>
        </mxCell>
        <mxCell id="68H7BtTvMwh0Yu2v56fw-9" value="" style="endArrow=classic;html=1;rounded=0;entryX=0;entryY=0.25;entryDx=0;entryDy=0;exitX=1;exitY=0.5;exitDx=0;exitDy=0;exitPerimeter=0;" parent="1" source="68H7BtTvMwh0Yu2v56fw-2" target="68H7BtTvMwh0Yu2v56fw-7" edge="1">
          <mxGeometry width="50" height="50" relative="1" as="geometry">
            <mxPoint x="510" y="373" as="sourcePoint" />
            <mxPoint x="660" y="289" as="targetPoint" />
          </mxGeometry>
        </mxCell>
      </root>
    </mxGraphModel>
  </diagram>
  <diagram id="aNjFVYYkKwoJrBp4pPLy" name="Page-3">
    <mxGraphModel dx="1884" dy="464" grid="1" gridSize="10" guides="1" tooltips="1" connect="1" arrows="1" fold="1" page="1" pageScale="1" pageWidth="850" pageHeight="1100" math="0" shadow="0">
      <root>
        <mxCell id="0" />
        <mxCell id="1" parent="0" />
        <mxCell id="Kf1x12IKA_GH8InCq7KK-1" value="" style="shape=image;verticalLabelPosition=bottom;labelBackgroundColor=default;verticalAlign=top;aspect=fixed;imageAspect=0;image=https://logos-world.net/wp-content/uploads/2020/10/Salesforce-Logo.png;" vertex="1" parent="1">
          <mxGeometry x="-790" y="580" width="86.35" height="48.65" as="geometry" />
        </mxCell>
        <mxCell id="Kf1x12IKA_GH8InCq7KK-2" value="" style="image;html=1;image=img/lib/clip_art/networking/Firewall_02_128x128.png" vertex="1" parent="1">
          <mxGeometry x="-610" y="550" width="90" height="100" as="geometry" />
        </mxCell>
        <mxCell id="Kf1x12IKA_GH8InCq7KK-3" value="" style="sketch=0;html=1;dashed=0;whitespace=wrap;fillColor=#2875E2;strokeColor=#ffffff;points=[[0.005,0.63,0],[0.1,0.2,0],[0.9,0.2,0],[0.5,0,0],[0.995,0.63,0],[0.72,0.99,0],[0.5,1,0],[0.28,0.99,0]];verticalLabelPosition=bottom;align=center;verticalAlign=top;shape=mxgraph.kubernetes.icon;prIcon=api" vertex="1" parent="1">
          <mxGeometry x="-430" y="560.65" width="75" height="68" as="geometry" />
        </mxCell>
        <mxCell id="Kf1x12IKA_GH8InCq7KK-4" value="" style="endArrow=classic;html=1;rounded=0;exitX=1;exitY=0.5;exitDx=0;exitDy=0;entryX=0.005;entryY=0.63;entryDx=0;entryDy=0;entryPerimeter=0;dashed=1;" edge="1" parent="1" source="Kf1x12IKA_GH8InCq7KK-1" target="Kf1x12IKA_GH8InCq7KK-3">
          <mxGeometry width="50" height="50" relative="1" as="geometry">
            <mxPoint x="-690" y="690" as="sourcePoint" />
            <mxPoint x="-640" y="640" as="targetPoint" />
          </mxGeometry>
        </mxCell>
        <mxCell id="Kf1x12IKA_GH8InCq7KK-5" value="The scheduled job has been running at 30th minute of every hour" style="text;whiteSpace=wrap;html=1;" vertex="1" parent="1">
          <mxGeometry x="-800" y="530" width="140" height="70" as="geometry" />
        </mxCell>
        <mxCell id="Kf1x12IKA_GH8InCq7KK-6" value="Already open the firewall for some SFMC IP list." style="text;whiteSpace=wrap;html=1;" vertex="1" parent="1">
          <mxGeometry x="-640" y="650" width="140" height="40" as="geometry" />
        </mxCell>
        <mxCell id="Kf1x12IKA_GH8InCq7KK-9" value="Issue: SFMC can not get the API. it shows API Failed.&lt;br&gt;SFMC IP out of the White list. need to check if there is IPS refused by fiewall." style="text;whiteSpace=wrap;html=1;" vertex="1" parent="1">
          <mxGeometry x="-650" y="470" width="220" height="70" as="geometry" />
        </mxCell>
      </root>
    </mxGraphModel>
  </diagram>
  <diagram id="XXskCzGDPvFJSYT7362S" name="Page-4">
    <mxGraphModel dx="794" dy="446" grid="1" gridSize="10" guides="1" tooltips="1" connect="1" arrows="1" fold="1" page="1" pageScale="1" pageWidth="850" pageHeight="1100" math="0" shadow="0">
      <root>
        <mxCell id="0" />
        <mxCell id="1" parent="0" />
        <mxCell id="bxX-cM7ahgYd2tZyiyA1-1" value="Main2" style="ellipse;whiteSpace=wrap;html=1;aspect=fixed;" vertex="1" parent="1">
          <mxGeometry x="130" y="110" width="80" height="80" as="geometry" />
        </mxCell>
        <mxCell id="bxX-cM7ahgYd2tZyiyA1-17" style="edgeStyle=orthogonalEdgeStyle;rounded=0;orthogonalLoop=1;jettySize=auto;html=1;exitX=0.5;exitY=0;exitDx=0;exitDy=0;" edge="1" parent="1" source="bxX-cM7ahgYd2tZyiyA1-2" target="bxX-cM7ahgYd2tZyiyA1-1">
          <mxGeometry relative="1" as="geometry" />
        </mxCell>
        <mxCell id="bxX-cM7ahgYd2tZyiyA1-2" value="Main1" style="ellipse;whiteSpace=wrap;html=1;aspect=fixed;" vertex="1" parent="1">
          <mxGeometry x="130" y="260" width="80" height="80" as="geometry" />
        </mxCell>
        <mxCell id="bxX-cM7ahgYd2tZyiyA1-16" style="edgeStyle=orthogonalEdgeStyle;rounded=0;orthogonalLoop=1;jettySize=auto;html=1;entryX=1;entryY=0.5;entryDx=0;entryDy=0;" edge="1" parent="1" source="bxX-cM7ahgYd2tZyiyA1-3" target="bxX-cM7ahgYd2tZyiyA1-1">
          <mxGeometry relative="1" as="geometry" />
        </mxCell>
        <mxCell id="bxX-cM7ahgYd2tZyiyA1-3" value="DEV2&lt;div&gt;tang&lt;/div&gt;" style="ellipse;whiteSpace=wrap;html=1;aspect=fixed;" vertex="1" parent="1">
          <mxGeometry x="370" y="130" width="80" height="80" as="geometry" />
        </mxCell>
        <mxCell id="bxX-cM7ahgYd2tZyiyA1-6" style="edgeStyle=orthogonalEdgeStyle;rounded=0;orthogonalLoop=1;jettySize=auto;html=1;exitX=0;exitY=0.5;exitDx=0;exitDy=0;entryX=1;entryY=0.5;entryDx=0;entryDy=0;" edge="1" parent="1" source="bxX-cM7ahgYd2tZyiyA1-4" target="bxX-cM7ahgYd2tZyiyA1-2">
          <mxGeometry relative="1" as="geometry" />
        </mxCell>
        <mxCell id="bxX-cM7ahgYd2tZyiyA1-12" style="edgeStyle=orthogonalEdgeStyle;rounded=0;orthogonalLoop=1;jettySize=auto;html=1;entryX=0;entryY=0.5;entryDx=0;entryDy=0;" edge="1" parent="1" source="bxX-cM7ahgYd2tZyiyA1-4" target="bxX-cM7ahgYd2tZyiyA1-8">
          <mxGeometry relative="1" as="geometry" />
        </mxCell>
        <mxCell id="bxX-cM7ahgYd2tZyiyA1-4" value="DEV1" style="ellipse;whiteSpace=wrap;html=1;aspect=fixed;" vertex="1" parent="1">
          <mxGeometry x="370" y="310" width="80" height="80" as="geometry" />
        </mxCell>
        <mxCell id="bxX-cM7ahgYd2tZyiyA1-8" value="SCCR1" style="ellipse;whiteSpace=wrap;html=1;aspect=fixed;" vertex="1" parent="1">
          <mxGeometry x="570" y="320" width="80" height="80" as="geometry" />
        </mxCell>
        <mxCell id="bxX-cM7ahgYd2tZyiyA1-15" style="edgeStyle=orthogonalEdgeStyle;rounded=0;orthogonalLoop=1;jettySize=auto;html=1;" edge="1" parent="1" source="bxX-cM7ahgYd2tZyiyA1-9" target="bxX-cM7ahgYd2tZyiyA1-3">
          <mxGeometry relative="1" as="geometry" />
        </mxCell>
        <mxCell id="bxX-cM7ahgYd2tZyiyA1-9" value="SCCR2&lt;div&gt;PP&lt;/div&gt;" style="ellipse;whiteSpace=wrap;html=1;aspect=fixed;" vertex="1" parent="1">
          <mxGeometry x="570" y="150" width="80" height="80" as="geometry" />
        </mxCell>
        <mxCell id="bxX-cM7ahgYd2tZyiyA1-13" style="edgeStyle=orthogonalEdgeStyle;rounded=0;orthogonalLoop=1;jettySize=auto;html=1;exitX=0.5;exitY=0;exitDx=0;exitDy=0;" edge="1" parent="1" source="bxX-cM7ahgYd2tZyiyA1-4" target="bxX-cM7ahgYd2tZyiyA1-3">
          <mxGeometry relative="1" as="geometry">
            <mxPoint x="460" y="360" as="sourcePoint" />
            <mxPoint x="580" y="370" as="targetPoint" />
          </mxGeometry>
        </mxCell>
        <mxCell id="bxX-cM7ahgYd2tZyiyA1-14" style="edgeStyle=orthogonalEdgeStyle;rounded=0;orthogonalLoop=1;jettySize=auto;html=1;" edge="1" parent="1" target="bxX-cM7ahgYd2tZyiyA1-9">
          <mxGeometry relative="1" as="geometry">
            <mxPoint x="610" y="330" as="sourcePoint" />
            <mxPoint x="420" y="220" as="targetPoint" />
          </mxGeometry>
        </mxCell>
        <mxCell id="bxX-cM7ahgYd2tZyiyA1-21" style="edgeStyle=orthogonalEdgeStyle;rounded=0;orthogonalLoop=1;jettySize=auto;html=1;exitX=0;exitY=0.5;exitDx=0;exitDy=0;" edge="1" parent="1" source="bxX-cM7ahgYd2tZyiyA1-18" target="bxX-cM7ahgYd2tZyiyA1-19">
          <mxGeometry relative="1" as="geometry" />
        </mxCell>
        <mxCell id="bxX-cM7ahgYd2tZyiyA1-22" style="edgeStyle=orthogonalEdgeStyle;rounded=0;orthogonalLoop=1;jettySize=auto;html=1;exitX=1;exitY=0.5;exitDx=0;exitDy=0;" edge="1" parent="1" source="bxX-cM7ahgYd2tZyiyA1-18" target="bxX-cM7ahgYd2tZyiyA1-20">
          <mxGeometry relative="1" as="geometry" />
        </mxCell>
        <mxCell id="bxX-cM7ahgYd2tZyiyA1-18" value="wjj" style="ellipse;whiteSpace=wrap;html=1;aspect=fixed;" vertex="1" parent="1">
          <mxGeometry x="310" y="625" width="80" height="80" as="geometry" />
        </mxCell>
        <mxCell id="bxX-cM7ahgYd2tZyiyA1-25" style="edgeStyle=orthogonalEdgeStyle;rounded=0;orthogonalLoop=1;jettySize=auto;html=1;exitX=0.5;exitY=0;exitDx=0;exitDy=0;entryX=0.5;entryY=1;entryDx=0;entryDy=0;" edge="1" parent="1" source="bxX-cM7ahgYd2tZyiyA1-19" target="bxX-cM7ahgYd2tZyiyA1-24">
          <mxGeometry relative="1" as="geometry" />
        </mxCell>
        <mxCell id="bxX-cM7ahgYd2tZyiyA1-19" value="main&lt;div&gt;iofit 2000&lt;/div&gt;" style="ellipse;whiteSpace=wrap;html=1;aspect=fixed;" vertex="1" parent="1">
          <mxGeometry x="170" y="515" width="80" height="80" as="geometry" />
        </mxCell>
        <mxCell id="bxX-cM7ahgYd2tZyiyA1-23" style="edgeStyle=orthogonalEdgeStyle;rounded=0;orthogonalLoop=1;jettySize=auto;html=1;entryX=1;entryY=0.5;entryDx=0;entryDy=0;" edge="1" parent="1" source="bxX-cM7ahgYd2tZyiyA1-20" target="bxX-cM7ahgYd2tZyiyA1-24">
          <mxGeometry relative="1" as="geometry" />
        </mxCell>
        <mxCell id="bxX-cM7ahgYd2tZyiyA1-20" value="DEV&lt;div&gt;iofit 2000&lt;/div&gt;" style="ellipse;whiteSpace=wrap;html=1;aspect=fixed;" vertex="1" parent="1">
          <mxGeometry x="460" y="515" width="80" height="80" as="geometry" />
        </mxCell>
        <mxCell id="bxX-cM7ahgYd2tZyiyA1-24" value="mian2&lt;div&gt;Iofit 2000 +&lt;/div&gt;&lt;div&gt;lofit 2000&lt;/div&gt;" style="ellipse;whiteSpace=wrap;html=1;aspect=fixed;" vertex="1" parent="1">
          <mxGeometry x="170" y="400" width="80" height="80" as="geometry" />
        </mxCell>
      </root>
    </mxGraphModel>
  </diagram>
  <diagram id="8cTG61DZIGQaxbxeyg2x" name="Page-5">
    <mxGraphModel dx="1185" dy="666" grid="1" gridSize="10" guides="1" tooltips="1" connect="1" arrows="1" fold="1" page="1" pageScale="1" pageWidth="850" pageHeight="1100" math="0" shadow="0">
      <root>
        <mxCell id="0" />
        <mxCell id="1" parent="0" />
        <mxCell id="Jh9G-vTCGXpnsFreRWyh-16" value="Testing Pass" style="image;aspect=fixed;perimeter=ellipsePerimeter;html=1;align=center;shadow=0;dashed=0;fontColor=#4277BB;labelBackgroundColor=default;fontSize=12;spacingTop=3;image=img/lib/ibm/devops/continuous_testing.svg;" vertex="1" parent="1">
          <mxGeometry x="430" y="164" width="50" height="50" as="geometry" />
        </mxCell>
        <mxCell id="_5pGIIAS3tbBoMZiF2tw-2" value="DEV" style="ellipse;whiteSpace=wrap;html=1;aspect=fixed;fillColor=#60a917;fontColor=#ffffff;strokeColor=#2D7600;" parent="1" vertex="1">
          <mxGeometry x="250" y="547" width="50" height="50" as="geometry" />
        </mxCell>
        <mxCell id="_5pGIIAS3tbBoMZiF2tw-3" value="Main" style="ellipse;whiteSpace=wrap;html=1;aspect=fixed;fillColor=#f0a30a;fontColor=#000000;strokeColor=#BD7000;" parent="1" vertex="1">
          <mxGeometry x="250" y="447" width="50" height="50" as="geometry" />
        </mxCell>
        <mxCell id="_5pGIIAS3tbBoMZiF2tw-4" value="Feature" style="ellipse;whiteSpace=wrap;html=1;aspect=fixed;fillColor=#1ba1e2;fontColor=#ffffff;strokeColor=#006EAF;" parent="1" vertex="1">
          <mxGeometry x="250" y="657" width="50" height="50" as="geometry" />
        </mxCell>
        <mxCell id="_5pGIIAS3tbBoMZiF2tw-6" value="PROD" style="rounded=0;whiteSpace=wrap;html=1;fillColor=#f0a30a;fontColor=#000000;strokeColor=#BD7000;" parent="1" vertex="1">
          <mxGeometry x="40" y="452" width="120" height="40" as="geometry" />
        </mxCell>
        <mxCell id="_5pGIIAS3tbBoMZiF2tw-8" value="TEST &amp;amp; DEV" style="rounded=0;whiteSpace=wrap;html=1;fillColor=#60a917;fontColor=#ffffff;strokeColor=#2D7600;" parent="1" vertex="1">
          <mxGeometry x="40" y="552" width="120" height="40" as="geometry" />
        </mxCell>
        <mxCell id="_5pGIIAS3tbBoMZiF2tw-11" value="" style="endArrow=none;html=1;rounded=0;exitX=1;exitY=0.5;exitDx=0;exitDy=0;strokeWidth=3;fillColor=#f0a30a;strokeColor=#BD7000;" parent="1" source="_5pGIIAS3tbBoMZiF2tw-3" target="_5pGIIAS3tbBoMZiF2tw-12" edge="1">
          <mxGeometry width="50" height="50" relative="1" as="geometry">
            <mxPoint x="300" y="492" as="sourcePoint" />
            <mxPoint x="770" y="487" as="targetPoint" />
          </mxGeometry>
        </mxCell>
        <mxCell id="_5pGIIAS3tbBoMZiF2tw-12" value="Main&lt;div&gt;V2&lt;/div&gt;" style="ellipse;whiteSpace=wrap;html=1;aspect=fixed;fillColor=#f0a30a;fontColor=#000000;strokeColor=#BD7000;" parent="1" vertex="1">
          <mxGeometry x="710" y="447" width="50" height="50" as="geometry" />
        </mxCell>
        <mxCell id="_5pGIIAS3tbBoMZiF2tw-13" value="" style="endArrow=none;html=1;rounded=0;strokeWidth=3;fillColor=#6a00ff;strokeColor=#3700CC;" parent="1" source="_5pGIIAS3tbBoMZiF2tw-23" edge="1">
          <mxGeometry width="50" height="50" relative="1" as="geometry">
            <mxPoint x="300" y="572" as="sourcePoint" />
            <mxPoint x="640" y="572" as="targetPoint" />
          </mxGeometry>
        </mxCell>
        <mxCell id="_5pGIIAS3tbBoMZiF2tw-18" style="rounded=0;orthogonalLoop=1;jettySize=auto;html=1;exitX=0.5;exitY=0;exitDx=0;exitDy=0;entryX=0.5;entryY=1;entryDx=0;entryDy=0;edgeStyle=orthogonalEdgeStyle;curved=1;" parent="1" source="_5pGIIAS3tbBoMZiF2tw-14" target="_5pGIIAS3tbBoMZiF2tw-16" edge="1">
          <mxGeometry relative="1" as="geometry" />
        </mxCell>
        <mxCell id="_5pGIIAS3tbBoMZiF2tw-16" value="Main&lt;div&gt;V1&lt;/div&gt;" style="ellipse;whiteSpace=wrap;html=1;aspect=fixed;fillColor=#f0a30a;fontColor=#000000;strokeColor=#BD7000;" parent="1" vertex="1">
          <mxGeometry x="470" y="442" width="50" height="50" as="geometry" />
        </mxCell>
        <mxCell id="_5pGIIAS3tbBoMZiF2tw-19" value="" style="endArrow=none;html=1;rounded=0;exitX=1;exitY=0.5;exitDx=0;exitDy=0;strokeWidth=3;fillColor=#1ba1e2;strokeColor=#006EAF;" parent="1" source="P5KSGQUnuvj7HyThQPCA-4" edge="1">
          <mxGeometry width="50" height="50" relative="1" as="geometry">
            <mxPoint x="397" y="681.5" as="sourcePoint" />
            <mxPoint x="582" y="682" as="targetPoint" />
          </mxGeometry>
        </mxCell>
        <mxCell id="_5pGIIAS3tbBoMZiF2tw-20" style="rounded=0;orthogonalLoop=1;jettySize=auto;html=1;exitX=0.5;exitY=0;exitDx=0;exitDy=0;entryX=0.5;entryY=1;entryDx=0;entryDy=0;edgeStyle=orthogonalEdgeStyle;curved=1;" parent="1" source="P5KSGQUnuvj7HyThQPCA-4" target="_5pGIIAS3tbBoMZiF2tw-14" edge="1">
          <mxGeometry relative="1" as="geometry">
            <mxPoint x="475" y="557" as="sourcePoint" />
            <mxPoint x="505" y="502" as="targetPoint" />
          </mxGeometry>
        </mxCell>
        <mxCell id="_5pGIIAS3tbBoMZiF2tw-21" value="" style="endArrow=none;html=1;rounded=0;strokeWidth=3;fillColor=#60a917;strokeColor=#2D7600;" parent="1" target="_5pGIIAS3tbBoMZiF2tw-14" edge="1">
          <mxGeometry width="50" height="50" relative="1" as="geometry">
            <mxPoint x="300" y="572" as="sourcePoint" />
            <mxPoint x="640" y="572" as="targetPoint" />
          </mxGeometry>
        </mxCell>
        <mxCell id="_5pGIIAS3tbBoMZiF2tw-14" value="DEV&lt;div&gt;V1&lt;/div&gt;" style="ellipse;whiteSpace=wrap;html=1;aspect=fixed;fillColor=#60a917;fontColor=#ffffff;strokeColor=#2D7600;" parent="1" vertex="1">
          <mxGeometry x="380" y="547" width="50" height="50" as="geometry" />
        </mxCell>
        <mxCell id="_5pGIIAS3tbBoMZiF2tw-22" value="Feature&lt;div&gt;V2&lt;/div&gt;" style="ellipse;whiteSpace=wrap;html=1;aspect=fixed;fillColor=#1ba1e2;fontColor=#ffffff;strokeColor=#006EAF;" parent="1" vertex="1">
          <mxGeometry x="542" y="657" width="50" height="50" as="geometry" />
        </mxCell>
        <mxCell id="_5pGIIAS3tbBoMZiF2tw-24" value="" style="endArrow=none;html=1;rounded=0;strokeWidth=3;fillColor=#60a917;strokeColor=#2D7600;" parent="1" source="_5pGIIAS3tbBoMZiF2tw-14" target="_5pGIIAS3tbBoMZiF2tw-23" edge="1">
          <mxGeometry width="50" height="50" relative="1" as="geometry">
            <mxPoint x="430" y="572" as="sourcePoint" />
            <mxPoint x="640" y="572" as="targetPoint" />
          </mxGeometry>
        </mxCell>
        <mxCell id="_5pGIIAS3tbBoMZiF2tw-23" value="DEV&lt;div&gt;V2&lt;/div&gt;" style="ellipse;whiteSpace=wrap;html=1;aspect=fixed;fillColor=#60a917;fontColor=#ffffff;strokeColor=#2D7600;" parent="1" vertex="1">
          <mxGeometry x="590" y="547" width="50" height="50" as="geometry" />
        </mxCell>
        <mxCell id="_5pGIIAS3tbBoMZiF2tw-25" style="rounded=0;orthogonalLoop=1;jettySize=auto;html=1;entryX=0.5;entryY=1;entryDx=0;entryDy=0;edgeStyle=orthogonalEdgeStyle;curved=1;exitX=0.5;exitY=0;exitDx=0;exitDy=0;" parent="1" source="_5pGIIAS3tbBoMZiF2tw-22" target="_5pGIIAS3tbBoMZiF2tw-23" edge="1">
          <mxGeometry relative="1" as="geometry">
            <mxPoint x="285" y="657" as="sourcePoint" />
            <mxPoint x="415" y="607" as="targetPoint" />
          </mxGeometry>
        </mxCell>
        <mxCell id="_5pGIIAS3tbBoMZiF2tw-26" style="rounded=0;orthogonalLoop=1;jettySize=auto;html=1;entryX=0.5;entryY=1;entryDx=0;entryDy=0;edgeStyle=orthogonalEdgeStyle;curved=1;exitX=0.5;exitY=0;exitDx=0;exitDy=0;" parent="1" source="_5pGIIAS3tbBoMZiF2tw-23" target="_5pGIIAS3tbBoMZiF2tw-12" edge="1">
          <mxGeometry relative="1" as="geometry">
            <mxPoint x="505" y="657" as="sourcePoint" />
            <mxPoint x="625" y="607" as="targetPoint" />
          </mxGeometry>
        </mxCell>
        <mxCell id="iqKagp0dJ4g_8Wwua5iG-1" style="rounded=0;orthogonalLoop=1;jettySize=auto;html=1;strokeWidth=6;fillColor=#f0a30a;strokeColor=#BD7000;" parent="1" edge="1">
          <mxGeometry relative="1" as="geometry">
            <mxPoint x="189" y="474" as="targetPoint" />
            <mxPoint x="229" y="474" as="sourcePoint" />
          </mxGeometry>
        </mxCell>
        <mxCell id="iqKagp0dJ4g_8Wwua5iG-2" style="rounded=0;orthogonalLoop=1;jettySize=auto;html=1;strokeWidth=6;fillColor=#d5e8d4;strokeColor=#82b366;" parent="1" edge="1">
          <mxGeometry relative="1" as="geometry">
            <mxPoint x="190" y="571.5" as="targetPoint" />
            <mxPoint x="230" y="571.5" as="sourcePoint" />
          </mxGeometry>
        </mxCell>
        <mxCell id="iqKagp0dJ4g_8Wwua5iG-3" value="Notebook&lt;div&gt;Git branch merge Demo&lt;/div&gt;" style="shape=process;whiteSpace=wrap;html=1;backgroundOutline=1;" parent="1" vertex="1">
          <mxGeometry x="40" y="367" width="120" height="60" as="geometry" />
        </mxCell>
        <mxCell id="iqKagp0dJ4g_8Wwua5iG-4" value="ADF&lt;div&gt;Git branch merge Demo&lt;/div&gt;" style="shape=process;whiteSpace=wrap;html=1;backgroundOutline=1;" parent="1" vertex="1">
          <mxGeometry x="40" y="737" width="120" height="60" as="geometry" />
        </mxCell>
        <mxCell id="iqKagp0dJ4g_8Wwua5iG-5" value="DEV" style="ellipse;whiteSpace=wrap;html=1;aspect=fixed;fillColor=#60a917;fontColor=#ffffff;strokeColor=#2D7600;" parent="1" vertex="1">
          <mxGeometry x="252" y="912" width="50" height="50" as="geometry" />
        </mxCell>
        <mxCell id="iqKagp0dJ4g_8Wwua5iG-6" value="Main" style="ellipse;whiteSpace=wrap;html=1;aspect=fixed;fillColor=#6a00ff;fontColor=#ffffff;strokeColor=#3700CC;" parent="1" vertex="1">
          <mxGeometry x="252" y="812" width="50" height="50" as="geometry" />
        </mxCell>
        <mxCell id="iqKagp0dJ4g_8Wwua5iG-7" value="Feature" style="ellipse;whiteSpace=wrap;html=1;aspect=fixed;fillColor=#1ba1e2;fontColor=#ffffff;strokeColor=#006EAF;" parent="1" vertex="1">
          <mxGeometry x="252" y="1027" width="50" height="50" as="geometry" />
        </mxCell>
        <mxCell id="iqKagp0dJ4g_8Wwua5iG-8" value="PROD/TEST" style="rounded=0;whiteSpace=wrap;html=1;fillColor=#6a00ff;fontColor=#ffffff;strokeColor=#3700CC;" parent="1" vertex="1">
          <mxGeometry x="42" y="817" width="120" height="40" as="geometry" />
        </mxCell>
        <mxCell id="iqKagp0dJ4g_8Wwua5iG-9" value="DEV" style="rounded=0;whiteSpace=wrap;html=1;fillColor=#60a917;fontColor=#ffffff;strokeColor=#2D7600;" parent="1" vertex="1">
          <mxGeometry x="42" y="917" width="120" height="40" as="geometry" />
        </mxCell>
        <mxCell id="iqKagp0dJ4g_8Wwua5iG-10" value="" style="endArrow=none;html=1;rounded=0;exitX=1;exitY=0.5;exitDx=0;exitDy=0;strokeWidth=3;fillColor=#6a00ff;strokeColor=#3700CC;" parent="1" source="iqKagp0dJ4g_8Wwua5iG-6" target="iqKagp0dJ4g_8Wwua5iG-11" edge="1">
          <mxGeometry width="50" height="50" relative="1" as="geometry">
            <mxPoint x="302" y="857" as="sourcePoint" />
            <mxPoint x="772" y="852" as="targetPoint" />
          </mxGeometry>
        </mxCell>
        <mxCell id="iqKagp0dJ4g_8Wwua5iG-11" value="Main&lt;div&gt;V2&lt;/div&gt;" style="ellipse;whiteSpace=wrap;html=1;aspect=fixed;fillColor=#6a00ff;fontColor=#ffffff;strokeColor=#3700CC;" parent="1" vertex="1">
          <mxGeometry x="712" y="812" width="50" height="50" as="geometry" />
        </mxCell>
        <mxCell id="iqKagp0dJ4g_8Wwua5iG-12" value="" style="endArrow=none;html=1;rounded=0;strokeWidth=3;fillColor=#6a00ff;strokeColor=#3700CC;" parent="1" source="iqKagp0dJ4g_8Wwua5iG-21" edge="1">
          <mxGeometry width="50" height="50" relative="1" as="geometry">
            <mxPoint x="302" y="937" as="sourcePoint" />
            <mxPoint x="642" y="937" as="targetPoint" />
          </mxGeometry>
        </mxCell>
        <mxCell id="iqKagp0dJ4g_8Wwua5iG-13" style="rounded=0;orthogonalLoop=1;jettySize=auto;html=1;exitX=0.5;exitY=0;exitDx=0;exitDy=0;entryX=0.5;entryY=1;entryDx=0;entryDy=0;edgeStyle=orthogonalEdgeStyle;curved=1;" parent="1" source="iqKagp0dJ4g_8Wwua5iG-18" target="iqKagp0dJ4g_8Wwua5iG-14" edge="1">
          <mxGeometry relative="1" as="geometry" />
        </mxCell>
        <mxCell id="iqKagp0dJ4g_8Wwua5iG-14" value="Main&lt;div&gt;V1&lt;/div&gt;" style="ellipse;whiteSpace=wrap;html=1;aspect=fixed;fillColor=#6a00ff;fontColor=#ffffff;strokeColor=#3700CC;" parent="1" vertex="1">
          <mxGeometry x="472" y="807" width="50" height="50" as="geometry" />
        </mxCell>
        <mxCell id="iqKagp0dJ4g_8Wwua5iG-15" value="" style="endArrow=none;html=1;rounded=0;exitX=1;exitY=0.5;exitDx=0;exitDy=0;strokeWidth=3;fillColor=#1ba1e2;strokeColor=#006EAF;" parent="1" source="P5KSGQUnuvj7HyThQPCA-2" edge="1">
          <mxGeometry width="50" height="50" relative="1" as="geometry">
            <mxPoint x="395" y="1051.5" as="sourcePoint" />
            <mxPoint x="580" y="1052" as="targetPoint" />
          </mxGeometry>
        </mxCell>
        <mxCell id="iqKagp0dJ4g_8Wwua5iG-16" style="rounded=0;orthogonalLoop=1;jettySize=auto;html=1;exitX=0.5;exitY=0;exitDx=0;exitDy=0;entryX=0.5;entryY=1;entryDx=0;entryDy=0;edgeStyle=orthogonalEdgeStyle;curved=1;" parent="1" source="P5KSGQUnuvj7HyThQPCA-2" target="iqKagp0dJ4g_8Wwua5iG-18" edge="1">
          <mxGeometry relative="1" as="geometry">
            <mxPoint x="477" y="922" as="sourcePoint" />
            <mxPoint x="507" y="867" as="targetPoint" />
          </mxGeometry>
        </mxCell>
        <mxCell id="iqKagp0dJ4g_8Wwua5iG-17" value="" style="endArrow=none;html=1;rounded=0;strokeWidth=3;fillColor=#60a917;strokeColor=#2D7600;" parent="1" target="iqKagp0dJ4g_8Wwua5iG-18" edge="1">
          <mxGeometry width="50" height="50" relative="1" as="geometry">
            <mxPoint x="302" y="937" as="sourcePoint" />
            <mxPoint x="642" y="937" as="targetPoint" />
          </mxGeometry>
        </mxCell>
        <mxCell id="iqKagp0dJ4g_8Wwua5iG-18" value="DEV&lt;div&gt;V1&lt;/div&gt;" style="ellipse;whiteSpace=wrap;html=1;aspect=fixed;fillColor=#60a917;fontColor=#ffffff;strokeColor=#2D7600;" parent="1" vertex="1">
          <mxGeometry x="382" y="912" width="50" height="50" as="geometry" />
        </mxCell>
        <mxCell id="iqKagp0dJ4g_8Wwua5iG-19" value="Feature&lt;div&gt;V2&lt;/div&gt;" style="ellipse;whiteSpace=wrap;html=1;aspect=fixed;fillColor=#1ba1e2;fontColor=#ffffff;strokeColor=#006EAF;" parent="1" vertex="1">
          <mxGeometry x="540" y="1027" width="50" height="50" as="geometry" />
        </mxCell>
        <mxCell id="iqKagp0dJ4g_8Wwua5iG-20" value="" style="endArrow=none;html=1;rounded=0;strokeWidth=3;fillColor=#60a917;strokeColor=#2D7600;" parent="1" source="iqKagp0dJ4g_8Wwua5iG-18" target="iqKagp0dJ4g_8Wwua5iG-21" edge="1">
          <mxGeometry width="50" height="50" relative="1" as="geometry">
            <mxPoint x="432" y="937" as="sourcePoint" />
            <mxPoint x="642" y="937" as="targetPoint" />
          </mxGeometry>
        </mxCell>
        <mxCell id="iqKagp0dJ4g_8Wwua5iG-21" value="DEV&lt;div&gt;V2&lt;/div&gt;" style="ellipse;whiteSpace=wrap;html=1;aspect=fixed;fillColor=#60a917;fontColor=#ffffff;strokeColor=#2D7600;" parent="1" vertex="1">
          <mxGeometry x="592" y="912" width="50" height="50" as="geometry" />
        </mxCell>
        <mxCell id="iqKagp0dJ4g_8Wwua5iG-22" style="rounded=0;orthogonalLoop=1;jettySize=auto;html=1;entryX=0.5;entryY=1;entryDx=0;entryDy=0;edgeStyle=orthogonalEdgeStyle;curved=1;exitX=0.5;exitY=0;exitDx=0;exitDy=0;" parent="1" source="iqKagp0dJ4g_8Wwua5iG-19" target="iqKagp0dJ4g_8Wwua5iG-21" edge="1">
          <mxGeometry relative="1" as="geometry">
            <mxPoint x="287" y="1022" as="sourcePoint" />
            <mxPoint x="417" y="972" as="targetPoint" />
          </mxGeometry>
        </mxCell>
        <mxCell id="iqKagp0dJ4g_8Wwua5iG-23" style="rounded=0;orthogonalLoop=1;jettySize=auto;html=1;entryX=0.5;entryY=1;entryDx=0;entryDy=0;edgeStyle=orthogonalEdgeStyle;curved=1;exitX=0.5;exitY=0;exitDx=0;exitDy=0;" parent="1" source="iqKagp0dJ4g_8Wwua5iG-21" target="iqKagp0dJ4g_8Wwua5iG-11" edge="1">
          <mxGeometry relative="1" as="geometry">
            <mxPoint x="507" y="1022" as="sourcePoint" />
            <mxPoint x="627" y="972" as="targetPoint" />
          </mxGeometry>
        </mxCell>
        <mxCell id="iqKagp0dJ4g_8Wwua5iG-24" style="rounded=0;orthogonalLoop=1;jettySize=auto;html=1;strokeWidth=6;fillColor=#6a00ff;strokeColor=#3700CC;" parent="1" edge="1">
          <mxGeometry relative="1" as="geometry">
            <mxPoint x="191" y="839" as="targetPoint" />
            <mxPoint x="231" y="839" as="sourcePoint" />
          </mxGeometry>
        </mxCell>
        <mxCell id="iqKagp0dJ4g_8Wwua5iG-25" style="rounded=0;orthogonalLoop=1;jettySize=auto;html=1;strokeWidth=6;fillColor=#d5e8d4;strokeColor=#82b366;" parent="1" edge="1">
          <mxGeometry relative="1" as="geometry">
            <mxPoint x="192" y="936.5" as="targetPoint" />
            <mxPoint x="232" y="936.5" as="sourcePoint" />
          </mxGeometry>
        </mxCell>
        <mxCell id="bi0I5G_6ZC7_XjqvUMn--1" value="Merge" style="text;whiteSpace=wrap;html=1;" parent="1" vertex="1">
          <mxGeometry x="370" y="997" width="48" height="20" as="geometry" />
        </mxCell>
        <mxCell id="bi0I5G_6ZC7_XjqvUMn--2" value="Merge" style="text;whiteSpace=wrap;html=1;" parent="1" vertex="1">
          <mxGeometry x="630" y="527" width="48" height="20" as="geometry" />
        </mxCell>
        <mxCell id="bi0I5G_6ZC7_XjqvUMn--3" value="Merge" style="text;whiteSpace=wrap;html=1;" parent="1" vertex="1">
          <mxGeometry x="377" y="630" width="48" height="20" as="geometry" />
        </mxCell>
        <mxCell id="bi0I5G_6ZC7_XjqvUMn--4" value="Merge" style="text;whiteSpace=wrap;html=1;" parent="1" vertex="1">
          <mxGeometry x="581" y="630" width="48" height="20" as="geometry" />
        </mxCell>
        <mxCell id="bi0I5G_6ZC7_XjqvUMn--5" value="Merge" style="text;whiteSpace=wrap;html=1;" parent="1" vertex="1">
          <mxGeometry x="581" y="997" width="48" height="20" as="geometry" />
        </mxCell>
        <mxCell id="bi0I5G_6ZC7_XjqvUMn--6" value="Merge" style="text;whiteSpace=wrap;html=1;" parent="1" vertex="1">
          <mxGeometry x="639" y="890" width="48" height="20" as="geometry" />
        </mxCell>
        <mxCell id="bi0I5G_6ZC7_XjqvUMn--7" value="Merge" style="text;whiteSpace=wrap;html=1;" parent="1" vertex="1">
          <mxGeometry x="426" y="887" width="48" height="20" as="geometry" />
        </mxCell>
        <mxCell id="bi0I5G_6ZC7_XjqvUMn--8" value="Deployment" style="text;whiteSpace=wrap;html=1;" parent="1" vertex="1">
          <mxGeometry x="170" y="787" width="70" height="20" as="geometry" />
        </mxCell>
        <mxCell id="bi0I5G_6ZC7_XjqvUMn--9" value="Deployment" style="text;whiteSpace=wrap;html=1;" parent="1" vertex="1">
          <mxGeometry x="170" y="427" width="70" height="20" as="geometry" />
        </mxCell>
        <mxCell id="bi0I5G_6ZC7_XjqvUMn--10" value="Merge" style="text;whiteSpace=wrap;html=1;" parent="1" vertex="1">
          <mxGeometry x="418" y="521" width="48" height="20" as="geometry" />
        </mxCell>
        <mxCell id="bi0I5G_6ZC7_XjqvUMn--11" style="rounded=0;orthogonalLoop=1;jettySize=auto;html=1;elbow=vertical;entryX=0.5;entryY=0;entryDx=0;entryDy=0;" parent="1" source="iqKagp0dJ4g_8Wwua5iG-5" target="iqKagp0dJ4g_8Wwua5iG-7" edge="1">
          <mxGeometry relative="1" as="geometry">
            <mxPoint x="280" y="1037" as="targetPoint" />
          </mxGeometry>
        </mxCell>
        <mxCell id="bi0I5G_6ZC7_XjqvUMn--12" value="&lt;div&gt;Feature Branch&lt;br&gt;&lt;/div&gt;Creation&lt;div&gt;&lt;br&gt;&lt;/div&gt;" style="text;whiteSpace=wrap;html=1;" parent="1" vertex="1">
          <mxGeometry x="220" y="967" width="48" height="50" as="geometry" />
        </mxCell>
        <mxCell id="bi0I5G_6ZC7_XjqvUMn--13" value="&lt;div&gt;Feature Branch&lt;br&gt;&lt;/div&gt;Creation&lt;div&gt;&lt;br&gt;&lt;/div&gt;" style="text;whiteSpace=wrap;html=1;" parent="1" vertex="1">
          <mxGeometry x="220" y="600" width="48" height="50" as="geometry" />
        </mxCell>
        <mxCell id="bi0I5G_6ZC7_XjqvUMn--14" style="rounded=0;orthogonalLoop=1;jettySize=auto;html=1;exitX=0.5;exitY=1;exitDx=0;exitDy=0;entryX=0.5;entryY=0;entryDx=0;entryDy=0;" parent="1" source="_5pGIIAS3tbBoMZiF2tw-2" target="_5pGIIAS3tbBoMZiF2tw-4" edge="1">
          <mxGeometry relative="1" as="geometry">
            <mxPoint x="250" y="573" as="sourcePoint" />
            <mxPoint x="250" y="673" as="targetPoint" />
          </mxGeometry>
        </mxCell>
        <mxCell id="bi0I5G_6ZC7_XjqvUMn--16" value="" style="endArrow=none;startArrow=none;html=1;rounded=0;curved=1;endFill=0;startFill=0;" parent="1" edge="1">
          <mxGeometry width="50" height="50" relative="1" as="geometry">
            <mxPoint y="717" as="sourcePoint" />
            <mxPoint x="849" y="716" as="targetPoint" />
          </mxGeometry>
        </mxCell>
        <mxCell id="P5KSGQUnuvj7HyThQPCA-3" value="" style="endArrow=none;html=1;rounded=0;exitX=1;exitY=0.5;exitDx=0;exitDy=0;strokeWidth=3;fillColor=#1ba1e2;strokeColor=#006EAF;" parent="1" source="iqKagp0dJ4g_8Wwua5iG-7" target="P5KSGQUnuvj7HyThQPCA-2" edge="1">
          <mxGeometry width="50" height="50" relative="1" as="geometry">
            <mxPoint x="302" y="1052" as="sourcePoint" />
            <mxPoint x="580" y="1052" as="targetPoint" />
          </mxGeometry>
        </mxCell>
        <mxCell id="P5KSGQUnuvj7HyThQPCA-2" value="Feature&lt;div&gt;V1&lt;/div&gt;" style="ellipse;whiteSpace=wrap;html=1;aspect=fixed;fillColor=#1ba1e2;fontColor=#ffffff;strokeColor=#006EAF;" parent="1" vertex="1">
          <mxGeometry x="332" y="1027" width="50" height="50" as="geometry" />
        </mxCell>
        <mxCell id="P5KSGQUnuvj7HyThQPCA-5" value="" style="endArrow=none;html=1;rounded=0;exitX=1;exitY=0.5;exitDx=0;exitDy=0;strokeWidth=3;fillColor=#1ba1e2;strokeColor=#006EAF;" parent="1" source="_5pGIIAS3tbBoMZiF2tw-4" target="P5KSGQUnuvj7HyThQPCA-4" edge="1">
          <mxGeometry width="50" height="50" relative="1" as="geometry">
            <mxPoint x="310" y="686" as="sourcePoint" />
            <mxPoint x="582" y="682" as="targetPoint" />
          </mxGeometry>
        </mxCell>
        <mxCell id="P5KSGQUnuvj7HyThQPCA-4" value="Feature&lt;div&gt;V1&lt;/div&gt;" style="ellipse;whiteSpace=wrap;html=1;aspect=fixed;fillColor=#1ba1e2;fontColor=#ffffff;strokeColor=#006EAF;" parent="1" vertex="1">
          <mxGeometry x="340" y="657" width="50" height="50" as="geometry" />
        </mxCell>
        <mxCell id="Jh9G-vTCGXpnsFreRWyh-1" value="" style="endArrow=none;startArrow=none;html=1;rounded=0;curved=1;endFill=0;startFill=0;strokeColor=#FF0000;" edge="1" parent="1">
          <mxGeometry width="50" height="50" relative="1" as="geometry">
            <mxPoint y="338" as="sourcePoint" />
            <mxPoint x="849" y="337" as="targetPoint" />
          </mxGeometry>
        </mxCell>
        <mxCell id="Jh9G-vTCGXpnsFreRWyh-4" value="Before PROD Deployment" style="shape=process;whiteSpace=wrap;html=1;backgroundOutline=1;" vertex="1" parent="1">
          <mxGeometry x="40" width="120" height="60" as="geometry" />
        </mxCell>
        <mxCell id="Jh9G-vTCGXpnsFreRWyh-5" value="&lt;font style=&quot;font-size: 14px;&quot;&gt;生产部署之前，ADF和Notebook 需要部署测试环境进行测试的，先手动通过复制方式部署到测试环境，待测试通过之后，可以部署生产时，统一提交GIT，通过CICD 分别部署测试环境和生产环境，测试环境会覆盖掉之前手动复制部署的部分，如图所示：&lt;/font&gt;" style="text;whiteSpace=wrap;html=1;" vertex="1" parent="1">
          <mxGeometry x="174.5" width="645" height="70" as="geometry" />
        </mxCell>
        <mxCell id="Jh9G-vTCGXpnsFreRWyh-6" value="DEV" style="image;aspect=fixed;html=1;points=[];align=center;fontSize=12;image=img/lib/azure2/databases/Data_Factory.svg;" vertex="1" parent="1">
          <mxGeometry x="100" y="110" width="48" height="48" as="geometry" />
        </mxCell>
        <mxCell id="Jh9G-vTCGXpnsFreRWyh-7" value="DEV" style="image;aspect=fixed;html=1;points=[];align=center;fontSize=12;image=img/lib/azure2/analytics/Azure_Databricks.svg;" vertex="1" parent="1">
          <mxGeometry x="100" y="220" width="42.8" height="46.34" as="geometry" />
        </mxCell>
        <mxCell id="Jh9G-vTCGXpnsFreRWyh-8" style="rounded=0;orthogonalLoop=1;jettySize=auto;html=1;strokeWidth=4;fillColor=#d5e8d4;strokeColor=#E43B29;endSize=4;startSize=4;" edge="1" parent="1">
          <mxGeometry relative="1" as="geometry">
            <mxPoint x="234.5" y="243.5" as="targetPoint" />
            <mxPoint x="174.5" y="243.5" as="sourcePoint" />
          </mxGeometry>
        </mxCell>
        <mxCell id="Jh9G-vTCGXpnsFreRWyh-9" style="rounded=0;orthogonalLoop=1;jettySize=auto;html=1;strokeWidth=4;fillColor=#CCE3F5;strokeColor=#0076D0;endSize=4;startSize=4;" edge="1" parent="1">
          <mxGeometry relative="1" as="geometry">
            <mxPoint x="235" y="140" as="targetPoint" />
            <mxPoint x="175" y="140" as="sourcePoint" />
          </mxGeometry>
        </mxCell>
        <mxCell id="Jh9G-vTCGXpnsFreRWyh-12" value="Manual Copy" style="text;whiteSpace=wrap;html=1;" vertex="1" parent="1">
          <mxGeometry x="170" y="139" width="80" height="20" as="geometry" />
        </mxCell>
        <mxCell id="Jh9G-vTCGXpnsFreRWyh-13" value="Manual Copy" style="text;whiteSpace=wrap;html=1;" vertex="1" parent="1">
          <mxGeometry x="170" y="242" width="80" height="20" as="geometry" />
        </mxCell>
        <mxCell id="Jh9G-vTCGXpnsFreRWyh-14" style="rounded=0;orthogonalLoop=1;jettySize=auto;html=1;strokeWidth=4;fillColor=#d5e8d4;strokeColor=#E43B29;endSize=4;startSize=4;" edge="1" parent="1">
          <mxGeometry relative="1" as="geometry">
            <mxPoint x="414.25" y="220" as="targetPoint" />
            <mxPoint x="353.75" y="243.5" as="sourcePoint" />
          </mxGeometry>
        </mxCell>
        <mxCell id="Jh9G-vTCGXpnsFreRWyh-15" style="rounded=0;orthogonalLoop=1;jettySize=auto;html=1;strokeWidth=4;fillColor=#d5e8d4;strokeColor=#0076D0;endSize=4;startSize=4;" edge="1" parent="1">
          <mxGeometry relative="1" as="geometry">
            <mxPoint x="414" y="180" as="targetPoint" />
            <mxPoint x="354" y="150" as="sourcePoint" />
          </mxGeometry>
        </mxCell>
        <mxCell id="Jh9G-vTCGXpnsFreRWyh-17" style="rounded=0;orthogonalLoop=1;jettySize=auto;html=1;strokeWidth=4;fillColor=#d5e8d4;strokeColor=#00BEF1;endSize=4;startSize=4;" edge="1" parent="1">
          <mxGeometry relative="1" as="geometry">
            <mxPoint x="578" y="189.5" as="targetPoint" />
            <mxPoint x="510" y="189.5" as="sourcePoint" />
          </mxGeometry>
        </mxCell>
        <mxCell id="Jh9G-vTCGXpnsFreRWyh-18" value="Git" style="verticalLabelPosition=bottom;html=1;verticalAlign=top;align=center;strokeColor=none;fillColor=#00BEF2;shape=mxgraph.azure.github_code;pointerEvents=1;" vertex="1" parent="1">
          <mxGeometry x="590" y="165" width="50" height="50" as="geometry" />
        </mxCell>
        <mxCell id="Jh9G-vTCGXpnsFreRWyh-19" value="Git Submitted on&amp;nbsp;&lt;span style=&quot;background-color: initial;&quot;&gt;DEV&lt;/span&gt;" style="text;whiteSpace=wrap;html=1;" vertex="1" parent="1">
          <mxGeometry x="500" y="193" width="81" height="20" as="geometry" />
        </mxCell>
        <mxCell id="Jh9G-vTCGXpnsFreRWyh-22" style="rounded=0;orthogonalLoop=1;jettySize=auto;html=1;strokeWidth=4;fillColor=#d5e8d4;strokeColor=#2472D9;endSize=4;startSize=4;" edge="1" parent="1">
          <mxGeometry relative="1" as="geometry">
            <mxPoint x="718" y="189.5" as="targetPoint" />
            <mxPoint x="650" y="189.5" as="sourcePoint" />
          </mxGeometry>
        </mxCell>
        <mxCell id="Jh9G-vTCGXpnsFreRWyh-23" value="" style="aspect=fixed;sketch=0;html=1;dashed=0;whitespace=wrap;verticalLabelPosition=bottom;verticalAlign=top;fillColor=#2875E2;strokeColor=#ffffff;points=[[0.005,0.63,0],[0.1,0.2,0],[0.9,0.2,0],[0.5,0,0],[0.995,0.63,0],[0.72,0.99,0],[0.5,1,0],[0.28,0.99,0]];shape=mxgraph.kubernetes.icon2;prIcon=deploy" vertex="1" parent="1">
          <mxGeometry x="720" y="165" width="50" height="48" as="geometry" />
        </mxCell>
        <mxCell id="Jh9G-vTCGXpnsFreRWyh-24" value="CICD Deployment&lt;div&gt;(TST/PROD)&lt;/div&gt;" style="text;whiteSpace=wrap;html=1;align=center;" vertex="1" parent="1">
          <mxGeometry x="691" y="210" width="108" height="20" as="geometry" />
        </mxCell>
        <mxCell id="Jh9G-vTCGXpnsFreRWyh-25" value="TST" style="image;aspect=fixed;html=1;points=[];align=center;fontSize=12;image=img/lib/azure2/databases/Data_Factory.svg;" vertex="1" parent="1">
          <mxGeometry x="276" y="112" width="48" height="48" as="geometry" />
        </mxCell>
        <mxCell id="Jh9G-vTCGXpnsFreRWyh-26" value="TST" style="image;aspect=fixed;html=1;points=[];align=center;fontSize=12;image=img/lib/azure2/analytics/Azure_Databricks.svg;" vertex="1" parent="1">
          <mxGeometry x="278.6" y="220" width="42.8" height="46.34" as="geometry" />
        </mxCell>
        <mxCell id="55Yj2f-IPB9UFg9Oh5uO-1" value="&lt;div&gt;&lt;font style=&quot;font-size: 10px;&quot; color=&quot;#005ad2&quot;&gt;&lt;i&gt;备注：&lt;/i&gt;&lt;/font&gt;&lt;/div&gt;&lt;div&gt;&lt;ul&gt;&lt;li style=&quot;color: rgb(0, 90, 210); margin-left: -0.25in;&quot; class=&quot;MsoListParagraph&quot;&gt;&lt;font style=&quot;font-size: 10px;&quot;&gt;&lt;i&gt;&lt;span style=&quot;font-family: DengXian;&quot; lang=&quot;ZH-CN&quot;&gt;每周三晚上M&lt;/span&gt;&lt;span style=&quot;font-family: Arial, sans-serif;&quot; lang=&quot;EN-GB&quot;&gt;erge&lt;/span&gt;&lt;span style=&quot;font-family: DengXian;&quot; lang=&quot;ZH-CN&quot;&gt;和发布，请提前各自准备好代码到对应分支；&lt;/span&gt;&lt;/i&gt;&lt;/font&gt;&lt;/li&gt;&lt;li style=&quot;color: rgb(0, 90, 210); margin-left: -0.25in;&quot; class=&quot;MsoListParagraph&quot;&gt;&lt;font style=&quot;font-size: 10px;&quot;&gt;&lt;i&gt;&lt;span style=&quot;font-family: DengXian;&quot; lang=&quot;ZH-CN&quot;&gt;发布前需要给&lt;/span&gt;&lt;span style=&quot;font-family: Arial, sans-serif;&quot; lang=&quot;EN-GB&quot;&gt;NN DDIT&amp;nbsp;Data approve&lt;/span&gt;&lt;span style=&quot;&quot; lang=&quot;ZH-CN&quot;&gt;，需要附上测试通过的确认&lt;/span&gt;&lt;/i&gt;&lt;/font&gt;&lt;/li&gt;&lt;li style=&quot;color: rgb(0, 90, 210); margin-left: -0.25in;&quot; class=&quot;MsoListParagraph&quot;&gt;&lt;i style=&quot;background-color: initial; font-size: 10px;&quot;&gt;若周三是月刷日，Merge和发布则顺延一天。&lt;/i&gt;&lt;/li&gt;&lt;/ul&gt;&lt;/div&gt;" style="text;whiteSpace=wrap;html=1;" vertex="1" parent="1">
          <mxGeometry x="522" y="260" width="314" height="48" as="geometry" />
        </mxCell>
      </root>
    </mxGraphModel>
  </diagram>
  <diagram id="L3eM9OzltghMQT8otopn" name="Page-6">
    <mxGraphModel dx="1185" dy="666" grid="1" gridSize="10" guides="1" tooltips="1" connect="1" arrows="1" fold="1" page="1" pageScale="1" pageWidth="850" pageHeight="1100" math="0" shadow="0">
      <root>
        <mxCell id="0" />
        <mxCell id="1" parent="0" />
        <mxCell id="xDSQYSj9QUxr426V_Plp-2" value="NN DAP CR DROP Deployment Demo" style="swimlane;childLayout=stackLayout;resizeParent=1;resizeParentMax=0;startSize=20;html=1;" parent="1" vertex="1">
          <mxGeometry x="211.00000000000045" y="200" width="433.75" height="640" as="geometry" />
        </mxCell>
        <mxCell id="xDSQYSj9QUxr426V_Plp-3" value="CG" style="swimlane;startSize=20;html=1;" parent="xDSQYSj9QUxr426V_Plp-2" vertex="1">
          <mxGeometry y="20" width="140" height="620" as="geometry" />
        </mxCell>
        <mxCell id="xDSQYSj9QUxr426V_Plp-7" value="开发完成" style="rounded=1;whiteSpace=wrap;html=1;" parent="xDSQYSj9QUxr426V_Plp-3" vertex="1">
          <mxGeometry x="30" y="40" width="80" height="20" as="geometry" />
        </mxCell>
        <mxCell id="xDSQYSj9QUxr426V_Plp-11" value="" style="edgeStyle=orthogonalEdgeStyle;rounded=0;orthogonalLoop=1;jettySize=auto;html=1;exitX=0.454;exitY=1.014;exitDx=0;exitDy=0;exitPerimeter=0;" parent="xDSQYSj9QUxr426V_Plp-3" source="xDSQYSj9QUxr426V_Plp-7" target="xDSQYSj9QUxr426V_Plp-10" edge="1">
          <mxGeometry relative="1" as="geometry">
            <mxPoint x="69.99999999999955" y="120" as="sourcePoint" />
          </mxGeometry>
        </mxCell>
        <mxCell id="xDSQYSj9QUxr426V_Plp-15" style="edgeStyle=orthogonalEdgeStyle;rounded=0;orthogonalLoop=1;jettySize=auto;html=1;exitX=0.5;exitY=1;exitDx=0;exitDy=0;" parent="xDSQYSj9QUxr426V_Plp-3" source="xDSQYSj9QUxr426V_Plp-10" target="xDSQYSj9QUxr426V_Plp-14" edge="1">
          <mxGeometry relative="1" as="geometry" />
        </mxCell>
        <mxCell id="xDSQYSj9QUxr426V_Plp-10" value="手工复制部署测试" style="whiteSpace=wrap;html=1;rounded=1;" parent="xDSQYSj9QUxr426V_Plp-3" vertex="1">
          <mxGeometry x="16.5" y="120" width="100" height="20" as="geometry" />
        </mxCell>
        <mxCell id="xDSQYSj9QUxr426V_Plp-17" value="" style="edgeStyle=orthogonalEdgeStyle;rounded=0;orthogonalLoop=1;jettySize=auto;html=1;" parent="xDSQYSj9QUxr426V_Plp-3" source="xDSQYSj9QUxr426V_Plp-14" target="xDSQYSj9QUxr426V_Plp-16" edge="1">
          <mxGeometry relative="1" as="geometry" />
        </mxCell>
        <mxCell id="xDSQYSj9QUxr426V_Plp-14" value="UAT测试联调" style="whiteSpace=wrap;html=1;rounded=1;" parent="xDSQYSj9QUxr426V_Plp-3" vertex="1">
          <mxGeometry x="16.5" y="180" width="100" height="20" as="geometry" />
        </mxCell>
        <mxCell id="xDSQYSj9QUxr426V_Plp-16" value="UAT report" style="whiteSpace=wrap;html=1;rounded=1;" parent="xDSQYSj9QUxr426V_Plp-3" vertex="1">
          <mxGeometry x="6.5" y="250" width="120" height="20" as="geometry" />
        </mxCell>
        <mxCell id="xDSQYSj9QUxr426V_Plp-23" value="" style="edgeStyle=orthogonalEdgeStyle;rounded=0;orthogonalLoop=1;jettySize=auto;html=1;" parent="xDSQYSj9QUxr426V_Plp-3" source="xDSQYSj9QUxr426V_Plp-20" target="xDSQYSj9QUxr426V_Plp-22" edge="1">
          <mxGeometry relative="1" as="geometry" />
        </mxCell>
        <mxCell id="xDSQYSj9QUxr426V_Plp-20" value="UAT 测试通过完成" style="whiteSpace=wrap;html=1;rounded=1;" parent="xDSQYSj9QUxr426V_Plp-3" vertex="1">
          <mxGeometry x="7.5" y="300" width="120" height="20" as="geometry" />
        </mxCell>
        <mxCell id="xDSQYSj9QUxr426V_Plp-22" value="PROD Deployment Application" style="whiteSpace=wrap;html=1;rounded=1;" parent="xDSQYSj9QUxr426V_Plp-3" vertex="1">
          <mxGeometry x="7.5" y="360" width="120" height="30" as="geometry" />
        </mxCell>
        <mxCell id="cFFu1__TM1eS3hwUOgan-8" style="edgeStyle=orthogonalEdgeStyle;rounded=0;orthogonalLoop=1;jettySize=auto;html=1;entryX=0.5;entryY=0;entryDx=0;entryDy=0;" parent="xDSQYSj9QUxr426V_Plp-3" source="cFFu1__TM1eS3hwUOgan-5" target="cFFu1__TM1eS3hwUOgan-7" edge="1">
          <mxGeometry relative="1" as="geometry" />
        </mxCell>
        <mxCell id="cFFu1__TM1eS3hwUOgan-5" value="Merge Dev to Main branch" style="whiteSpace=wrap;html=1;rounded=1;" parent="xDSQYSj9QUxr426V_Plp-3" vertex="1">
          <mxGeometry x="7.5" y="450" width="120" height="30" as="geometry" />
        </mxCell>
        <mxCell id="cFFu1__TM1eS3hwUOgan-11" style="edgeStyle=orthogonalEdgeStyle;rounded=0;orthogonalLoop=1;jettySize=auto;html=1;exitX=0.5;exitY=1;exitDx=0;exitDy=0;entryX=0.5;entryY=0;entryDx=0;entryDy=0;" parent="xDSQYSj9QUxr426V_Plp-3" source="cFFu1__TM1eS3hwUOgan-7" target="cFFu1__TM1eS3hwUOgan-9" edge="1">
          <mxGeometry relative="1" as="geometry" />
        </mxCell>
        <mxCell id="cFFu1__TM1eS3hwUOgan-7" value="CI/CD PROD&amp;nbsp; Deployment&amp;nbsp;" style="whiteSpace=wrap;html=1;rounded=1;" parent="xDSQYSj9QUxr426V_Plp-3" vertex="1">
          <mxGeometry x="7.5" y="510" width="120" height="30" as="geometry" />
        </mxCell>
        <mxCell id="cFFu1__TM1eS3hwUOgan-9" value="上线后测试" style="whiteSpace=wrap;html=1;rounded=1;" parent="xDSQYSj9QUxr426V_Plp-3" vertex="1">
          <mxGeometry x="7.5" y="570" width="120" height="30" as="geometry" />
        </mxCell>
        <mxCell id="xDSQYSj9QUxr426V_Plp-4" value="NN" style="swimlane;startSize=20;html=1;" parent="xDSQYSj9QUxr426V_Plp-2" vertex="1">
          <mxGeometry x="140" y="20" width="173.75" height="620" as="geometry" />
        </mxCell>
        <mxCell id="xDSQYSj9QUxr426V_Plp-12" value="提出测试申请" style="rounded=1;whiteSpace=wrap;html=1;" parent="xDSQYSj9QUxr426V_Plp-4" vertex="1">
          <mxGeometry x="35" y="40" width="80" height="20" as="geometry" />
        </mxCell>
        <mxCell id="xDSQYSj9QUxr426V_Plp-18" value="UAT sign off" style="whiteSpace=wrap;html=1;rounded=1;" parent="xDSQYSj9QUxr426V_Plp-4" vertex="1">
          <mxGeometry x="43.75" y="300" width="80" height="20" as="geometry" />
        </mxCell>
        <mxCell id="xDSQYSj9QUxr426V_Plp-24" value="是否通过" style="rhombus;whiteSpace=wrap;html=1;rounded=1;" parent="xDSQYSj9QUxr426V_Plp-4" vertex="1">
          <mxGeometry x="35" y="352.5" width="80" height="45" as="geometry" />
        </mxCell>
        <mxCell id="xDSQYSj9QUxr426V_Plp-30" value="" style="rounded=0;orthogonalLoop=1;jettySize=auto;html=1;entryX=0.5;entryY=0;entryDx=0;entryDy=0;" parent="xDSQYSj9QUxr426V_Plp-4" source="xDSQYSj9QUxr426V_Plp-28" target="xDSQYSj9QUxr426V_Plp-18" edge="1">
          <mxGeometry relative="1" as="geometry" />
        </mxCell>
        <mxCell id="xDSQYSj9QUxr426V_Plp-28" value="是否通过" style="rhombus;whiteSpace=wrap;html=1;rounded=1;" parent="xDSQYSj9QUxr426V_Plp-4" vertex="1">
          <mxGeometry x="43.75" y="237.5" width="80" height="45" as="geometry" />
        </mxCell>
        <mxCell id="cFFu1__TM1eS3hwUOgan-1" value="&lt;b&gt;&lt;font style=&quot;font-size: 16px;&quot;&gt;N&lt;/font&gt;&lt;/b&gt;" style="text;strokeColor=none;align=center;fillColor=none;html=1;verticalAlign=middle;whiteSpace=wrap;rounded=0;" parent="xDSQYSj9QUxr426V_Plp-4" vertex="1">
          <mxGeometry x="89" y="220" width="16.25" height="17.5" as="geometry" />
        </mxCell>
        <mxCell id="cFFu1__TM1eS3hwUOgan-2" value="&lt;span style=&quot;font-size: 16px;&quot;&gt;&lt;b&gt;Y&lt;/b&gt;&lt;/span&gt;" style="text;strokeColor=none;align=center;fillColor=none;html=1;verticalAlign=middle;whiteSpace=wrap;rounded=0;" parent="xDSQYSj9QUxr426V_Plp-4" vertex="1">
          <mxGeometry x="89" y="280" width="16.25" height="17.5" as="geometry" />
        </mxCell>
        <mxCell id="cFFu1__TM1eS3hwUOgan-3" value="&lt;span style=&quot;font-size: 16px;&quot;&gt;&lt;b&gt;Y&lt;/b&gt;&lt;/span&gt;" style="text;strokeColor=none;align=center;fillColor=none;html=1;verticalAlign=middle;whiteSpace=wrap;rounded=0;" parent="xDSQYSj9QUxr426V_Plp-4" vertex="1">
          <mxGeometry x="89" y="397.5" width="16.25" height="17.5" as="geometry" />
        </mxCell>
        <mxCell id="cFFu1__TM1eS3hwUOgan-4" value="&lt;b&gt;&lt;font style=&quot;font-size: 16px;&quot;&gt;N&lt;/font&gt;&lt;/b&gt;" style="text;strokeColor=none;align=center;fillColor=none;html=1;verticalAlign=middle;whiteSpace=wrap;rounded=0;" parent="xDSQYSj9QUxr426V_Plp-4" vertex="1">
          <mxGeometry x="107.5" y="350" width="16.25" height="17.5" as="geometry" />
        </mxCell>
        <mxCell id="xDSQYSj9QUxr426V_Plp-5" value="Vendor" style="swimlane;startSize=20;html=1;" parent="xDSQYSj9QUxr426V_Plp-2" vertex="1">
          <mxGeometry x="313.75" y="20" width="120" height="620" as="geometry" />
        </mxCell>
        <mxCell id="xDSQYSj9QUxr426V_Plp-21" value="" style="rounded=0;orthogonalLoop=1;jettySize=auto;html=1;edgeStyle=orthogonalEdgeStyle;" parent="xDSQYSj9QUxr426V_Plp-2" source="xDSQYSj9QUxr426V_Plp-18" target="xDSQYSj9QUxr426V_Plp-20" edge="1">
          <mxGeometry relative="1" as="geometry">
            <Array as="points">
              <mxPoint x="220" y="330" />
            </Array>
          </mxGeometry>
        </mxCell>
        <mxCell id="xDSQYSj9QUxr426V_Plp-25" value="" style="edgeStyle=orthogonalEdgeStyle;rounded=0;orthogonalLoop=1;jettySize=auto;html=1;" parent="xDSQYSj9QUxr426V_Plp-2" source="xDSQYSj9QUxr426V_Plp-22" target="xDSQYSj9QUxr426V_Plp-24" edge="1">
          <mxGeometry relative="1" as="geometry" />
        </mxCell>
        <mxCell id="xDSQYSj9QUxr426V_Plp-27" value="" style="edgeStyle=orthogonalEdgeStyle;rounded=0;orthogonalLoop=1;jettySize=auto;html=1;entryX=0;entryY=0.5;entryDx=0;entryDy=0;" parent="xDSQYSj9QUxr426V_Plp-2" source="xDSQYSj9QUxr426V_Plp-16" target="xDSQYSj9QUxr426V_Plp-28" edge="1">
          <mxGeometry relative="1" as="geometry" />
        </mxCell>
        <mxCell id="xDSQYSj9QUxr426V_Plp-31" style="edgeStyle=orthogonalEdgeStyle;rounded=0;orthogonalLoop=1;jettySize=auto;html=1;exitX=0.5;exitY=0;exitDx=0;exitDy=0;entryX=1;entryY=0.5;entryDx=0;entryDy=0;" parent="xDSQYSj9QUxr426V_Plp-2" source="xDSQYSj9QUxr426V_Plp-28" target="xDSQYSj9QUxr426V_Plp-14" edge="1">
          <mxGeometry relative="1" as="geometry" />
        </mxCell>
        <mxCell id="xDSQYSj9QUxr426V_Plp-32" style="edgeStyle=orthogonalEdgeStyle;rounded=0;orthogonalLoop=1;jettySize=auto;html=1;exitX=1;exitY=0.5;exitDx=0;exitDy=0;" parent="xDSQYSj9QUxr426V_Plp-2" source="xDSQYSj9QUxr426V_Plp-7" target="xDSQYSj9QUxr426V_Plp-12" edge="1">
          <mxGeometry relative="1" as="geometry" />
        </mxCell>
        <mxCell id="cFFu1__TM1eS3hwUOgan-6" value="" style="edgeStyle=orthogonalEdgeStyle;rounded=0;orthogonalLoop=1;jettySize=auto;html=1;" parent="xDSQYSj9QUxr426V_Plp-2" source="xDSQYSj9QUxr426V_Plp-24" target="cFFu1__TM1eS3hwUOgan-5" edge="1">
          <mxGeometry relative="1" as="geometry">
            <Array as="points">
              <mxPoint x="209" y="480" />
            </Array>
          </mxGeometry>
        </mxCell>
      </root>
    </mxGraphModel>
  </diagram>
  <diagram id="rh5EUMtMesm1mDOcnp8F" name="Page-7">
    <mxGraphModel dx="1034" dy="462" grid="1" gridSize="10" guides="1" tooltips="1" connect="1" arrows="1" fold="1" page="1" pageScale="1" pageWidth="850" pageHeight="1100" math="0" shadow="0">
      <root>
        <mxCell id="0" />
        <mxCell id="1" parent="0" />
        <mxCell id="sYf0JWrdwB-WnfJfAtPq-1" value="Testing Pass" style="image;aspect=fixed;perimeter=ellipsePerimeter;html=1;align=center;shadow=0;dashed=0;fontColor=#4277BB;labelBackgroundColor=default;fontSize=12;spacingTop=3;image=img/lib/ibm/devops/continuous_testing.svg;" parent="1" vertex="1">
          <mxGeometry x="430" y="164" width="50" height="50" as="geometry" />
        </mxCell>
        <mxCell id="sYf0JWrdwB-WnfJfAtPq-2" value="Before PROD Deployment" style="shape=process;whiteSpace=wrap;html=1;backgroundOutline=1;" parent="1" vertex="1">
          <mxGeometry x="40" width="120" height="60" as="geometry" />
        </mxCell>
        <mxCell id="sYf0JWrdwB-WnfJfAtPq-3" value="&lt;font style=&quot;font-size: 14px;&quot;&gt;生产部署之前，ADF和Notebook 需要部署测试环境进行测试的，先手动通过复制方式部署到测试环境，待测试通过之后，可以部署生产时，统一提交GIT，通过CICD 分别部署测试环境和生产环境，测试环境会覆盖掉之前手动复制部署的部分，如图所示：&lt;/font&gt;" style="text;whiteSpace=wrap;html=1;" parent="1" vertex="1">
          <mxGeometry x="174.5" width="645" height="70" as="geometry" />
        </mxCell>
        <mxCell id="sYf0JWrdwB-WnfJfAtPq-4" value="DEV" style="image;aspect=fixed;html=1;points=[];align=center;fontSize=12;image=img/lib/azure2/databases/Data_Factory.svg;" parent="1" vertex="1">
          <mxGeometry x="100" y="110" width="48" height="48" as="geometry" />
        </mxCell>
        <mxCell id="sYf0JWrdwB-WnfJfAtPq-5" value="DEV" style="image;aspect=fixed;html=1;points=[];align=center;fontSize=12;image=img/lib/azure2/analytics/Azure_Databricks.svg;" parent="1" vertex="1">
          <mxGeometry x="100" y="220" width="42.8" height="46.34" as="geometry" />
        </mxCell>
        <mxCell id="sYf0JWrdwB-WnfJfAtPq-6" style="rounded=0;orthogonalLoop=1;jettySize=auto;html=1;strokeWidth=4;fillColor=#d5e8d4;strokeColor=#E43B29;endSize=4;startSize=4;" parent="1" edge="1">
          <mxGeometry relative="1" as="geometry">
            <mxPoint x="234.5" y="243.5" as="targetPoint" />
            <mxPoint x="174.5" y="243.5" as="sourcePoint" />
          </mxGeometry>
        </mxCell>
        <mxCell id="sYf0JWrdwB-WnfJfAtPq-7" style="rounded=0;orthogonalLoop=1;jettySize=auto;html=1;strokeWidth=4;fillColor=#CCE3F5;strokeColor=#0076D0;endSize=4;startSize=4;" parent="1" edge="1">
          <mxGeometry relative="1" as="geometry">
            <mxPoint x="235" y="140" as="targetPoint" />
            <mxPoint x="175" y="140" as="sourcePoint" />
          </mxGeometry>
        </mxCell>
        <mxCell id="sYf0JWrdwB-WnfJfAtPq-8" value="Manual Copy" style="text;whiteSpace=wrap;html=1;" parent="1" vertex="1">
          <mxGeometry x="170" y="139" width="80" height="20" as="geometry" />
        </mxCell>
        <mxCell id="sYf0JWrdwB-WnfJfAtPq-9" value="Manual Copy" style="text;whiteSpace=wrap;html=1;" parent="1" vertex="1">
          <mxGeometry x="170" y="242" width="80" height="20" as="geometry" />
        </mxCell>
        <mxCell id="sYf0JWrdwB-WnfJfAtPq-10" style="rounded=0;orthogonalLoop=1;jettySize=auto;html=1;strokeWidth=4;fillColor=#d5e8d4;strokeColor=#E43B29;endSize=4;startSize=4;" parent="1" edge="1">
          <mxGeometry relative="1" as="geometry">
            <mxPoint x="414.25" y="220" as="targetPoint" />
            <mxPoint x="353.75" y="243.5" as="sourcePoint" />
          </mxGeometry>
        </mxCell>
        <mxCell id="sYf0JWrdwB-WnfJfAtPq-11" style="rounded=0;orthogonalLoop=1;jettySize=auto;html=1;strokeWidth=4;fillColor=#d5e8d4;strokeColor=#0076D0;endSize=4;startSize=4;" parent="1" edge="1">
          <mxGeometry relative="1" as="geometry">
            <mxPoint x="414" y="180" as="targetPoint" />
            <mxPoint x="354" y="150" as="sourcePoint" />
          </mxGeometry>
        </mxCell>
        <mxCell id="sYf0JWrdwB-WnfJfAtPq-13" value="Git" style="verticalLabelPosition=bottom;html=1;verticalAlign=top;align=center;strokeColor=none;fillColor=#00BEF2;shape=mxgraph.azure.github_code;pointerEvents=1;" parent="1" vertex="1">
          <mxGeometry x="100" y="430" width="50" height="50" as="geometry" />
        </mxCell>
        <mxCell id="sYf0JWrdwB-WnfJfAtPq-15" style="rounded=0;orthogonalLoop=1;jettySize=auto;html=1;strokeWidth=4;fillColor=#d5e8d4;strokeColor=#2472D9;endSize=4;startSize=4;" parent="1" edge="1">
          <mxGeometry relative="1" as="geometry">
            <mxPoint x="718" y="189.5" as="targetPoint" />
            <mxPoint x="650" y="189.5" as="sourcePoint" />
          </mxGeometry>
        </mxCell>
        <mxCell id="sYf0JWrdwB-WnfJfAtPq-16" value="" style="aspect=fixed;sketch=0;html=1;dashed=0;whitespace=wrap;verticalLabelPosition=bottom;verticalAlign=top;fillColor=#2875E2;strokeColor=#ffffff;points=[[0.005,0.63,0],[0.1,0.2,0],[0.9,0.2,0],[0.5,0,0],[0.995,0.63,0],[0.72,0.99,0],[0.5,1,0],[0.28,0.99,0]];shape=mxgraph.kubernetes.icon2;prIcon=deploy" parent="1" vertex="1">
          <mxGeometry x="720" y="165" width="50" height="48" as="geometry" />
        </mxCell>
        <mxCell id="sYf0JWrdwB-WnfJfAtPq-17" value="CICD Deployment&lt;div&gt;(TST/PROD)&lt;/div&gt;" style="text;whiteSpace=wrap;html=1;align=center;" parent="1" vertex="1">
          <mxGeometry x="691" y="210" width="108" height="20" as="geometry" />
        </mxCell>
        <mxCell id="sYf0JWrdwB-WnfJfAtPq-18" value="TST" style="image;aspect=fixed;html=1;points=[];align=center;fontSize=12;image=img/lib/azure2/databases/Data_Factory.svg;" parent="1" vertex="1">
          <mxGeometry x="276" y="112" width="48" height="48" as="geometry" />
        </mxCell>
        <mxCell id="sYf0JWrdwB-WnfJfAtPq-19" value="TST" style="image;aspect=fixed;html=1;points=[];align=center;fontSize=12;image=img/lib/azure2/analytics/Azure_Databricks.svg;" parent="1" vertex="1">
          <mxGeometry x="278.6" y="220" width="42.8" height="46.34" as="geometry" />
        </mxCell>
        <mxCell id="NwaQAXn41bkSttfCM9wO-2" style="edgeStyle=none;curved=1;rounded=0;orthogonalLoop=1;jettySize=auto;html=1;exitX=0;exitY=0.5;exitDx=0;exitDy=0;fontSize=12;startSize=8;endSize=8;" edge="1" parent="1" source="NwaQAXn41bkSttfCM9wO-1" target="NwaQAXn41bkSttfCM9wO-3">
          <mxGeometry relative="1" as="geometry">
            <mxPoint x="150" y="700" as="targetPoint" />
          </mxGeometry>
        </mxCell>
        <mxCell id="NwaQAXn41bkSttfCM9wO-1" value="Source Table" style="rounded=1;whiteSpace=wrap;html=1;" vertex="1" parent="1">
          <mxGeometry x="360" y="670" width="120" height="60" as="geometry" />
        </mxCell>
        <mxCell id="NwaQAXn41bkSttfCM9wO-3" value="DWD" style="rounded=1;whiteSpace=wrap;html=1;" vertex="1" parent="1">
          <mxGeometry x="660" y="670" width="120" height="60" as="geometry" />
        </mxCell>
        <mxCell id="NwaQAXn41bkSttfCM9wO-4" value="Pipeline" style="rounded=1;whiteSpace=wrap;html=1;" vertex="1" parent="1">
          <mxGeometry x="490" y="860" width="120" height="60" as="geometry" />
        </mxCell>
        <mxCell id="NwaQAXn41bkSttfCM9wO-5" style="rounded=0;orthogonalLoop=1;jettySize=auto;html=1;strokeWidth=4;fillColor=#d5e8d4;strokeColor=#E43B29;endSize=4;startSize=4;" edge="1" parent="1">
          <mxGeometry relative="1" as="geometry">
            <mxPoint x="550" y="850" as="targetPoint" />
            <mxPoint x="490" y="750" as="sourcePoint" />
          </mxGeometry>
        </mxCell>
        <mxCell id="NwaQAXn41bkSttfCM9wO-6" value="Pipeline" style="rounded=1;whiteSpace=wrap;html=1;" vertex="1" parent="1">
          <mxGeometry x="490" y="960" width="120" height="60" as="geometry" />
        </mxCell>
      </root>
    </mxGraphModel>
  </diagram>
</mxfile>
